Playpen-Rg18LongFast.ufo
<glyph name="exclam" format="2">
	<unicode hex="0021"/>
	<advance width="462"/>
	<outline>
		<contour>
			<point x="220" y="173" type="curve" smooth="yes"/>
			<point x="243" y="173"/>
			<point x="257" y="180"/>
			<point x="262" y="195" type="curve" smooth="yes"/>
			<point x="578" y="1190" type="line" smooth="yes"/>
			<point x="583" y="1205"/>
			<point x="573" y="1212"/>
			<point x="550" y="1212" type="curve" smooth="yes"/>
			<point x="527" y="1212"/>
			<point x="513" y="1205"/>
			<point x="508" y="1190" type="curve" smooth="yes"/>
			<point x="192" y="195" type="line" smooth="yes"/>
			<point x="187" y="180"/>
			<point x="197" y="173"/>
		</contour>
		<contour>
			<point x="170" y="-11" type="curve" smooth="yes"/>
			<point x="210" y="-11"/>
			<point x="228" y="20"/>
			<point x="227" y="49" type="curve" smooth="yes"/>
			<point x="226" y="76"/>
			<point x="210" y="90"/>
			<point x="188" y="90" type="curve" smooth="yes"/>
			<point x="148" y="90"/>
			<point x="130" y="59"/>
			<point x="131" y="30" type="curve" smooth="yes"/>
			<point x="132" y="3"/>
			<point x="148" y="-11"/>
		</contour>
	</outline>
</glyph>
<glyph name="numbersign" format="2">
	<unicode hex="0023"/>
	<advance width="740"/>
	<outline>
		<contour>
			<point x="141" y="-15" type="curve" smooth="yes"/>
			<point x="164" y="-20"/>
			<point x="177" y="-17"/>
			<point x="183" y="-2" type="curve" smooth="yes"/>
			<point x="442" y="684" type="line" smooth="yes"/>
			<point x="448" y="699"/>
			<point x="439" y="709"/>
			<point x="418" y="715" type="curve" smooth="yes"/>
			<point x="395" y="721"/>
			<point x="382" y="717"/>
			<point x="376" y="702" type="curve" smooth="yes"/>
			<point x="117" y="16" type="line" smooth="yes"/>
			<point x="111" y="1"/>
			<point x="120" y="-10"/>
		</contour>
		<contour>
			<point x="40" y="182" type="curve" smooth="yes"/>
			<point x="666" y="182" type="line" smooth="yes"/>
			<point x="682" y="182"/>
			<point x="690" y="190"/>
			<point x="698" y="214" type="curve" smooth="yes"/>
			<point x="706" y="238"/>
			<point x="702" y="246"/>
			<point x="686" y="246" type="curve" smooth="yes"/>
			<point x="60" y="246" type="line" smooth="yes"/>
			<point x="44" y="246"/>
			<point x="36" y="238"/>
			<point x="28" y="214" type="curve" smooth="yes"/>
			<point x="20" y="190"/>
			<point x="24" y="182"/>
		</contour>
		<contour>
			<point x="152" y="453" type="curve" smooth="yes"/>
			<point x="778" y="453" type="line" smooth="yes"/>
			<point x="794" y="453"/>
			<point x="802" y="461"/>
			<point x="810" y="485" type="curve" smooth="yes"/>
			<point x="818" y="509"/>
			<point x="814" y="517"/>
			<point x="798" y="517" type="curve" smooth="yes"/>
			<point x="172" y="517" type="line" smooth="yes"/>
			<point x="156" y="517"/>
			<point x="148" y="509"/>
			<point x="140" y="485" type="curve" smooth="yes"/>
			<point x="132" y="461"/>
			<point x="136" y="453"/>
		</contour>
		<contour>
			<point x="416" y="-15" type="curve" smooth="yes"/>
			<point x="439" y="-20"/>
			<point x="452" y="-17"/>
			<point x="458" y="-2" type="curve" smooth="yes"/>
			<point x="717" y="684" type="line" smooth="yes"/>
			<point x="723" y="699"/>
			<point x="714" y="709"/>
			<point x="693" y="715" type="curve" smooth="yes"/>
			<point x="670" y="721"/>
			<point x="657" y="717"/>
			<point x="651" y="702" type="curve" smooth="yes"/>
			<point x="392" y="16" type="line" smooth="yes"/>
			<point x="386" y="1"/>
			<point x="395" y="-10"/>
		</contour>
	</outline>
</glyph>
<glyph name="dollar" format="2">
  <advance width="853"/>
  <unicode hex="0024"/>
  <outline>
    <contour>
      <point x="416" y="-15" type="curve" smooth="yes"/>
      <point x="631" y="-15"/>
      <point x="809" y="139"/>
      <point x="809" y="347" type="curve" smooth="yes"/>
      <point x="807" y="502"/>
      <point x="708" y="575"/>
      <point x="586" y="651" type="curve" smooth="yes"/>
      <point x="465" y="726"/>
      <point x="402" y="772"/>
      <point x="402" y="888" type="curve" smooth="yes"/>
      <point x="402" y="1050"/>
      <point x="524" y="1144"/>
      <point x="671" y="1144" type="curve" smooth="yes"/>
      <point x="788" y="1144"/>
      <point x="854" y="1083"/>
      <point x="917" y="1023" type="curve" smooth="yes"/>
      <point x="928" y="1013"/>
      <point x="941" y="1016"/>
      <point x="953" y="1028" type="curve" smooth="yes"/>
      <point x="967" y="1041"/>
      <point x="970" y="1053"/>
      <point x="959" y="1064" type="curve" smooth="yes"/>
      <point x="879" y="1149"/>
      <point x="797" y="1212"/>
      <point x="674" y="1212" type="curve" smooth="yes"/>
      <point x="471" y="1212"/>
      <point x="328" y="1080"/>
      <point x="328" y="888" type="curve" smooth="yes"/>
      <point x="328" y="731"/>
      <point x="422" y="665"/>
      <point x="543" y="591" type="curve" smooth="yes"/>
      <point x="665" y="516"/>
      <point x="735" y="457"/>
      <point x="735" y="343" type="curve" smooth="yes"/>
      <point x="735" y="177"/>
      <point x="597" y="53"/>
      <point x="416" y="53" type="curve" smooth="yes"/>
      <point x="292" y="53"/>
      <point x="200" y="133"/>
      <point x="138" y="207" type="curve" smooth="yes"/>
      <point x="128" y="219"/>
      <point x="116" y="214"/>
      <point x="102" y="202" type="curve" smooth="yes"/>
      <point x="91" y="192"/>
      <point x="83" y="181"/>
      <point x="92" y="168" type="curve" smooth="yes"/>
      <point x="149" y="91"/>
      <point x="252" y="-15"/>
    </contour>
    <contour>
      <point x="311" y="-120" type="curve" smooth="yes"/>
      <point x="332" y="-120"/>
      <point x="345" y="-113"/>
      <point x="350" y="-98" type="curve" smooth="yes"/>
      <point x="808" y="1307" type="line" smooth="yes"/>
      <point x="813" y="1322"/>
      <point x="804" y="1329"/>
      <point x="783" y="1329" type="curve" smooth="yes"/>
      <point x="762" y="1329"/>
      <point x="749" y="1322"/>
      <point x="744" y="1307" type="curve" smooth="yes"/>
      <point x="286" y="-98" type="line" smooth="yes"/>
      <point x="281" y="-113"/>
      <point x="290" y="-120"/>
    </contour>
  </outline>
</glyph>
<glyph name="percent" format="2">
  <advance width="1200"/>
  <unicode hex="0025"/>
  <outline>
    <contour>
      <point x="175" y="410" type="curve" smooth="yes"/>
      <point x="250" y="410"/>
      <point x="300" y="472"/>
      <point x="300" y="561" type="curve" smooth="yes"/>
      <point x="300" y="650"/>
      <point x="248" y="712"/>
      <point x="175" y="712" type="curve" smooth="yes"/>
      <point x="103" y="712"/>
      <point x="50" y="650"/>
      <point x="50" y="561" type="curve" smooth="yes"/>
      <point x="50" y="472"/>
      <point x="98" y="410"/>
    </contour>
    <contour>
      <point x="175" y="437" type="curve" smooth="yes"/>
      <point x="116" y="437"/>
      <point x="80" y="488"/>
      <point x="80" y="561" type="curve" smooth="yes"/>
      <point x="80" y="634"/>
      <point x="116" y="685"/>
      <point x="175" y="685" type="curve" smooth="yes"/>
      <point x="234" y="685"/>
      <point x="270" y="634"/>
      <point x="270" y="561" type="curve" smooth="yes"/>
      <point x="270" y="488"/>
      <point x="234" y="437"/>
    </contour>
    <contour>
      <point x="130" y="-10" type="curve"/>
      <point x="548" y="691" type="line" smooth="yes"/>
      <point x="551" y="697"/>
      <point x="548" y="703"/>
      <point x="541" y="708" type="curve"/>
      <point x="531" y="714"/>
      <point x="525" y="713"/>
      <point x="522" y="706" type="curve"/>
      <point x="104" y="5" type="line" smooth="yes"/>
      <point x="100" y="-2"/>
      <point x="102" y="-7"/>
      <point x="111" y="-12" type="curve" smooth="yes"/>
      <point x="120" y="-18"/>
      <point x="126" y="-17"/>
    </contour>
    <contour>
      <point x="483" y="-15" type="curve" smooth="yes"/>
      <point x="558" y="-15"/>
      <point x="608" y="47"/>
      <point x="608" y="136" type="curve" smooth="yes"/>
      <point x="608" y="225"/>
      <point x="556" y="287"/>
      <point x="483" y="287" type="curve" smooth="yes"/>
      <point x="411" y="287"/>
      <point x="358" y="225"/>
      <point x="358" y="136" type="curve" smooth="yes"/>
      <point x="358" y="47"/>
      <point x="406" y="-15"/>
    </contour>
    <contour>
      <point x="483" y="12" type="curve" smooth="yes"/>
      <point x="424" y="12"/>
      <point x="388" y="63"/>
      <point x="388" y="136" type="curve" smooth="yes"/>
      <point x="388" y="209"/>
      <point x="424" y="260"/>
      <point x="483" y="260" type="curve" smooth="yes"/>
      <point x="542" y="260"/>
      <point x="578" y="209"/>
      <point x="578" y="136" type="curve" smooth="yes"/>
      <point x="578" y="63"/>
      <point x="542" y="12"/>
    </contour>
  </outline>
</glyph>
<glyph name="ampersand" format="2">
  <advance width="1321"/>
  <unicode hex="0026"/>
  <outline>
    <contour>
      <point x="164" y="325" type="curve" smooth="yes"/>
      <point x="164" y="126"/>
      <point x="318" y="-19"/>
      <point x="531" y="-19" type="curve" smooth="yes"/>
      <point x="860" y="-19"/>
      <point x="1136" y="306"/>
      <point x="1284" y="751" type="curve" smooth="yes"/>
      <point x="1293" y="778"/>
      <point x="1284" y="790"/>
      <point x="1243" y="790" type="curve" smooth="yes"/>
      <point x="1216" y="790"/>
      <point x="1206" y="785"/>
      <point x="1198" y="758" type="curve" smooth="yes"/>
      <point x="1068" y="358"/>
      <point x="806" y="66"/>
      <point x="543" y="66" type="curve" smooth="yes"/>
      <point x="378" y="66"/>
      <point x="258" y="178"/>
      <point x="258" y="333" type="curve" smooth="yes"/>
      <point x="258" y="818"/>
      <point x="1150" y="755"/>
      <point x="1150" y="1258" type="curve" smooth="yes"/>
      <point x="1150" y="1411"/>
      <point x="1038" y="1515"/>
      <point x="891" y="1515" type="curve" smooth="yes"/>
      <point x="671" y="1515"/>
      <point x="524" y="1324"/>
      <point x="524" y="1099" type="curve" smooth="yes"/>
      <point x="524" y="989"/>
      <point x="548" y="909"/>
      <point x="619" y="785" type="curve" smooth="yes"/>
      <point x="1064" y="3" type="line" smooth="yes"/>
      <point x="1075" y="-19"/>
      <point x="1093" y="-19"/>
      <point x="1115" y="-6" type="curve" smooth="yes"/>
      <point x="1141" y="9"/>
      <point x="1146" y="26"/>
      <point x="1136" y="44" type="curve" smooth="yes"/>
      <point x="685" y="838" type="line" smooth="yes"/>
      <point x="631" y="930"/>
      <point x="613" y="998"/>
      <point x="613" y="1104" type="curve" smooth="yes"/>
      <point x="613" y="1290"/>
      <point x="711" y="1431"/>
      <point x="880" y="1431" type="curve" smooth="yes"/>
      <point x="990" y="1431"/>
      <point x="1063" y="1361"/>
      <point x="1063" y="1250" type="curve" smooth="yes"/>
      <point x="1063" y="823"/>
      <point x="164" y="878"/>
    </contour>
  </outline>
</glyph>
<glyph name="quotesingle" format="2">
  <advance width="169"/>
  <unicode hex="0027"/>
  <outline>
    <contour>
      <point x="399" y="1223" type="curve" smooth="yes"/>
      <point x="423" y="1223"/>
      <point x="434" y="1238"/>
      <point x="440" y="1254" type="curve" smooth="yes"/>
      <point x="538" y="1505" type="line" smooth="yes"/>
      <point x="546" y="1526"/>
      <point x="538" y="1545"/>
      <point x="501" y="1545" type="curve" smooth="yes"/>
      <point x="468" y="1545"/>
      <point x="451" y="1526"/>
      <point x="445" y="1505" type="curve" smooth="yes"/>
      <point x="378" y="1254" type="line" smooth="yes"/>
      <point x="374" y="1238"/>
      <point x="369" y="1223"/>
    </contour>
  </outline>
</glyph>
<glyph name="parenright" format="2">
  <advance width="389"/>
  <unicode hex="0029"/>
  <outline>
    <contour>
      <point x="62" y="-13" type="curve" smooth="yes"/>
      <point x="45" y="-34"/>
      <point x="45" y="-47"/>
      <point x="63" y="-59" type="curve" smooth="yes"/>
      <point x="86" y="-75"/>
      <point x="97" y="-70"/>
      <point x="112" y="-52" type="curve" smooth="yes"/>
      <point x="320" y="198"/>
      <point x="446" y="554"/>
      <point x="446" y="889" type="curve" smooth="yes"/>
      <point x="446" y="1025"/>
      <point x="426" y="1149"/>
      <point x="393" y="1246" type="curve" smooth="yes"/>
      <point x="386" y="1267"/>
      <point x="377" y="1271"/>
      <point x="355" y="1266" type="curve" smooth="yes"/>
      <point x="334" y="1261"/>
      <point x="323" y="1255"/>
      <point x="332" y="1229" type="curve" smooth="yes"/>
      <point x="360" y="1147"/>
      <point x="376" y="1036"/>
      <point x="376" y="909" type="curve" smooth="yes"/>
      <point x="376" y="570"/>
      <point x="257" y="221"/>
    </contour>
  </outline>
</glyph>
<glyph name="asterisk" format="2">
	<unicode hex="002A"/>
	<advance width="286"/>
	<outline>
		<contour>
			<point x="212" y="403" type="curve" smooth="yes"/>
			<point x="227" y="403"/>
			<point x="235" y="408"/>
			<point x="238" y="418" type="curve" smooth="yes"/>
			<point x="330" y="700" type="line" smooth="yes"/>
			<point x="333" y="710"/>
			<point x="325" y="715"/>
			<point x="310" y="715" type="curve" smooth="yes"/>
			<point x="295" y="715"/>
			<point x="287" y="710"/>
			<point x="284" y="700" type="curve" smooth="yes"/>
			<point x="192" y="418" type="line" smooth="yes"/>
			<point x="189" y="408"/>
			<point x="197" y="403"/>
		</contour>
		<contour>
			<point x="100" y="508" type="curve" smooth="yes"/>
			<point x="104" y="494"/>
			<point x="111" y="490"/>
			<point x="122" y="493" type="curve" smooth="yes"/>
			<point x="421" y="593" type="line" smooth="yes"/>
			<point x="432" y="597"/>
			<point x="433" y="606"/>
			<point x="429" y="619" type="curve" smooth="yes"/>
			<point x="425" y="632"/>
			<point x="419" y="637"/>
			<point x="408" y="633" type="curve" smooth="yes"/>
			<point x="109" y="534" type="line" smooth="yes"/>
			<point x="98" y="530"/>
			<point x="97" y="521"/>
		</contour>
		<contour>
			<point x="140" y="675" type="curve" smooth="yes"/>
			<point x="129" y="665"/>
			<point x="129" y="656"/>
			<point x="137" y="649" type="curve" smooth="yes"/>
			<point x="353" y="446" type="line" smooth="yes"/>
			<point x="362" y="438"/>
			<point x="370" y="442"/>
			<point x="379" y="452" type="curve" smooth="yes"/>
			<point x="390" y="461"/>
			<point x="391" y="469"/>
			<point x="383" y="477" type="curve" smooth="yes"/>
			<point x="167" y="679" type="line" smooth="yes"/>
			<point x="158" y="688"/>
			<point x="149" y="684"/>
		</contour>
	</outline>
</glyph>
<glyph name="plus" format="2">
	<unicode hex="002B"/>
	<advance width="610"/>
	<outline>
		<contour>
			<point x="284" y="121" type="curve" smooth="yes"/>
			<point x="305" y="121"/>
			<point x="313" y="125"/>
			<point x="320" y="147" type="curve" smooth="yes"/>
			<point x="449" y="548" type="line" smooth="yes"/>
			<point x="456" y="569"/>
			<point x="449" y="579"/>
			<point x="416" y="579" type="curve" smooth="yes"/>
			<point x="395" y="579"/>
			<point x="387" y="575"/>
			<point x="380" y="553" type="curve" smooth="yes"/>
			<point x="251" y="152" type="line" smooth="yes"/>
			<point x="244" y="131"/>
			<point x="251" y="121"/>
		</contour>
		<component base="minus"/>
	</outline>
</glyph>
<glyph name="period" format="2">
	<unicode hex="002E"/>
	<advance width="250"/>
	<outline>
		<contour>
			<point x="64" y="-27" type="curve" smooth="yes"/>
			<point x="101" y="-27"/>
			<point x="119" y="-4"/>
			<point x="119" y="35" type="curve" smooth="yes"/>
			<point x="119" y="61"/>
			<point x="104" y="77"/>
			<point x="72" y="77" type="curve" smooth="yes"/>
			<point x="36" y="77"/>
			<point x="18" y="54"/>
			<point x="18" y="15" type="curve" smooth="yes"/>
			<point x="18" y="-11"/>
			<point x="33" y="-27"/>
		</contour>
	</outline>
</glyph>
<glyph name="slash" format="2">
  <advance width="525"/>
  <unicode hex="002F"/>
  <outline>
    <contour>
      <point x="-45" y="-75" type="curve" smooth="yes"/>
      <point x="-19" y="-82"/>
      <point x="5" y="-76"/>
      <point x="15" y="-59" type="curve" smooth="yes"/>
      <point x="923" y="1536" type="line" smooth="yes"/>
      <point x="933" y="1554"/>
      <point x="920" y="1568"/>
      <point x="895" y="1575" type="curve" smooth="yes"/>
      <point x="869" y="1583"/>
      <point x="845" y="1576"/>
      <point x="835" y="1559" type="curve" smooth="yes"/>
      <point x="-72" y="-36" type="line" smooth="yes"/>
      <point x="-82" y="-54"/>
      <point x="-70" y="-67"/>
    </contour>
  </outline>
</glyph>
<glyph name="zero" format="2">
	<unicode hex="0030"/>
	<advance width="945"/>
	<outline>
		<contour>
			<point x="447" y="-15" type="curve" smooth="yes"/>
			<point x="765" y="-15"/>
			<point x="1049" y="430"/>
			<point x="1049" y="858" type="curve" smooth="yes"/>
			<point x="1049" y="1084"/>
			<point x="943" y="1212"/>
			<point x="762" y="1212" type="curve" smooth="yes"/>
			<point x="443" y="1212"/>
			<point x="157" y="767"/>
			<point x="157" y="359" type="curve" smooth="yes"/>
			<point x="157" y="93"/>
			<point x="265" y="-15"/>
		</contour>
		<contour>
			<point x="457" y="57" type="curve" smooth="yes"/>
			<point x="312" y="57"/>
			<point x="234" y="136"/>
			<point x="234" y="359" type="curve" smooth="yes"/>
			<point x="234" y="725"/>
			<point x="483" y="1141"/>
			<point x="753" y="1141" type="curve" smooth="yes"/>
			<point x="896" y="1141"/>
			<point x="972" y="1046"/>
			<point x="972" y="858" type="curve" smooth="yes"/>
			<point x="972" y="472"/>
			<point x="725" y="57"/>
		</contour>
	</outline>
</glyph>
<glyph name="one" format="2">
	<unicode hex="0031"/>
	<advance width="557"/>
	<outline>
		<contour>
			<point x="239" y="-11" type="curve" smooth="yes"/>
			<point x="262" y="-11"/>
			<point x="277" y="-6"/>
			<point x="282" y="11" type="curve" smooth="yes"/>
			<point x="658" y="1188" type="line" smooth="yes"/>
			<point x="663" y="1204"/>
			<point x="652" y="1212"/>
			<point x="630" y="1212" type="curve" smooth="yes"/>
			<point x="596" y="1212"/>
			<point x="585" y="1205"/>
			<point x="559" y="1183" type="curve" smooth="yes"/>
			<point x="482" y="1117"/>
			<point x="377" y="1045"/>
			<point x="292" y="998" type="curve" smooth="yes"/>
			<point x="276" y="989"/>
			<point x="272" y="977"/>
			<point x="281" y="959" type="curve" smooth="yes"/>
			<point x="290" y="940"/>
			<point x="303" y="937"/>
			<point x="321" y="946" type="curve" smooth="yes"/>
			<point x="396" y="985"/>
			<point x="484" y="1044"/>
			<point x="561" y="1105" type="curve"/>
			<point x="211" y="13" type="line" smooth="yes"/>
			<point x="206" y="-3"/>
			<point x="218" y="-11"/>
		</contour>
	</outline>
</glyph>
<glyph name="two" format="2">
  <advance width="1028"/>
  <unicode hex="0032"/>
  <outline>
    <contour>
      <point x="41" y="0" type="curve" smooth="yes"/>
      <point x="828" y="0" type="line" smooth="yes"/>
      <point x="848" y="0"/>
      <point x="868" y="24"/>
      <point x="868" y="60" type="curve" smooth="yes"/>
      <point x="868" y="73"/>
      <point x="861" y="80"/>
      <point x="849" y="80" type="curve" smooth="yes"/>
      <point x="183" y="80" type="line"/>
      <point x="424" y="271" type="line" smooth="yes"/>
      <point x="894" y="644"/>
      <point x="1188" y="913"/>
      <point x="1188" y="1219" type="curve" smooth="yes"/>
      <point x="1188" y="1411"/>
      <point x="1063" y="1515"/>
      <point x="878" y="1515" type="curve" smooth="yes"/>
      <point x="721" y="1515"/>
      <point x="570" y="1444"/>
      <point x="464" y="1354" type="curve" smooth="yes"/>
      <point x="433" y="1328"/>
      <point x="426" y="1311"/>
      <point x="444" y="1289" type="curve" smooth="yes"/>
      <point x="463" y="1264"/>
      <point x="480" y="1265"/>
      <point x="511" y="1289" type="curve" smooth="yes"/>
      <point x="626" y="1376"/>
      <point x="730" y="1428"/>
      <point x="865" y="1428" type="curve" smooth="yes"/>
      <point x="1008" y="1428"/>
      <point x="1094" y="1355"/>
      <point x="1094" y="1211" type="curve" smooth="yes"/>
      <point x="1094" y="943"/>
      <point x="849" y="714"/>
      <point x="376" y="339" type="curve" smooth="yes"/>
      <point x="29" y="63" type="line" smooth="yes"/>
      <point x="1" y="41"/>
      <point x="13" y="0"/>
    </contour>
  </outline>
</glyph>
<glyph name="three" format="2">
	<unicode hex="0033"/>
	<advance width="901"/>
	<outline>
		<contour>
			<point x="435" y="-15" type="curve" smooth="yes"/>
			<point x="686" y="-15"/>
			<point x="848" y="137"/>
			<point x="848" y="356" type="curve" smooth="yes"/>
			<point x="848" y="498"/>
			<point x="772" y="603"/>
			<point x="664" y="632" type="curve"/>
			<point x="859" y="667"/>
			<point x="959" y="776"/>
			<point x="959" y="943" type="curve" smooth="yes"/>
			<point x="959" y="1126"/>
			<point x="831" y="1212"/>
			<point x="677" y="1212" type="curve" smooth="yes"/>
			<point x="563" y="1212"/>
			<point x="433" y="1169"/>
			<point x="352" y="1082" type="curve" smooth="yes"/>
			<point x="331" y="1059"/>
			<point x="326" y="1048"/>
			<point x="344" y="1031" type="curve" smooth="yes"/>
			<point x="364" y="1013"/>
			<point x="372" y="1013"/>
			<point x="391" y="1032" type="curve" smooth="yes"/>
			<point x="479" y="1121"/>
			<point x="577" y="1148"/>
			<point x="677" y="1148" type="curve" smooth="yes"/>
			<point x="791" y="1148"/>
			<point x="886" y="1085"/>
			<point x="886" y="943" type="curve" smooth="yes"/>
			<point x="886" y="757"/>
			<point x="736" y="671"/>
			<point x="542" y="671" type="curve" smooth="yes"/>
			<point x="457" y="671" type="line" smooth="yes"/>
			<point x="445" y="671"/>
			<point x="434" y="660"/>
			<point x="428" y="639" type="curve" smooth="yes"/>
			<point x="422" y="617"/>
			<point x="427" y="607"/>
			<point x="439" y="607" type="curve" smooth="yes"/>
			<point x="524" y="607" type="line" smooth="yes"/>
			<point x="677" y="607"/>
			<point x="774" y="516"/>
			<point x="774" y="356" type="curve" smooth="yes"/>
			<point x="774" y="174"/>
			<point x="646" y="49"/>
			<point x="435" y="49" type="curve" smooth="yes"/>
			<point x="307" y="49"/>
			<point x="196" y="119"/>
			<point x="143" y="245" type="curve" smooth="yes"/>
			<point x="133" y="269"/>
			<point x="126" y="274"/>
			<point x="102" y="265" type="curve" smooth="yes"/>
			<point x="76" y="255"/>
			<point x="76" y="243"/>
			<point x="88" y="213" type="curve" smooth="yes"/>
			<point x="143" y="79"/>
			<point x="279" y="-15"/>
		</contour>
	</outline>
</glyph>
<glyph name="four" format="2">
  <advance width="1148"/>
  <unicode hex="0034"/>
  <outline>
    <contour>
      <point x="176" y="439" type="curve" smooth="yes"/>
      <point x="1135" y="439" type="line" smooth="yes"/>
      <point x="1155" y="439"/>
      <point x="1175" y="463"/>
      <point x="1175" y="499" type="curve" smooth="yes"/>
      <point x="1175" y="511"/>
      <point x="1169" y="519"/>
      <point x="1156" y="519" type="curve" smooth="yes"/>
      <point x="290" y="519" type="line"/>
      <point x="1098" y="1465" type="line" smooth="yes"/>
      <point x="1115" y="1486"/>
      <point x="1109" y="1500"/>
      <point x="1076" y="1513" type="curve" smooth="yes"/>
      <point x="1051" y="1523"/>
      <point x="1033" y="1520"/>
      <point x="1019" y="1504" type="curve" smooth="yes"/>
      <point x="160" y="498" type="line" smooth="yes"/>
      <point x="139" y="474"/>
      <point x="146" y="439"/>
    </contour>
    <contour>
      <point x="769" y="-14" type="curve" smooth="yes"/>
      <point x="799" y="-14"/>
      <point x="814" y="-5"/>
      <point x="820" y="14" type="curve" smooth="yes"/>
      <point x="1160" y="1058" type="line" smooth="yes"/>
      <point x="1166" y="1079"/>
      <point x="1151" y="1088"/>
      <point x="1121" y="1088" type="curve" smooth="yes"/>
      <point x="1091" y="1088"/>
      <point x="1076" y="1079"/>
      <point x="1070" y="1060" type="curve" smooth="yes"/>
      <point x="730" y="16" type="line" smooth="yes"/>
      <point x="724" y="-5"/>
      <point x="739" y="-14"/>
    </contour>
  </outline>
</glyph>
<glyph name="five" format="2">
	<unicode hex="0035"/>
	<advance width="901"/>
	<outline>
		<contour>
			<point x="451" y="-15" type="curve" smooth="yes"/>
			<point x="694" y="-15"/>
			<point x="881" y="160"/>
			<point x="881" y="449" type="curve" smooth="yes"/>
			<point x="881" y="647"/>
			<point x="760" y="745"/>
			<point x="585" y="745" type="curve" smooth="yes"/>
			<point x="502" y="745"/>
			<point x="400" y="708"/>
			<point x="329" y="655" type="curve"/>
			<point x="490" y="1126" type="line"/>
			<point x="1013" y="1126" type="line" smooth="yes"/>
			<point x="1029" y="1126"/>
			<point x="1045" y="1145"/>
			<point x="1045" y="1174" type="curve" smooth="yes"/>
			<point x="1045" y="1184"/>
			<point x="1040" y="1190"/>
			<point x="1030" y="1190" type="curve" smooth="yes"/>
			<point x="467" y="1190" type="line" smooth="yes"/>
			<point x="452" y="1190"/>
			<point x="443" y="1181"/>
			<point x="440" y="1172" type="curve" smooth="yes"/>
			<point x="239" y="589" type="line" smooth="yes"/>
			<point x="225" y="549"/>
			<point x="272" y="547"/>
			<point x="297" y="567" type="curve" smooth="yes"/>
			<point x="378" y="632"/>
			<point x="473" y="681"/>
			<point x="585" y="681" type="curve" smooth="yes"/>
			<point x="720" y="681"/>
			<point x="808" y="607"/>
			<point x="808" y="449" type="curve" smooth="yes"/>
			<point x="808" y="220"/>
			<point x="669" y="49"/>
			<point x="451" y="49" type="curve" smooth="yes"/>
			<point x="322" y="49"/>
			<point x="226" y="105"/>
			<point x="147" y="222" type="curve" smooth="yes"/>
			<point x="133" y="242"/>
			<point x="123" y="251"/>
			<point x="99" y="236" type="curve" smooth="yes"/>
			<point x="74" y="220"/>
			<point x="78" y="205"/>
			<point x="93" y="180" type="curve" smooth="yes"/>
			<point x="176" y="45"/>
			<point x="315" y="-15"/>
		</contour>
	</outline>
</glyph>
<glyph name="six" format="2">
	<unicode hex="0036"/>
	<advance width="968"/>
	<outline>
		<contour>
			<point x="525" y="-15" type="curve" smooth="yes"/>
			<point x="769" y="-15"/>
			<point x="948" y="159"/>
			<point x="948" y="438" type="curve" smooth="yes"/>
			<point x="948" y="618"/>
			<point x="827" y="725"/>
			<point x="661" y="725" type="curve" smooth="yes"/>
			<point x="499" y="725"/>
			<point x="339" y="604"/>
			<point x="248" y="455" type="curve"/>
			<point x="264" y="393" type="line"/>
			<point x="332" y="500"/>
			<point x="491" y="663"/>
			<point x="661" y="661" type="curve" smooth="yes"/>
			<point x="775" y="659"/>
			<point x="875" y="584"/>
			<point x="875" y="438" type="curve" smooth="yes"/>
			<point x="875" y="207"/>
			<point x="735" y="49"/>
			<point x="525" y="49" type="curve" smooth="yes"/>
			<point x="387" y="49"/>
			<point x="276" y="135"/>
			<point x="276" y="405" type="curve" smooth="yes"/>
			<point x="276" y="813"/>
			<point x="564" y="1101"/>
			<point x="978" y="1151" type="curve" smooth="yes"/>
			<point x="1003" y="1154"/>
			<point x="1015" y="1159"/>
			<point x="1012" y="1186" type="curve" smooth="yes"/>
			<point x="1010" y="1211"/>
			<point x="1000" y="1214"/>
			<point x="971" y="1211" type="curve" smooth="yes"/>
			<point x="533" y="1161"/>
			<point x="203" y="851"/>
			<point x="203" y="405" type="curve" smooth="yes"/>
			<point x="203" y="103"/>
			<point x="333" y="-15"/>
		</contour>
	</outline>
</glyph>
<glyph name="seven" format="2">
	<unicode hex="0037"/>
	<advance width="731"/>
	<outline>
		<contour>
			<point x="132" y="-10" type="curve" smooth="yes"/>
			<point x="157" y="-10"/>
			<point x="170" y="2"/>
			<point x="186" y="24" type="curve" smooth="yes"/>
			<point x="1000" y="1147" type="line" smooth="yes"/>
			<point x="1017" y="1171"/>
			<point x="998" y="1190"/>
			<point x="984" y="1190" type="curve" smooth="yes"/>
			<point x="374" y="1190" type="line" smooth="yes"/>
			<point x="358" y="1190"/>
			<point x="342" y="1171"/>
			<point x="342" y="1142" type="curve" smooth="yes"/>
			<point x="342" y="1132"/>
			<point x="347" y="1126"/>
			<point x="358" y="1126" type="curve" smooth="yes"/>
			<point x="904" y="1126" type="line"/>
			<point x="111" y="32" type="line" smooth="yes"/>
			<point x="92" y="6"/>
			<point x="94" y="-10"/>
		</contour>
	</outline>
</glyph>
<glyph name="eight" format="2">
	<unicode hex="0038"/>
	<advance width="901"/>
	<outline>
		<contour>
			<point x="459" y="-15" type="curve" smooth="yes"/>
			<point x="709" y="-15"/>
			<point x="890" y="125"/>
			<point x="890" y="319" type="curve" smooth="yes"/>
			<point x="890" y="440"/>
			<point x="813" y="541"/>
			<point x="673" y="639" type="curve"/>
			<point x="888" y="723"/>
			<point x="998" y="831"/>
			<point x="998" y="961" type="curve" smooth="yes"/>
			<point x="998" y="1107"/>
			<point x="875" y="1212"/>
			<point x="706" y="1212" type="curve" smooth="yes"/>
			<point x="495" y="1212"/>
			<point x="342" y="1094"/>
			<point x="342" y="931" type="curve" smooth="yes"/>
			<point x="342" y="840"/>
			<point x="405" y="725"/>
			<point x="521" y="650" type="curve"/>
			<point x="264" y="554"/>
			<point x="133" y="425"/>
			<point x="133" y="267" type="curve" smooth="yes"/>
			<point x="133" y="103"/>
			<point x="270" y="-15"/>
		</contour>
		<contour>
			<point x="465" y="53" type="curve" smooth="yes"/>
			<point x="316" y="53"/>
			<point x="208" y="143"/>
			<point x="208" y="267" type="curve" smooth="yes"/>
			<point x="208" y="406"/>
			<point x="336" y="521"/>
			<point x="588" y="608" type="curve"/>
			<point x="735" y="519"/>
			<point x="815" y="429"/>
			<point x="815" y="319" type="curve" smooth="yes"/>
			<point x="815" y="165"/>
			<point x="668" y="53"/>
		</contour>
		<contour>
			<point x="607" y="676" type="curve"/>
			<point x="485" y="748"/>
			<point x="417" y="854"/>
			<point x="417" y="931" type="curve" smooth="yes"/>
			<point x="417" y="1055"/>
			<point x="533" y="1144"/>
			<point x="695" y="1144" type="curve" smooth="yes"/>
			<point x="826" y="1144"/>
			<point x="923" y="1067"/>
			<point x="923" y="961" type="curve" smooth="yes"/>
			<point x="923" y="850"/>
			<point x="816" y="753"/>
		</contour>
	</outline>
</glyph>
<glyph name="less" format="2">
	<unicode hex="003C"/>
	<advance width="610"/>
	<outline>
		<contour>
			<point x="478" y="161" type="line" smooth="yes"/>
			<point x="499" y="151"/>
			<point x="511" y="154"/>
			<point x="522" y="175" type="curve" smooth="yes"/>
			<point x="532" y="195"/>
			<point x="532" y="208"/>
			<point x="511" y="218" type="curve" smooth="yes"/>
			<point x="241" y="350" type="line"/>
			<point x="603" y="498" type="line" smooth="yes"/>
			<point x="627" y="508"/>
			<point x="632" y="521"/>
			<point x="620" y="548" type="curve" smooth="yes"/>
			<point x="613" y="564"/>
			<point x="603" y="567"/>
			<point x="585" y="559" type="curve" smooth="yes"/>
			<point x="163" y="384" type="line" smooth="yes"/>
			<point x="143" y="376"/>
			<point x="135" y="371"/>
			<point x="131" y="356" type="curve" smooth="yes"/>
			<point x="127" y="343"/>
			<point x="131" y="331"/>
			<point x="150" y="322" type="curve" smooth="yes"/>
		</contour>
	</outline>
</glyph>
<glyph name="greater" format="2">
  <advance width="763"/>
  <unicode hex="003E"/>
  <outline>
    <contour>
      <point x="161" y="200" type="curve" smooth="yes"/>
      <point x="689" y="419" type="line" smooth="yes"/>
      <point x="714" y="429"/>
      <point x="724" y="435"/>
      <point x="729" y="454" type="curve" smooth="yes"/>
      <point x="734" y="470"/>
      <point x="729" y="485"/>
      <point x="705" y="496" type="curve" smooth="yes"/>
      <point x="295" y="698" type="line" smooth="yes"/>
      <point x="269" y="710"/>
      <point x="254" y="706"/>
      <point x="240" y="680" type="curve" smooth="yes"/>
      <point x="228" y="655"/>
      <point x="228" y="639"/>
      <point x="254" y="626" type="curve" smooth="yes"/>
      <point x="591" y="461" type="line"/>
      <point x="139" y="276" type="line" smooth="yes"/>
      <point x="109" y="264"/>
      <point x="103" y="248"/>
      <point x="118" y="214" type="curve" smooth="yes"/>
      <point x="126" y="194"/>
      <point x="139" y="190"/>
    </contour>
  </outline>
</glyph>
<glyph name="question" format="2">
	<unicode hex="003F"/>
	<advance width="677"/>
	<outline>
		<contour>
			<point x="250" y="173" type="curve" smooth="yes"/>
			<point x="273" y="173"/>
			<point x="287" y="180"/>
			<point x="292" y="195" type="curve" smooth="yes"/>
			<point x="386" y="484" type="line"/>
			<point x="681" y="558"/>
			<point x="893" y="767"/>
			<point x="893" y="992" type="curve" smooth="yes"/>
			<point x="893" y="1129"/>
			<point x="796" y="1212"/>
			<point x="638" y="1212" type="curve" smooth="yes"/>
			<point x="537" y="1212"/>
			<point x="397" y="1160"/>
			<point x="305" y="1088" type="curve" smooth="yes"/>
			<point x="295" y="1081"/>
			<point x="296" y="1069"/>
			<point x="305" y="1055" type="curve" smooth="yes"/>
			<point x="316" y="1038"/>
			<point x="328" y="1033"/>
			<point x="338" y="1040" type="curve" smooth="yes"/>
			<point x="431" y="1103"/>
			<point x="554" y="1148"/>
			<point x="632" y="1148" type="curve" smooth="yes"/>
			<point x="749" y="1148"/>
			<point x="820" y="1089"/>
			<point x="820" y="992" type="curve" smooth="yes"/>
			<point x="820" y="792"/>
			<point x="628" y="608"/>
			<point x="363" y="545" type="curve" smooth="yes"/>
			<point x="345" y="541"/>
			<point x="333" y="535"/>
			<point x="328" y="519" type="curve" smooth="yes"/>
			<point x="222" y="195" type="line" smooth="yes"/>
			<point x="217" y="180"/>
			<point x="227" y="173"/>
		</contour>
		<contour>
			<point x="206" y="-11" type="curve" smooth="yes"/>
			<point x="246" y="-11"/>
			<point x="263" y="20"/>
			<point x="263" y="49" type="curve" smooth="yes"/>
			<point x="263" y="76"/>
			<point x="246" y="90"/>
			<point x="224" y="90" type="curve" smooth="yes"/>
			<point x="184" y="90"/>
			<point x="167" y="59"/>
			<point x="167" y="30" type="curve" smooth="yes"/>
			<point x="167" y="3"/>
			<point x="184" y="-11"/>
		</contour>
	</outline>
</glyph>
<glyph name="A" format="2">
	<unicode hex="0041"/>
	<advance width="929"/>
	<outline>
		<contour>
			<point x="4" y="-11" type="curve" smooth="yes"/>
			<point x="31" y="-11"/>
			<point x="38" y="-7"/>
			<point x="56" y="21" type="curve" smooth="yes"/>
			<point x="270" y="358" type="line"/>
			<point x="756" y="358" type="line"/>
			<point x="766" y="18" type="line" smooth="yes"/>
			<point x="767" y="-3"/>
			<point x="772" y="-11"/>
			<point x="796" y="-11" type="curve" smooth="yes"/>
			<point x="824" y="-11"/>
			<point x="835" y="3"/>
			<point x="834" y="25" type="curve" smooth="yes"/>
			<point x="799" y="1171" type="line" smooth="yes"/>
			<point x="798" y="1205"/>
			<point x="785" y="1212"/>
			<point x="765" y="1212" type="curve" smooth="yes"/>
			<point x="739" y="1212"/>
			<point x="725" y="1204"/>
			<point x="710" y="1180" type="curve" smooth="yes"/>
			<point x="-18" y="31" type="line" smooth="yes"/>
			<point x="-33" y="8"/>
			<point x="-24" y="-11"/>
		</contour>
		<contour>
			<point x="311" y="422" type="line"/>
			<point x="735" y="1099" type="line"/>
			<point x="755" y="422" type="line"/>
		</contour>
	</outline>
	<anchor name="bottom" x="400" y="0"/>
	<anchor name="ogonek" x="823" y="0"/>
	<anchor name="top" x="722" y="1139"/>
</glyph>
<glyph name="B" format="2">
  <advance width="900"/>
  <unicode hex="0042"/>
  <anchor x="385" y="0" name="bottom"/>
  <anchor x="257" y="350" name="center"/>
  <anchor x="757" y="1139" name="top"/>
  <outline>
    <contour>
      <point x="143" y="0" type="curve" smooth="yes"/>
      <point x="393" y="0" type="line" smooth="yes"/>
      <point x="697" y="0"/>
      <point x="899" y="168"/>
      <point x="899" y="421" type="curve" smooth="yes"/>
      <point x="899" y="552"/>
      <point x="800" y="620"/>
      <point x="676" y="628" type="curve"/>
      <point x="678" y="634" type="line"/>
      <point x="879" y="652"/>
      <point x="1031" y="802"/>
      <point x="1031" y="983" type="curve" smooth="yes"/>
      <point x="1031" y="1118"/>
      <point x="933" y="1190"/>
      <point x="762" y="1190" type="curve" smooth="yes"/>
      <point x="530" y="1190" type="line" smooth="yes"/>
      <point x="506" y="1190"/>
      <point x="492" y="1183"/>
      <point x="487" y="1168" type="curve" smooth="yes"/>
      <point x="115" y="22" type="line" smooth="yes"/>
      <point x="110" y="7"/>
      <point x="120" y="0"/>
    </contour>
    <contour>
      <point x="199" y="64" type="line"/>
      <point x="371" y="597" type="line"/>
      <point x="579" y="597" type="line" smooth="yes"/>
      <point x="729" y="597"/>
      <point x="825" y="528"/>
      <point x="825" y="415" type="curve" smooth="yes"/>
      <point x="825" y="204"/>
      <point x="649" y="64"/>
      <point x="389" y="64" type="curve" smooth="yes"/>
    </contour>
    <contour>
      <point x="392" y="661" type="line"/>
      <point x="544" y="1126" type="line"/>
      <point x="742" y="1126" type="line" smooth="yes"/>
      <point x="886" y="1126"/>
      <point x="954" y="1073"/>
      <point x="954" y="971" type="curve" smooth="yes"/>
      <point x="954" y="784"/>
      <point x="765" y="661"/>
      <point x="578" y="661" type="curve" smooth="yes"/>
    </contour>
  </outline>
</glyph>
<glyph name="C" format="2">
	<unicode hex="0043"/>
	<advance width="961"/>
	<outline>
		<contour>
			<point x="527" y="-15" type="curve" smooth="yes"/>
			<point x="664" y="-15"/>
			<point x="810" y="77"/>
			<point x="954" y="265" type="curve" smooth="yes"/>
			<point x="966" y="281"/>
			<point x="964" y="289"/>
			<point x="950" y="303" type="curve" smooth="yes"/>
			<point x="938" y="315"/>
			<point x="926" y="323"/>
			<point x="914" y="310" type="curve" smooth="yes"/>
			<point x="792" y="171"/>
			<point x="676" y="53"/>
			<point x="537" y="53" type="curve" smooth="yes"/>
			<point x="368" y="53"/>
			<point x="277" y="170"/>
			<point x="277" y="390" type="curve" smooth="yes"/>
			<point x="277" y="722"/>
			<point x="514" y="1144"/>
			<point x="846" y="1144" type="curve" smooth="yes"/>
			<point x="972" y="1144"/>
			<point x="1030" y="1111"/>
			<point x="1098" y="1037" type="curve" smooth="yes"/>
			<point x="1112" y="1024"/>
			<point x="1121" y="1027"/>
			<point x="1135" y="1038" type="curve" smooth="yes"/>
			<point x="1150" y="1050"/>
			<point x="1155" y="1057"/>
			<point x="1147" y="1069" type="curve" smooth="yes"/>
			<point x="1084" y="1163"/>
			<point x="991" y="1212"/>
			<point x="856" y="1212" type="curve" smooth="yes"/>
			<point x="448" y="1212"/>
			<point x="202" y="740"/>
			<point x="202" y="384" type="curve" smooth="yes"/>
			<point x="202" y="127"/>
			<point x="325" y="-15"/>
		</contour>
	</outline>
	<anchor name="bottom" x="474" y="0"/>
	<anchor name="top" x="828" y="1139"/>
</glyph>
<glyph name="D" format="2">
	<unicode hex="0044"/>
	<advance width="1077"/>
	<outline>
		<contour>
			<point x="144" y="0" type="curve" smooth="yes"/>
			<point x="352" y="0" type="line" smooth="yes"/>
			<point x="818" y="0"/>
			<point x="1134" y="350"/>
			<point x="1134" y="833" type="curve" smooth="yes"/>
			<point x="1134" y="1057"/>
			<point x="992" y="1190"/>
			<point x="732" y="1190" type="curve" smooth="yes"/>
			<point x="529" y="1190" type="line" smooth="yes"/>
			<point x="506" y="1190"/>
			<point x="492" y="1183"/>
			<point x="487" y="1168" type="curve" smooth="yes"/>
			<point x="116" y="22" type="line" smooth="yes"/>
			<point x="111" y="7"/>
			<point x="121" y="0"/>
		</contour>
		<contour>
			<point x="201" y="68" type="line"/>
			<point x="542" y="1122" type="line"/>
			<point x="730" y="1122" type="line" smooth="yes"/>
			<point x="941" y="1122"/>
			<point x="1054" y="1014"/>
			<point x="1054" y="831" type="curve" smooth="yes"/>
			<point x="1054" y="388"/>
			<point x="772" y="68"/>
			<point x="352" y="68" type="curve" smooth="yes"/>
		</contour>
	</outline>
	<anchor name="bottom" x="467" y="0"/>
	<anchor name="center" x="367" y="598"/>
	<anchor name="top" x="788" y="1139"/>
</glyph>
<glyph name="E" format="2">
  <advance width="1026"/>
  <unicode hex="0045"/>
  <anchor x="535" y="0" name="bottom"/>
  <anchor x="874" y="21" name="ogonek"/>
  <anchor x="941" y="1424" name="top"/>
  <outline>
    <contour>
      <point x="190" y="0" type="curve" smooth="yes"/>
      <point x="854" y="0" type="line" smooth="yes"/>
      <point x="869" y="0"/>
      <point x="883" y="14"/>
      <point x="890" y="40" type="curve" smooth="yes"/>
      <point x="898" y="68"/>
      <point x="891" y="80"/>
      <point x="876" y="80" type="curve" smooth="yes"/>
      <point x="253" y="80" type="line"/>
      <point x="466" y="746" type="line"/>
      <point x="998" y="746" type="line" smooth="yes"/>
      <point x="1013" y="746"/>
      <point x="1026" y="760"/>
      <point x="1034" y="786" type="curve" smooth="yes"/>
      <point x="1041" y="814"/>
      <point x="1035" y="826"/>
      <point x="1020" y="826" type="curve" smooth="yes"/>
      <point x="493" y="826" type="line"/>
      <point x="680" y="1408" type="line"/>
      <point x="1309" y="1408" type="line" smooth="yes"/>
      <point x="1324" y="1408"/>
      <point x="1338" y="1421"/>
      <point x="1345" y="1448" type="curve" smooth="yes"/>
      <point x="1353" y="1475"/>
      <point x="1346" y="1488"/>
      <point x="1331" y="1488" type="curve" smooth="yes"/>
      <point x="656" y="1488" type="line" smooth="yes"/>
      <point x="629" y="1488"/>
      <point x="615" y="1478"/>
      <point x="609" y="1460" type="curve" smooth="yes"/>
      <point x="151" y="40" type="line" smooth="yes"/>
      <point x="143" y="11"/>
      <point x="156" y="0"/>
    </contour>
  </outline>
</glyph>
<glyph name="F" format="2">
	<unicode hex="0046"/>
	<advance width="774"/>
	<outline>
		<contour>
			<point x="139" y="-11" type="curve"/>
			<point x="162" y="-11"/>
			<point x="178" y="-4"/>
			<point x="183" y="11" type="curve" smooth="yes"/>
			<point x="361" y="563" type="line"/>
			<point x="775" y="563" type="line" smooth="yes"/>
			<point x="787" y="563"/>
			<point x="798" y="573"/>
			<point x="805" y="594" type="curve" smooth="yes"/>
			<point x="812" y="615"/>
			<point x="808" y="627"/>
			<point x="796" y="627" type="curve" smooth="yes"/>
			<point x="382" y="627" type="line"/>
			<point x="544" y="1126" type="line"/>
			<point x="1033" y="1126" type="line" smooth="yes"/>
			<point x="1045" y="1126"/>
			<point x="1056" y="1137"/>
			<point x="1062" y="1158" type="curve" smooth="yes"/>
			<point x="1068" y="1180"/>
			<point x="1063" y="1190"/>
			<point x="1051" y="1190" type="curve" smooth="yes"/>
			<point x="530" y="1190" type="line" smooth="yes"/>
			<point x="507" y="1190"/>
			<point x="492" y="1183"/>
			<point x="487" y="1168" type="curve" smooth="yes"/>
			<point x="112" y="11" type="line" smooth="yes"/>
			<point x="107" y="-4"/>
			<point x="116" y="-11"/>
		</contour>
	</outline>
</glyph>
<glyph name="G" format="2">
  <advance width="1355"/>
  <unicode hex="0047"/>
  <anchor x="613" y="0" name="bottom"/>
  <anchor x="1042" y="1424" name="top"/>
  <outline>
    <contour>
      <point x="658" y="-19" type="curve" smooth="yes"/>
      <point x="933" y="-19"/>
      <point x="1200" y="211"/>
      <point x="1365" y="745" type="curve" smooth="yes"/>
      <point x="1374" y="774"/>
      <point x="1370" y="785"/>
      <point x="1350" y="785" type="curve" smooth="yes"/>
      <point x="909" y="785" type="line" smooth="yes"/>
      <point x="889" y="785"/>
      <point x="879" y="775"/>
      <point x="869" y="745" type="curve" smooth="yes"/>
      <point x="859" y="715"/>
      <point x="863" y="705"/>
      <point x="883" y="705" type="curve" smooth="yes"/>
      <point x="1262" y="705" type="line"/>
      <point x="1112" y="284"/>
      <point x="885" y="66"/>
      <point x="667" y="66" type="curve" smooth="yes"/>
      <point x="459" y="66"/>
      <point x="343" y="214"/>
      <point x="343" y="478" type="curve" smooth="yes"/>
      <point x="343" y="898"/>
      <point x="644" y="1430"/>
      <point x="1064" y="1430" type="curve" smooth="yes"/>
      <point x="1212" y="1430"/>
      <point x="1278" y="1388"/>
      <point x="1363" y="1295" type="curve" smooth="yes"/>
      <point x="1380" y="1279"/>
      <point x="1392" y="1283"/>
      <point x="1409" y="1296" type="curve" smooth="yes"/>
      <point x="1428" y="1311"/>
      <point x="1434" y="1320"/>
      <point x="1424" y="1335" type="curve" smooth="yes"/>
      <point x="1345" y="1449"/>
      <point x="1224" y="1515"/>
      <point x="1077" y="1515" type="curve" smooth="yes"/>
      <point x="564" y="1515"/>
      <point x="249" y="923"/>
      <point x="249" y="470" type="curve" smooth="yes"/>
      <point x="249" y="161"/>
      <point x="403" y="-19"/>
    </contour>
  </outline>
</glyph>
<glyph name="H" format="2">
  <advance width="1375"/>
  <unicode hex="0048"/>
  <anchor x="606" y="0" name="bottom"/>
  <anchor x="981" y="1150" name="center"/>
  <anchor x="1043" y="1424" name="top"/>
  <outline>
    <contour>
      <point x="176" y="-14" type="curve" smooth="yes"/>
      <point x="205" y="-14"/>
      <point x="223" y="-5"/>
      <point x="229" y="14" type="curve" smooth="yes"/>
      <point x="464" y="740" type="line"/>
      <point x="1229" y="740" type="line"/>
      <point x="995" y="14" type="line" smooth="yes"/>
      <point x="989" y="-5"/>
      <point x="1001" y="-14"/>
      <point x="1030" y="-14" type="curve" smooth="yes"/>
      <point x="1059" y="-14"/>
      <point x="1076" y="-5"/>
      <point x="1083" y="14" type="curve" smooth="yes"/>
      <point x="1559" y="1488" type="line" smooth="yes"/>
      <point x="1565" y="1506"/>
      <point x="1553" y="1515"/>
      <point x="1524" y="1515" type="curve" smooth="yes"/>
      <point x="1495" y="1515"/>
      <point x="1478" y="1505"/>
      <point x="1471" y="1488" type="curve" smooth="yes"/>
      <point x="1255" y="820" type="line"/>
      <point x="490" y="820" type="line"/>
      <point x="705" y="1488" type="line" smooth="yes"/>
      <point x="711" y="1505"/>
      <point x="699" y="1515"/>
      <point x="670" y="1515" type="curve" smooth="yes"/>
      <point x="641" y="1515"/>
      <point x="624" y="1506"/>
      <point x="618" y="1488" type="curve" smooth="yes"/>
      <point x="141" y="14" type="line" smooth="yes"/>
      <point x="135" y="-5"/>
      <point x="148" y="-14"/>
    </contour>
  </outline>
</glyph>
<glyph name="I" format="2">
  <advance width="523"/>
  <unicode hex="0049"/>
  <anchor x="181" y="0" name="bottom"/>
  <anchor x="206" y="-11" name="ogonek"/>
  <anchor x="633" y="1424" name="top"/>
  <outline>
    <contour>
      <point x="180" y="-14" type="curve" smooth="yes"/>
      <point x="210" y="-14"/>
      <point x="225" y="-5"/>
      <point x="231" y="14" type="curve" smooth="yes"/>
      <point x="706" y="1485" type="line" smooth="yes"/>
      <point x="714" y="1506"/>
      <point x="698" y="1515"/>
      <point x="668" y="1515" type="curve" smooth="yes"/>
      <point x="638" y="1515"/>
      <point x="623" y="1506"/>
      <point x="616" y="1488" type="curve" smooth="yes"/>
      <point x="141" y="16" type="line" smooth="yes"/>
      <point x="134" y="-5"/>
      <point x="150" y="-14"/>
    </contour>
  </outline>
</glyph>
<glyph name="J" format="2">
	<unicode hex="004A"/>
	<advance width="805"/>
	<outline>
		<contour>
			<point x="341" y="-15" type="curve" smooth="yes"/>
			<point x="511" y="-15"/>
			<point x="619" y="94"/>
			<point x="702" y="350" type="curve" smooth="yes"/>
			<point x="974" y="1190" type="line" smooth="yes"/>
			<point x="979" y="1205"/>
			<point x="969" y="1212"/>
			<point x="946" y="1212" type="curve" smooth="yes"/>
			<point x="923" y="1212"/>
			<point x="909" y="1205"/>
			<point x="904" y="1190" type="curve" smooth="yes"/>
			<point x="637" y="370" type="line" smooth="yes"/>
			<point x="562" y="140"/>
			<point x="481" y="53"/>
			<point x="344" y="53" type="curve" smooth="yes"/>
			<point x="248" y="53"/>
			<point x="182" y="116"/>
			<point x="145" y="223" type="curve" smooth="yes"/>
			<point x="138" y="244"/>
			<point x="133" y="257"/>
			<point x="104" y="249" type="curve" smooth="yes"/>
			<point x="83" y="243"/>
			<point x="71" y="236"/>
			<point x="78" y="211" type="curve" smooth="yes"/>
			<point x="113" y="80"/>
			<point x="215" y="-15"/>
		</contour>
	</outline>
	<anchor name="bottom" x="338" y="0"/>
	<anchor name="top" x="914" y="1139"/>
</glyph>
<glyph name="K" format="2">
  <advance width="852"/>
  <unicode hex="004B"/>
  <anchor x="408" y="0" name="bottom"/>
  <anchor x="780" y="1139" name="top"/>
  <outline>
    <contour>
      <point x="137" y="-19" type="curve" smooth="yes"/>
      <point x="160" y="-19"/>
      <point x="177" y="-12"/>
      <point x="183" y="7" type="curve" smooth="yes"/>
      <point x="378" y="609" type="line"/>
      <point x="468" y="374"/>
      <point x="582" y="183"/>
      <point x="718" y="-2" type="curve" smooth="yes"/>
      <point x="732" y="-21"/>
      <point x="747" y="-29"/>
      <point x="766" y="-15" type="curve" smooth="yes"/>
      <point x="789" y="2"/>
      <point x="792" y="13"/>
      <point x="775" y="36" type="curve" smooth="yes"/>
      <point x="643" y="214"/>
      <point x="535" y="394"/>
      <point x="443" y="619" type="curve"/>
      <point x="1081" y="1145" type="line" smooth="yes"/>
      <point x="1102" y="1161"/>
      <point x="1103" y="1172"/>
      <point x="1089" y="1191" type="curve" smooth="yes"/>
      <point x="1073" y="1213"/>
      <point x="1061" y="1211"/>
      <point x="1038" y="1192" type="curve" smooth="yes"/>
      <point x="393" y="657" type="line"/>
      <point x="565" y="1185" type="line" smooth="yes"/>
      <point x="571" y="1203"/>
      <point x="561" y="1210"/>
      <point x="536" y="1210" type="curve" smooth="yes"/>
      <point x="511" y="1210"/>
      <point x="498" y="1203"/>
      <point x="492" y="1185" type="curve" smooth="yes"/>
      <point x="109" y="7" type="line" smooth="yes"/>
      <point x="102" y="-13"/>
      <point x="115" y="-19"/>
    </contour>
  </outline>
</glyph>
<glyph name="L" format="2">
  <advance width="969"/>
  <unicode hex="004C"/>
  <anchor x="750" y="764" name="CAT"/>
  <anchor x="500" y="0" name="bottom"/>
  <anchor x="424" y="765" name="center"/>
  <anchor x="643" y="1424" name="top"/>
  <anchor x="758" y="1488" name="topright"/>
  <outline>
    <contour>
      <point x="183" y="0" type="curve" smooth="yes"/>
      <point x="825" y="0" type="line" smooth="yes"/>
      <point x="840" y="0"/>
      <point x="854" y="14"/>
      <point x="861" y="40" type="curve" smooth="yes"/>
      <point x="869" y="68"/>
      <point x="863" y="80"/>
      <point x="848" y="80" type="curve" smooth="yes"/>
      <point x="250" y="80" type="line"/>
      <point x="704" y="1485" type="line" smooth="yes"/>
      <point x="711" y="1506"/>
      <point x="695" y="1515"/>
      <point x="665" y="1515" type="curve" smooth="yes"/>
      <point x="635" y="1515"/>
      <point x="624" y="1506"/>
      <point x="618" y="1488" type="curve" smooth="yes"/>
      <point x="150" y="40" type="line" smooth="yes"/>
      <point x="141" y="13"/>
      <point x="154" y="0"/>
    </contour>
  </outline>
</glyph>
<glyph name="M" format="2">
	<unicode hex="004D"/>
	<advance width="1300"/>
	<outline>
		<contour>
			<point x="144" y="-11" type="curve" smooth="yes"/>
			<point x="168" y="-11"/>
			<point x="179" y="-4"/>
			<point x="184" y="11" type="curve" smooth="yes"/>
			<point x="524" y="1063" type="line"/>
			<point x="665" y="356" type="line" smooth="yes"/>
			<point x="669" y="338"/>
			<point x="681" y="336"/>
			<point x="702" y="336" type="curve" smooth="yes"/>
			<point x="722" y="336"/>
			<point x="729" y="340"/>
			<point x="740" y="353" type="curve" smooth="yes"/>
			<point x="1330" y="1050" type="line"/>
			<point x="998" y="13" type="line" smooth="yes"/>
			<point x="993" y="-4"/>
			<point x="1004" y="-11"/>
			<point x="1028" y="-11" type="curve" smooth="yes"/>
			<point x="1052" y="-11"/>
			<point x="1062" y="-4"/>
			<point x="1067" y="11" type="curve" smooth="yes"/>
			<point x="1444" y="1188" type="line" smooth="yes"/>
			<point x="1449" y="1205"/>
			<point x="1437" y="1212"/>
			<point x="1413" y="1212" type="curve" smooth="yes"/>
			<point x="1388" y="1212"/>
			<point x="1379" y="1205"/>
			<point x="1366" y="1190" type="curve" smooth="yes"/>
			<point x="719" y="424" type="line"/>
			<point x="567" y="1190" type="line" smooth="yes"/>
			<point x="564" y="1203"/>
			<point x="556" y="1212"/>
			<point x="535" y="1212" type="curve" smooth="yes"/>
			<point x="511" y="1212"/>
			<point x="499" y="1205"/>
			<point x="494" y="1190" type="curve" smooth="yes"/>
			<point x="115" y="13" type="line" smooth="yes"/>
			<point x="110" y="-4"/>
			<point x="120" y="-11"/>
		</contour>
	</outline>
	<anchor name="bottom" x="601" y="0"/>
	<anchor name="top" x="942" y="1139"/>
</glyph>
<glyph name="N" format="2">
  <advance width="1100"/>
  <unicode hex="004E"/>
  <anchor x="485" y="0" name="bottom"/>
  <anchor x="857" y="1139" name="top"/>
  <outline>
    <contour>
      <point x="140" y="-11" type="curve" smooth="yes"/>
      <point x="163" y="-11"/>
      <point x="177" y="-4"/>
      <point x="182" y="11" type="curve" smooth="yes"/>
      <point x="529" y="1079" type="line"/>
      <point x="797" y="11" type="line" smooth="yes"/>
      <point x="802" y="-8"/>
      <point x="809" y="-11"/>
      <point x="826" y="-11" type="curve" smooth="yes"/>
      <point x="848" y="-11"/>
      <point x="862" y="-4"/>
      <point x="867" y="11" type="curve" smooth="yes"/>
      <point x="1249" y="1190" type="line" smooth="yes"/>
      <point x="1254" y="1205"/>
      <point x="1244" y="1212"/>
      <point x="1221" y="1212" type="curve" smooth="yes"/>
      <point x="1198" y="1212"/>
      <point x="1184" y="1205"/>
      <point x="1179" y="1190" type="curve" smooth="yes"/>
      <point x="835" y="130" type="line"/>
      <point x="569" y="1190" type="line" smooth="yes"/>
      <point x="565" y="1204"/>
      <point x="555" y="1212"/>
      <point x="536" y="1212" type="curve" smooth="yes"/>
      <point x="513" y="1212"/>
      <point x="499" y="1205"/>
      <point x="494" y="1190" type="curve" smooth="yes"/>
      <point x="112" y="11" type="line" smooth="yes"/>
      <point x="107" y="-4"/>
      <point x="117" y="-11"/>
    </contour>
  </outline>
</glyph>
<glyph name="O" format="2">
	<unicode hex="004F"/>
	<advance width="1147"/>
	<outline>
		<contour>
			<point x="560" y="-15" type="curve" smooth="yes"/>
			<point x="916" y="-15"/>
			<point x="1199" y="382"/>
			<point x="1199" y="812" type="curve" smooth="yes"/>
			<point x="1199" y="1063"/>
			<point x="1070" y="1212"/>
			<point x="850" y="1212" type="curve" smooth="yes"/>
			<point x="498" y="1212"/>
			<point x="208" y="818"/>
			<point x="208" y="394" type="curve" smooth="yes"/>
			<point x="208" y="137"/>
			<point x="340" y="-15"/>
		</contour>
		<contour>
			<point x="571" y="53" type="curve" smooth="yes"/>
			<point x="392" y="53"/>
			<point x="283" y="180"/>
			<point x="283" y="394" type="curve" smooth="yes"/>
			<point x="283" y="780"/>
			<point x="535" y="1145"/>
			<point x="838" y="1145" type="curve" smooth="yes"/>
			<point x="1017" y="1145"/>
			<point x="1124" y="1021"/>
			<point x="1124" y="812" type="curve" smooth="yes"/>
			<point x="1124" y="422"/>
			<point x="874" y="53"/>
		</contour>
	</outline>
	<anchor name="bottom" x="508" y="0"/>
	<anchor name="center" x="702" y="595"/>
	<anchor name="ogonek" x="972" y="17"/>
	<anchor name="top" x="850" y="1139"/>
	<anchor name="topright" x="1069" y="1139"/>
</glyph>
<glyph name="P" format="2">
  <advance width="868"/>
  <unicode hex="0050"/>
  <outline>
    <contour>
      <point x="144" y="-11" type="curve" smooth="yes"/>
      <point x="168" y="-11"/>
      <point x="178" y="-4"/>
      <point x="183" y="11" type="curve" smooth="yes"/>
      <point x="339" y="492" type="line"/>
      <point x="418" y="495"/>
      <point x="488" y="499"/>
      <point x="561" y="509" type="curve" smooth="yes"/>
      <point x="873" y="552"/>
      <point x="1045" y="708"/>
      <point x="1045" y="954" type="curve" smooth="yes"/>
      <point x="1045" y="1122"/>
      <point x="938" y="1190"/>
      <point x="734" y="1190" type="curve" smooth="yes"/>
      <point x="528" y="1190" type="line" smooth="yes"/>
      <point x="504" y="1190"/>
      <point x="492" y="1183"/>
      <point x="487" y="1168" type="curve" smooth="yes"/>
      <point x="113" y="13" type="line" smooth="yes"/>
      <point x="108" y="-4"/>
      <point x="120" y="-11"/>
    </contour>
    <contour>
      <point x="359" y="556" type="curve"/>
      <point x="544" y="1126" type="line"/>
      <point x="726" y="1126" type="line" smooth="yes"/>
      <point x="891" y="1126"/>
      <point x="970" y="1076"/>
      <point x="970" y="947" type="curve" smooth="yes"/>
      <point x="970" y="743"/>
      <point x="831" y="613"/>
      <point x="570" y="573" type="curve" smooth="yes"/>
      <point x="505" y="563"/>
      <point x="426" y="557"/>
    </contour>
  </outline>
</glyph>
<glyph name="Q" format="2">
	<unicode hex="0051"/>
	<advance width="1147"/>
	<outline>
		<contour>
			<point x="755" y="-239" type="curve" smooth="yes"/>
			<point x="783" y="-233"/>
			<point x="785" y="-220"/>
			<point x="779" y="-198" type="curve" smooth="yes"/>
			<point x="663" y="224" type="line" smooth="yes"/>
			<point x="657" y="246"/>
			<point x="647" y="253"/>
			<point x="626" y="248" type="curve" smooth="yes"/>
			<point x="599" y="242"/>
			<point x="594" y="231"/>
			<point x="601" y="206" type="curve" smooth="yes"/>
			<point x="717" y="-215" type="line" smooth="yes"/>
			<point x="724" y="-239"/>
			<point x="733" y="-243"/>
		</contour>
		<component base="O"/>
	</outline>
	<anchor name="bottom" x="508" y="0"/>
	<anchor name="center" x="702" y="595"/>
	<anchor name="ogonek" x="972" y="17"/>
	<anchor name="top" x="850" y="1139"/>
	<anchor name="topright" x="1069" y="1139"/>
</glyph>
<glyph name="S" format="2">
	<unicode hex="0053"/>
	<advance width="853"/>
	<outline>
		<contour>
			<point x="416" y="-15" type="curve" smooth="yes"/>
			<point x="631" y="-15"/>
			<point x="809" y="139"/>
			<point x="809" y="347" type="curve" smooth="yes"/>
			<point x="807" y="502"/>
			<point x="708" y="575"/>
			<point x="586" y="651" type="curve" smooth="yes"/>
			<point x="465" y="726"/>
			<point x="402" y="772"/>
			<point x="402" y="888" type="curve" smooth="yes"/>
			<point x="402" y="1050"/>
			<point x="524" y="1144"/>
			<point x="671" y="1144" type="curve" smooth="yes"/>
			<point x="788" y="1144"/>
			<point x="854" y="1083"/>
			<point x="917" y="1023" type="curve" smooth="yes"/>
			<point x="928" y="1013"/>
			<point x="941" y="1016"/>
			<point x="953" y="1028" type="curve" smooth="yes"/>
			<point x="967" y="1041"/>
			<point x="970" y="1053"/>
			<point x="959" y="1064" type="curve" smooth="yes"/>
			<point x="879" y="1149"/>
			<point x="797" y="1212"/>
			<point x="674" y="1212" type="curve" smooth="yes"/>
			<point x="471" y="1212"/>
			<point x="328" y="1080"/>
			<point x="328" y="888" type="curve" smooth="yes"/>
			<point x="328" y="731"/>
			<point x="422" y="665"/>
			<point x="543" y="591" type="curve" smooth="yes"/>
			<point x="665" y="516"/>
			<point x="735" y="457"/>
			<point x="735" y="343" type="curve" smooth="yes"/>
			<point x="735" y="177"/>
			<point x="597" y="53"/>
			<point x="416" y="53" type="curve" smooth="yes"/>
			<point x="292" y="53"/>
			<point x="200" y="133"/>
			<point x="138" y="207" type="curve" smooth="yes"/>
			<point x="128" y="219"/>
			<point x="116" y="214"/>
			<point x="102" y="202" type="curve" smooth="yes"/>
			<point x="91" y="192"/>
			<point x="83" y="181"/>
			<point x="92" y="168" type="curve" smooth="yes"/>
			<point x="149" y="91"/>
			<point x="252" y="-15"/>
		</contour>
	</outline>
	<anchor name="bottom" x="391" y="0"/>
	<anchor name="top" x="668" y="1139"/>
</glyph>
<glyph name="T" format="2">
	<unicode hex="0054"/>
	<advance width="856"/>
	<outline>
		<contour>
			<point x="364" y="-12" type="curve" smooth="yes"/>
			<point x="387" y="-12"/>
			<point x="401" y="-5"/>
			<point x="406" y="10" type="curve" smooth="yes"/>
			<point x="770" y="1126" type="line"/>
			<point x="1108" y="1126" type="line" smooth="yes"/>
			<point x="1124" y="1126"/>
			<point x="1132" y="1134"/>
			<point x="1140" y="1158" type="curve" smooth="yes"/>
			<point x="1148" y="1182"/>
			<point x="1145" y="1190"/>
			<point x="1129" y="1190" type="curve" smooth="yes"/>
			<point x="371" y="1190" type="line" smooth="yes"/>
			<point x="355" y="1190"/>
			<point x="346" y="1182"/>
			<point x="338" y="1158" type="curve" smooth="yes"/>
			<point x="330" y="1134"/>
			<point x="334" y="1126"/>
			<point x="350" y="1126" type="curve" smooth="yes"/>
			<point x="700" y="1126" type="line"/>
			<point x="336" y="10" type="line" smooth="yes"/>
			<point x="331" y="-5"/>
			<point x="341" y="-12"/>
		</contour>
	</outline>
	<anchor name="bottom" x="361" y="0"/>
	<anchor name="center" x="564" y="595"/>
	<anchor name="top" x="729" y="1139"/>
</glyph>
<glyph name="U" format="2">
	<unicode hex="0055"/>
	<advance width="1069"/>
	<outline>
		<contour>
			<point x="482" y="-15" type="curve" smooth="yes"/>
			<point x="724" y="-15"/>
			<point x="883" y="113"/>
			<point x="969" y="380" type="curve" smooth="yes"/>
			<point x="1228" y="1188" type="line" smooth="yes"/>
			<point x="1233" y="1204"/>
			<point x="1221" y="1212"/>
			<point x="1197" y="1212" type="curve" smooth="yes"/>
			<point x="1172" y="1212"/>
			<point x="1161" y="1205"/>
			<point x="1156" y="1190" type="curve" smooth="yes"/>
			<point x="900" y="389" type="line" smooth="yes"/>
			<point x="827" y="161"/>
			<point x="695" y="53"/>
			<point x="493" y="53" type="curve" smooth="yes"/>
			<point x="283" y="53"/>
			<point x="228" y="178"/>
			<point x="296" y="389" type="curve" smooth="yes"/>
			<point x="553" y="1188" type="line" smooth="yes"/>
			<point x="558" y="1204"/>
			<point x="545" y="1212"/>
			<point x="521" y="1212" type="curve" smooth="yes"/>
			<point x="496" y="1212"/>
			<point x="485" y="1205"/>
			<point x="480" y="1190" type="curve" smooth="yes"/>
			<point x="227" y="398" type="line" smooth="yes"/>
			<point x="144" y="138"/>
			<point x="244" y="-15"/>
		</contour>
	</outline>
	<anchor name="bottom" x="470" y="0"/>
	<anchor name="ogonek" x="675" y="17"/>
	<anchor name="top" x="814" y="1139"/>
	<anchor name="topright" x="1202" y="1207"/>
</glyph>
<glyph name="V" format="2">
	<unicode hex="0056"/>
	<advance width="899"/>
	<outline>
		<contour>
			<point x="400" y="-11" type="curve" smooth="yes"/>
			<point x="426" y="-11"/>
			<point x="440" y="-3"/>
			<point x="455" y="21" type="curve" smooth="yes"/>
			<point x="1181" y="1170" type="line" smooth="yes"/>
			<point x="1196" y="1193"/>
			<point x="1187" y="1212"/>
			<point x="1159" y="1212" type="curve" smooth="yes"/>
			<point x="1132" y="1212"/>
			<point x="1125" y="1208"/>
			<point x="1107" y="1180" type="curve" smooth="yes"/>
			<point x="431" y="102" type="line"/>
			<point x="420" y="1183" type="line" smooth="yes"/>
			<point x="420" y="1204"/>
			<point x="414" y="1212"/>
			<point x="390" y="1212" type="curve" smooth="yes"/>
			<point x="362" y="1212"/>
			<point x="351" y="1198"/>
			<point x="351" y="1176" type="curve" smooth="yes"/>
			<point x="366" y="30" type="line" smooth="yes"/>
			<point x="366" y="-1"/>
			<point x="380" y="-11"/>
		</contour>
	</outline>
</glyph>
<glyph name="W" format="2">
  <advance width="1813"/>
  <unicode hex="0057"/>
  <anchor x="896" y="0" name="bottom"/>
  <anchor x="1266" y="1424" name="top"/>
  <outline>
    <contour>
      <point x="454" y="-14" type="curve" smooth="yes"/>
      <point x="486" y="-14"/>
      <point x="505" y="-4"/>
      <point x="523" y="26" type="curve" smooth="yes"/>
      <point x="1266" y="1344" type="line"/>
      <point x="1234" y="38" type="line" smooth="yes"/>
      <point x="1233" y="1"/>
      <point x="1254" y="-14"/>
      <point x="1279" y="-14" type="curve" smooth="yes"/>
      <point x="1311" y="-14"/>
      <point x="1330" y="-4"/>
      <point x="1348" y="26" type="curve" smooth="yes"/>
      <point x="2166" y="1463" type="line" smooth="yes"/>
      <point x="2183" y="1491"/>
      <point x="2174" y="1515"/>
      <point x="2139" y="1515" type="curve" smooth="yes"/>
      <point x="2105" y="1515"/>
      <point x="2096" y="1510"/>
      <point x="2076" y="1475" type="curve" smooth="yes"/>
      <point x="1316" y="134" type="line"/>
      <point x="1351" y="1479" type="line" smooth="yes"/>
      <point x="1353" y="1504"/>
      <point x="1341" y="1515"/>
      <point x="1311" y="1515" type="curve" smooth="yes"/>
      <point x="1276" y="1515"/>
      <point x="1265" y="1511"/>
      <point x="1245" y="1475" type="curve" smooth="yes"/>
      <point x="493" y="136" type="line"/>
      <point x="523" y="1479" type="line" smooth="yes"/>
      <point x="523" y="1505"/>
      <point x="515" y="1515"/>
      <point x="486" y="1515" type="curve" smooth="yes"/>
      <point x="453" y="1515"/>
      <point x="439" y="1498"/>
      <point x="439" y="1470" type="curve" smooth="yes"/>
      <point x="411" y="38" type="line" smooth="yes"/>
      <point x="410" y="-5"/>
      <point x="429" y="-14"/>
    </contour>
  </outline>
</glyph>
<glyph name="X" format="2">
	<unicode hex="0058"/>
	<advance width="850"/>
	<outline>
		<contour>
			<point x="3" y="-11" type="curve" smooth="yes"/>
			<point x="23" y="-11"/>
			<point x="38" y="-6"/>
			<point x="58" y="16" type="curve" smooth="yes"/>
			<point x="537" y="549" type="line"/>
			<point x="687" y="16" type="line" smooth="yes"/>
			<point x="693" y="-7"/>
			<point x="703" y="-11"/>
			<point x="724" y="-11" type="curve" smooth="yes"/>
			<point x="747" y="-11"/>
			<point x="759" y="7"/>
			<point x="751" y="36" type="curve" smooth="yes"/>
			<point x="594" y="596" type="line"/>
			<point x="1108" y="1164" type="line" smooth="yes"/>
			<point x="1135" y="1193"/>
			<point x="1114" y="1211"/>
			<point x="1093" y="1211" type="curve" smooth="yes"/>
			<point x="1073" y="1211"/>
			<point x="1060" y="1207"/>
			<point x="1039" y="1184" type="curve" smooth="yes"/>
			<point x="574" y="667" type="line"/>
			<point x="430" y="1184" type="line" smooth="yes"/>
			<point x="424" y="1207"/>
			<point x="414" y="1211"/>
			<point x="393" y="1211" type="curve" smooth="yes"/>
			<point x="370" y="1211"/>
			<point x="358" y="1193"/>
			<point x="366" y="1164" type="curve" smooth="yes"/>
			<point x="517" y="622" type="line"/>
			<point x="-12" y="36" type="line" smooth="yes"/>
			<point x="-38" y="7"/>
			<point x="-18" y="-11"/>
		</contour>
	</outline>
</glyph>
<glyph name="Y" format="2">
	<unicode hex="0059"/>
	<advance width="800"/>
	<outline>
		<contour>
			<point x="331" y="-11" type="curve" smooth="yes"/>
			<point x="354" y="-11"/>
			<point x="370" y="-4"/>
			<point x="375" y="11" type="curve" smooth="yes"/>
			<point x="541" y="520" type="line"/>
			<point x="1110" y="1170" type="line" smooth="yes"/>
			<point x="1132" y="1194"/>
			<point x="1121" y="1212"/>
			<point x="1084" y="1212" type="curve" smooth="yes"/>
			<point x="1067" y="1212"/>
			<point x="1057" y="1208"/>
			<point x="1047" y="1197" type="curve" smooth="yes"/>
			<point x="522" y="595" type="line"/>
			<point x="392" y="1183" type="line" smooth="yes"/>
			<point x="388" y="1202"/>
			<point x="381" y="1212"/>
			<point x="357" y="1212" type="curve" smooth="yes"/>
			<point x="329" y="1212"/>
			<point x="318" y="1197"/>
			<point x="323" y="1176" type="curve" smooth="yes"/>
			<point x="469" y="522" type="line"/>
			<point x="303" y="11" type="line" smooth="yes"/>
			<point x="298" y="-4"/>
			<point x="308" y="-11"/>
		</contour>
	</outline>
	<anchor name="bottom" x="348" y="0"/>
	<anchor name="top" x="670" y="1139"/>
</glyph>
<glyph name="backslash" format="2">
	<unicode hex="005C"/>
	<advance width="420"/>
	<outline>
		<contour>
			<point x="392" y="-61" type="curve" smooth="yes"/>
			<point x="415" y="-59"/>
			<point x="427" y="-51"/>
			<point x="426" y="-35" type="curve" smooth="yes"/>
			<point x="326" y="1242" type="line" smooth="yes"/>
			<point x="325" y="1258"/>
			<point x="312" y="1264"/>
			<point x="289" y="1262" type="curve" smooth="yes"/>
			<point x="266" y="1260"/>
			<point x="255" y="1252"/>
			<point x="256" y="1236" type="curve" smooth="yes"/>
			<point x="356" y="-41" type="line" smooth="yes"/>
			<point x="357" y="-57"/>
			<point x="369" y="-63"/>
		</contour>
	</outline>
</glyph>
<glyph name="bracketright" format="2">
  <advance width="625"/>
  <unicode hex="005D"/>
  <outline>
    <contour>
      <point x="5" y="-35" type="curve" smooth="yes"/>
      <point x="-5" y="-65"/>
      <point x="0" y="-75"/>
      <point x="20" y="-75" type="curve" smooth="yes"/>
      <point x="220" y="-75" type="line" smooth="yes"/>
      <point x="249" y="-75"/>
      <point x="266" y="-66"/>
      <point x="273" y="-47" type="curve" smooth="yes"/>
      <point x="800" y="1548" type="line" smooth="yes"/>
      <point x="806" y="1566"/>
      <point x="794" y="1575"/>
      <point x="765" y="1575" type="curve" smooth="yes"/>
      <point x="565" y="1575" type="line" smooth="yes"/>
      <point x="545" y="1575"/>
      <point x="535" y="1565"/>
      <point x="525" y="1535" type="curve" smooth="yes"/>
      <point x="515" y="1505"/>
      <point x="519" y="1495"/>
      <point x="539" y="1495" type="curve" smooth="yes"/>
      <point x="690" y="1495" type="line"/>
      <point x="198" y="5" type="line"/>
      <point x="46" y="5" type="line" smooth="yes"/>
      <point x="26" y="5"/>
      <point x="15" y="-5"/>
    </contour>
  </outline>
</glyph>
<glyph name="b" format="2">
	<unicode hex="0062"/>
	<advance width="478"/>
	<outline>
		<contour>
			<point x="50" y="-12" type="curve" smooth="yes"/>
			<point x="74" y="-12"/>
			<point x="83" y="-6"/>
			<point x="88" y="9" type="curve" smooth="yes"/>
			<point x="89" y="13" type="line"/>
			<point x="121" y="-3"/>
			<point x="156" y="-14"/>
			<point x="189" y="-14" type="curve" smooth="yes"/>
			<point x="350" y="-14"/>
			<point x="450" y="175"/>
			<point x="450" y="297" type="curve" smooth="yes"/>
			<point x="450" y="370"/>
			<point x="414" y="415"/>
			<point x="360" y="415" type="curve" smooth="yes"/>
			<point x="304" y="415"/>
			<point x="242" y="372"/>
			<point x="177" y="282" type="curve"/>
			<point x="471" y="1181" type="line" smooth="yes"/>
			<point x="478" y="1202"/>
			<point x="471" y="1212"/>
			<point x="438" y="1212" type="curve" smooth="yes"/>
			<point x="417" y="1212"/>
			<point x="409" y="1207"/>
			<point x="402" y="1186" type="curve" smooth="yes"/>
			<point x="20" y="14" type="line" smooth="yes"/>
			<point x="14" y="-5"/>
			<point x="33" y="-12"/>
		</contour>
		<contour>
			<point x="107" y="67" type="curve"/>
			<point x="121" y="111" type="line"/>
			<point x="203" y="266"/>
			<point x="279" y="351"/>
			<point x="337" y="351" type="curve" smooth="yes"/>
			<point x="362" y="351"/>
			<point x="377" y="325"/>
			<point x="377" y="284" type="curve" smooth="yes"/>
			<point x="377" y="200"/>
			<point x="309" y="49"/>
			<point x="197" y="49" type="curve" smooth="yes"/>
			<point x="170" y="49"/>
			<point x="141" y="53"/>
		</contour>
	</outline>
	<anchor name="bottom" x="200" y="0"/>
	<anchor name="center" x="265" y="200"/>
	<anchor name="top" x="330" y="400"/>
</glyph>
<glyph name="d" format="2">
	<unicode hex="0064"/>
	<advance width="503"/>
	<outline>
		<contour>
			<point x="118" y="-14" type="curve" smooth="yes"/>
			<point x="173" y="-14"/>
			<point x="240" y="32"/>
			<point x="309" y="127" type="curve"/>
			<point x="308" y="124"/>
			<point x="307" y="120"/>
			<point x="306" y="117" type="curve" smooth="yes"/>
			<point x="280" y="32"/>
			<point x="296" y="-12"/>
			<point x="354" y="-12" type="curve" smooth="yes"/>
			<point x="397" y="-12"/>
			<point x="434" y="11"/>
			<point x="468" y="65" type="curve" smooth="yes"/>
			<point x="474" y="75"/>
			<point x="471" y="86"/>
			<point x="454" y="97" type="curve" smooth="yes"/>
			<point x="442" y="105"/>
			<point x="434" y="103"/>
			<point x="426" y="93" type="curve" smooth="yes"/>
			<point x="400" y="62"/>
			<point x="388" y="49"/>
			<point x="373" y="49" type="curve" smooth="yes"/>
			<point x="360" y="49"/>
			<point x="358" y="60"/>
			<point x="365" y="82" type="curve" smooth="yes"/>
			<point x="727" y="1181" type="line" smooth="yes"/>
			<point x="734" y="1202"/>
			<point x="727" y="1212"/>
			<point x="694" y="1212" type="curve" smooth="yes"/>
			<point x="673" y="1212"/>
			<point x="665" y="1208"/>
			<point x="658" y="1186" type="curve" smooth="yes"/>
			<point x="396" y="390" type="line"/>
			<point x="363" y="406"/>
			<point x="325" y="415"/>
			<point x="294" y="415" type="curve" smooth="yes"/>
			<point x="125" y="415"/>
			<point x="28" y="226"/>
			<point x="28" y="104" type="curve" smooth="yes"/>
			<point x="28" y="31"/>
			<point x="64" y="-14"/>
		</contour>
		<contour>
			<point x="101" y="117" type="curve" smooth="yes"/>
			<point x="101" y="202"/>
			<point x="168" y="352"/>
			<point x="283" y="352" type="curve" smooth="yes"/>
			<point x="309" y="352"/>
			<point x="340" y="349"/>
			<point x="377" y="334" type="curve"/>
			<point x="367" y="303" type="line"/>
			<point x="282" y="139"/>
			<point x="197" y="50"/>
			<point x="141" y="50" type="curve" smooth="yes"/>
			<point x="116" y="50"/>
			<point x="101" y="76"/>
		</contour>
	</outline>
	<anchor name="bottom" x="137" y="0"/>
	<anchor name="center" x="534" y="758"/>
	<anchor name="top" x="257" y="400"/>
	<anchor name="topright" x="706" y="1200"/>
</glyph>
<glyph name="f" format="2">
	<unicode hex="0066"/>
	<advance width="293"/>
	<outline>
		<contour>
			<point x="-250" y="-815" type="curve" smooth="yes"/>
			<point x="-184" y="-815"/>
			<point x="-150" y="-784"/>
			<point x="-122" y="-698" type="curve" smooth="yes"/>
			<point x="215" y="336" type="line"/>
			<point x="319" y="336" type="line" smooth="yes"/>
			<point x="332" y="336"/>
			<point x="341" y="346"/>
			<point x="347" y="368" type="curve"/>
			<point x="354" y="389"/>
			<point x="350" y="400"/>
			<point x="337" y="400" type="curve" smooth="yes"/>
			<point x="236" y="400" type="line"/>
			<point x="457" y="1076" type="line" smooth="yes"/>
			<point x="474" y="1128"/>
			<point x="498" y="1151"/>
			<point x="540" y="1151" type="curve" smooth="yes"/>
			<point x="563" y="1151"/>
			<point x="585" y="1141"/>
			<point x="606" y="1125" type="curve" smooth="yes"/>
			<point x="618" y="1116"/>
			<point x="630" y="1117"/>
			<point x="644" y="1131" type="curve" smooth="yes"/>
			<point x="655" y="1142"/>
			<point x="661" y="1155"/>
			<point x="646" y="1171" type="curve" smooth="yes"/>
			<point x="628" y="1190"/>
			<point x="595" y="1215"/>
			<point x="540" y="1215" type="curve" smooth="yes"/>
			<point x="469" y="1215"/>
			<point x="419" y="1171"/>
			<point x="389" y="1081" type="curve" smooth="yes"/>
			<point x="166" y="400" type="line"/>
			<point x="98" y="400" type="line" smooth="yes"/>
			<point x="85" y="400"/>
			<point x="73" y="389"/>
			<point x="67" y="368" type="curve" smooth="yes"/>
			<point x="61" y="346"/>
			<point x="66" y="336"/>
			<point x="78" y="336" type="curve" smooth="yes"/>
			<point x="145" y="336" type="line"/>
			<point x="-187" y="-683" type="line" smooth="yes"/>
			<point x="-205" y="-739"/>
			<point x="-217" y="-755"/>
			<point x="-243" y="-755" type="curve" smooth="yes"/>
			<point x="-267" y="-755"/>
			<point x="-286" y="-737"/>
			<point x="-300" y="-724" type="curve" smooth="yes"/>
			<point x="-313" y="-711"/>
			<point x="-324" y="-713"/>
			<point x="-340" y="-727" type="curve" smooth="yes"/>
			<point x="-356" y="-740"/>
			<point x="-357" y="-755"/>
			<point x="-344" y="-770" type="curve" smooth="yes"/>
			<point x="-319" y="-798"/>
			<point x="-288" y="-815"/>
		</contour>
	</outline>
</glyph>
<glyph name="g" format="2">
	<unicode hex="0067"/>
	<advance width="478"/>
	<outline>
		<contour>
			<point x="-67" y="-815" type="curve" smooth="yes"/>
			<point x="31" y="-815"/>
			<point x="84" y="-780"/>
			<point x="136" y="-620" type="curve" smooth="yes"/>
			<point x="463" y="381" type="line" smooth="yes"/>
			<point x="470" y="402"/>
			<point x="463" y="412"/>
			<point x="430" y="412" type="curve" smooth="yes"/>
			<point x="409" y="412"/>
			<point x="401" y="408"/>
			<point x="394" y="386" type="curve" smooth="yes"/>
			<point x="68" y="-618" type="line" smooth="yes"/>
			<point x="36" y="-717"/>
			<point x="5" y="-753"/>
			<point x="-62" y="-753" type="curve" smooth="yes"/>
			<point x="-101" y="-753"/>
			<point x="-138" y="-736"/>
			<point x="-165" y="-713" type="curve" smooth="yes"/>
			<point x="-183" y="-697"/>
			<point x="-195" y="-693"/>
			<point x="-212" y="-710" type="curve" smooth="yes"/>
			<point x="-232" y="-729"/>
			<point x="-228" y="-745"/>
			<point x="-205" y="-764" type="curve" smooth="yes"/>
			<point x="-165" y="-797"/>
			<point x="-116" y="-815"/>
		</contour>
		<contour>
			<point x="118" y="-14" type="curve" smooth="yes"/>
			<point x="200" y="-14"/>
			<point x="307" y="88"/>
			<point x="412" y="302" type="curve"/>
			<point x="382" y="332" type="line"/>
			<point x="292" y="150"/>
			<point x="200" y="50"/>
			<point x="141" y="50" type="curve" smooth="yes"/>
			<point x="116" y="50"/>
			<point x="101" y="76"/>
			<point x="101" y="117" type="curve" smooth="yes"/>
			<point x="101" y="202"/>
			<point x="168" y="352"/>
			<point x="283" y="352" type="curve" smooth="yes"/>
			<point x="316" y="352"/>
			<point x="356" y="347"/>
			<point x="408" y="319" type="curve"/>
			<point x="423" y="374" type="line"/>
			<point x="385" y="400"/>
			<point x="334" y="415"/>
			<point x="294" y="415" type="curve" smooth="yes"/>
			<point x="125" y="415"/>
			<point x="28" y="226"/>
			<point x="28" y="104" type="curve" smooth="yes"/>
			<point x="28" y="31"/>
			<point x="64" y="-14"/>
		</contour>
	</outline>
	<anchor name="top" x="287" y="400"/>
</glyph>
<glyph name="h" format="2">
	<unicode hex="0068"/>
	<advance width="521"/>
	<outline>
		<contour>
			<point x="370" y="-12" type="curve" smooth="yes"/>
			<point x="428" y="-12"/>
			<point x="470" y="40"/>
			<point x="485" y="65" type="curve" smooth="yes"/>
			<point x="491" y="75"/>
			<point x="488" y="86"/>
			<point x="471" y="97" type="curve" smooth="yes"/>
			<point x="459" y="105"/>
			<point x="451" y="103"/>
			<point x="443" y="93" type="curve" smooth="yes"/>
			<point x="421" y="66"/>
			<point x="401" y="49"/>
			<point x="386" y="49" type="curve" smooth="yes"/>
			<point x="377" y="49"/>
			<point x="371" y="53"/>
			<point x="381" y="83" type="curve" smooth="yes"/>
			<point x="441" y="257" type="line" smooth="yes"/>
			<point x="476" y="360"/>
			<point x="451" y="415"/>
			<point x="379" y="415" type="curve" smooth="yes"/>
			<point x="307" y="415"/>
			<point x="234" y="358"/>
			<point x="169" y="256" type="curve"/>
			<point x="470" y="1181" type="line" smooth="yes"/>
			<point x="477" y="1202"/>
			<point x="470" y="1212"/>
			<point x="437" y="1212" type="curve" smooth="yes"/>
			<point x="416" y="1212"/>
			<point x="408" y="1207"/>
			<point x="401" y="1186" type="curve" smooth="yes"/>
			<point x="20" y="14" type="line" smooth="yes"/>
			<point x="14" y="-5"/>
			<point x="33" y="-12"/>
			<point x="50" y="-12" type="curve" smooth="yes"/>
			<point x="74" y="-12"/>
			<point x="83" y="-6"/>
			<point x="88" y="9" type="curve" smooth="yes"/>
			<point x="96" y="35" type="line"/>
			<point x="173" y="219"/>
			<point x="281" y="351"/>
			<point x="353" y="351" type="curve" smooth="yes"/>
			<point x="392" y="351"/>
			<point x="390" y="316"/>
			<point x="376" y="275" type="curve" smooth="yes"/>
			<point x="322" y="118" type="line" smooth="yes"/>
			<point x="305" y="68"/>
			<point x="287" y="-12"/>
		</contour>
	</outline>
	<anchor name="bottom" x="208" y="0"/>
	<anchor name="center" x="321" y="758"/>
	<anchor name="top" x="421" y="1139"/>
</glyph>
<glyph name="i" format="2">
	<unicode hex="0069"/>
	<advance width="244"/>
	<outline>
		<contour>
			<point x="95" y="-12" type="curve" smooth="yes"/>
			<point x="138" y="-12"/>
			<point x="175" y="11"/>
			<point x="209" y="65" type="curve" smooth="yes"/>
			<point x="215" y="75"/>
			<point x="212" y="86"/>
			<point x="195" y="97" type="curve" smooth="yes"/>
			<point x="183" y="105"/>
			<point x="176" y="103"/>
			<point x="167" y="93" type="curve" smooth="yes"/>
			<point x="141" y="62"/>
			<point x="129" y="49"/>
			<point x="114" y="49" type="curve" smooth="yes"/>
			<point x="101" y="49"/>
			<point x="99" y="60"/>
			<point x="106" y="82" type="curve" smooth="yes"/>
			<point x="204" y="381" type="line" smooth="yes"/>
			<point x="211" y="402"/>
			<point x="204" y="412"/>
			<point x="171" y="412" type="curve" smooth="yes"/>
			<point x="150" y="412"/>
			<point x="142" y="408"/>
			<point x="135" y="386" type="curve" smooth="yes"/>
			<point x="50" y="127" type="line" smooth="yes"/>
			<point x="20" y="36"/>
			<point x="35" y="-12"/>
		</contour>
		<contour>
			<point x="221" y="535" type="curve" smooth="yes"/>
			<point x="261" y="535"/>
			<point x="279" y="566"/>
			<point x="279" y="595" type="curve" smooth="yes"/>
			<point x="279" y="622"/>
			<point x="262" y="636"/>
			<point x="240" y="636" type="curve" smooth="yes"/>
			<point x="200" y="636"/>
			<point x="182" y="605"/>
			<point x="182" y="576" type="curve" smooth="yes"/>
			<point x="182" y="549"/>
			<point x="199" y="535"/>
		</contour>
	</outline>
	<anchor name="bottom" x="89" y="0"/>
	<anchor name="ogonek" x="142" y="0"/>
</glyph>
<glyph name="j" format="2">
	<unicode hex="006A"/>
	<advance width="214"/>
	<outline>
		<contour>
			<point x="-269" y="-814" type="curve" smooth="yes"/>
			<point x="-219" y="-814"/>
			<point x="-185" y="-800"/>
			<point x="-151" y="-697" type="curve" smooth="yes"/>
			<point x="201" y="381" type="line" smooth="yes"/>
			<point x="208" y="402"/>
			<point x="201" y="412"/>
			<point x="168" y="412" type="curve" smooth="yes"/>
			<point x="147" y="412"/>
			<point x="139" y="408"/>
			<point x="132" y="386" type="curve" smooth="yes"/>
			<point x="-216" y="-680" type="line" smooth="yes"/>
			<point x="-234" y="-736"/>
			<point x="-242" y="-754"/>
			<point x="-263" y="-754" type="curve" smooth="yes"/>
			<point x="-277" y="-754"/>
			<point x="-288" y="-746"/>
			<point x="-307" y="-723" type="curve" smooth="yes"/>
			<point x="-317" y="-710"/>
			<point x="-330" y="-710"/>
			<point x="-346" y="-722" type="curve" smooth="yes"/>
			<point x="-366" y="-737"/>
			<point x="-363" y="-748"/>
			<point x="-352" y="-764" type="curve" smooth="yes"/>
			<point x="-330" y="-796"/>
			<point x="-300" y="-814"/>
		</contour>
		<contour>
			<point x="221" y="535" type="curve" smooth="yes"/>
			<point x="261" y="535"/>
			<point x="279" y="566"/>
			<point x="279" y="595" type="curve" smooth="yes"/>
			<point x="279" y="622"/>
			<point x="262" y="636"/>
			<point x="240" y="636" type="curve" smooth="yes"/>
			<point x="200" y="636"/>
			<point x="182" y="605"/>
			<point x="182" y="576" type="curve" smooth="yes"/>
			<point x="182" y="549"/>
			<point x="199" y="535"/>
		</contour>
	</outline>
</glyph>
<glyph name="k" format="2">
  <advance width="565"/>
  <unicode hex="006B"/>
  <anchor x="222" y="0" name="bottom"/>
  <anchor x="334" y="838" name="top"/>
  <outline>
    <contour>
      <point x="66" y="-15" type="curve" smooth="yes"/>
      <point x="96" y="-15"/>
      <point x="107" y="-7"/>
      <point x="114" y="11" type="curve" smooth="yes"/>
      <point x="182" y="224" type="line"/>
      <point x="256" y="31"/>
      <point x="292" y="-19"/>
      <point x="364" y="-19" type="curve" smooth="yes"/>
      <point x="404" y="-19"/>
      <point x="459" y="9"/>
      <point x="514" y="83" type="curve" smooth="yes"/>
      <point x="525" y="99"/>
      <point x="521" y="111"/>
      <point x="507" y="124" type="curve" smooth="yes"/>
      <point x="494" y="136"/>
      <point x="479" y="138"/>
      <point x="464" y="121" type="curve" smooth="yes"/>
      <point x="420" y="73"/>
      <point x="399" y="58"/>
      <point x="376" y="58" type="curve" smooth="yes"/>
      <point x="344" y="58"/>
      <point x="320" y="85"/>
      <point x="252" y="276" type="curve"/>
      <point x="542" y="436" type="line" smooth="yes"/>
      <point x="575" y="454"/>
      <point x="572" y="473"/>
      <point x="561" y="493" type="curve" smooth="yes"/>
      <point x="547" y="516"/>
      <point x="532" y="518"/>
      <point x="507" y="504" type="curve" smooth="yes"/>
      <point x="222" y="346" type="line"/>
      <point x="587" y="1476" type="line" smooth="yes"/>
      <point x="596" y="1503"/>
      <point x="587" y="1515"/>
      <point x="546" y="1515" type="curve" smooth="yes"/>
      <point x="520" y="1515"/>
      <point x="510" y="1509"/>
      <point x="501" y="1483" type="curve" smooth="yes"/>
      <point x="29" y="18" type="line" smooth="yes"/>
      <point x="21" y="-6"/>
      <point x="45" y="-15"/>
    </contour>
  </outline>
</glyph>
<glyph name="l" format="2">
  <advance width="307"/>
  <unicode hex="006C"/>
  <anchor x="317" y="746" name="CAT"/>
  <anchor x="119" y="0" name="bottom"/>
  <anchor x="295" y="713" name="center"/>
  <anchor x="522" y="1424" name="top"/>
  <anchor x="566" y="1500" name="topright"/>
  <outline>
    <contour>
      <point x="121" y="-15" type="curve" smooth="yes"/>
      <point x="175" y="-15"/>
      <point x="221" y="14"/>
      <point x="264" y="81" type="curve" smooth="yes"/>
      <point x="271" y="94"/>
      <point x="267" y="108"/>
      <point x="246" y="121" type="curve" smooth="yes"/>
      <point x="231" y="131"/>
      <point x="221" y="129"/>
      <point x="211" y="116" type="curve" smooth="yes"/>
      <point x="179" y="78"/>
      <point x="164" y="61"/>
      <point x="145" y="61" type="curve" smooth="yes"/>
      <point x="129" y="61"/>
      <point x="126" y="76"/>
      <point x="135" y="103" type="curve" smooth="yes"/>
      <point x="587" y="1476" type="line" smooth="yes"/>
      <point x="596" y="1503"/>
      <point x="587" y="1515"/>
      <point x="546" y="1515" type="curve" smooth="yes"/>
      <point x="520" y="1515"/>
      <point x="510" y="1509"/>
      <point x="501" y="1483" type="curve" smooth="yes"/>
      <point x="65" y="159" type="line" smooth="yes"/>
      <point x="27" y="45"/>
      <point x="46" y="-15"/>
    </contour>
  </outline>
</glyph>
<glyph name="m" format="2">
  <advance width="963"/>
  <unicode hex="006D"/>
  <anchor x="388" y="0" name="bottom"/>
  <anchor x="539" y="500" name="top"/>
  <outline>
    <contour>
      <point x="776" y="-15" type="curve" smooth="yes"/>
      <point x="848" y="-15"/>
      <point x="900" y="50"/>
      <point x="919" y="81" type="curve" smooth="yes"/>
      <point x="926" y="94"/>
      <point x="923" y="108"/>
      <point x="901" y="121" type="curve" smooth="yes"/>
      <point x="886" y="131"/>
      <point x="876" y="129"/>
      <point x="866" y="116" type="curve" smooth="yes"/>
      <point x="838" y="81"/>
      <point x="816" y="61"/>
      <point x="796" y="61" type="curve" smooth="yes"/>
      <point x="785" y="61"/>
      <point x="778" y="66"/>
      <point x="790" y="104" type="curve" smooth="yes"/>
      <point x="865" y="321" type="line" smooth="yes"/>
      <point x="904" y="434"/>
      <point x="890" y="519"/>
      <point x="785" y="519" type="curve" smooth="yes"/>
      <point x="661" y="519"/>
      <point x="536" y="373"/>
      <point x="436" y="126" type="curve"/>
      <point x="441" y="36" type="line"/>
      <point x="536" y="268"/>
      <point x="665" y="439"/>
      <point x="753" y="439" type="curve" smooth="yes"/>
      <point x="808" y="439"/>
      <point x="803" y="395"/>
      <point x="785" y="344" type="curve" smooth="yes"/>
      <point x="718" y="148" type="line" smooth="yes"/>
      <point x="696" y="85"/>
      <point x="676" y="-15"/>
    </contour>
    <contour>
      <point x="56" y="-15" type="curve" smooth="yes"/>
      <point x="86" y="-15"/>
      <point x="98" y="-7"/>
      <point x="104" y="11" type="curve" smooth="yes"/>
      <point x="255" y="476" type="line" smooth="yes"/>
      <point x="264" y="503"/>
      <point x="255" y="515"/>
      <point x="214" y="515" type="curve" smooth="yes"/>
      <point x="188" y="515"/>
      <point x="178" y="510"/>
      <point x="169" y="483" type="curve" smooth="yes"/>
      <point x="19" y="18" type="line" smooth="yes"/>
      <point x="10" y="-7"/>
      <point x="35" y="-15"/>
    </contour>
    <contour>
      <point x="385" y="-15" type="curve" smooth="yes"/>
      <point x="415" y="-15"/>
      <point x="426" y="-7"/>
      <point x="433" y="11" type="curve" smooth="yes"/>
      <point x="535" y="321" type="line" smooth="yes"/>
      <point x="573" y="435"/>
      <point x="560" y="519"/>
      <point x="455" y="519" type="curve" smooth="yes"/>
      <point x="331" y="519"/>
      <point x="206" y="373"/>
      <point x="106" y="126" type="curve"/>
      <point x="111" y="36" type="line"/>
      <point x="206" y="268"/>
      <point x="335" y="439"/>
      <point x="423" y="439" type="curve" smooth="yes"/>
      <point x="478" y="439"/>
      <point x="473" y="395"/>
      <point x="455" y="344" type="curve" smooth="yes"/>
      <point x="348" y="18" type="line" smooth="yes"/>
      <point x="339" y="-7"/>
      <point x="364" y="-15"/>
    </contour>
  </outline>
</glyph>
<glyph name="n" format="2">
  <advance width="646"/>
  <unicode hex="006E"/>
  <anchor x="250" y="0" name="bottom"/>
  <anchor x="378" y="500" name="top"/>
  <outline>
    <contour>
      <point x="459" y="-15" type="curve" smooth="yes"/>
      <point x="531" y="-15"/>
      <point x="583" y="50"/>
      <point x="601" y="81" type="curve" smooth="yes"/>
      <point x="609" y="94"/>
      <point x="605" y="108"/>
      <point x="584" y="121" type="curve" smooth="yes"/>
      <point x="569" y="131"/>
      <point x="559" y="129"/>
      <point x="549" y="116" type="curve" smooth="yes"/>
      <point x="520" y="81"/>
      <point x="499" y="61"/>
      <point x="479" y="61" type="curve" smooth="yes"/>
      <point x="468" y="61"/>
      <point x="460" y="66"/>
      <point x="473" y="104" type="curve" smooth="yes"/>
      <point x="548" y="321" type="line" smooth="yes"/>
      <point x="591" y="450"/>
      <point x="560" y="519"/>
      <point x="468" y="519" type="curve" smooth="yes"/>
      <point x="378" y="519"/>
      <point x="285" y="448"/>
      <point x="204" y="320" type="curve"/>
      <point x="255" y="476" type="line" smooth="yes"/>
      <point x="264" y="503"/>
      <point x="255" y="515"/>
      <point x="214" y="515" type="curve" smooth="yes"/>
      <point x="188" y="515"/>
      <point x="178" y="510"/>
      <point x="169" y="483" type="curve" smooth="yes"/>
      <point x="19" y="18" type="line" smooth="yes"/>
      <point x="10" y="-7"/>
      <point x="35" y="-15"/>
      <point x="56" y="-15" type="curve" smooth="yes"/>
      <point x="86" y="-15"/>
      <point x="98" y="-7"/>
      <point x="104" y="11" type="curve" smooth="yes"/>
      <point x="114" y="44" type="line"/>
      <point x="210" y="274"/>
      <point x="345" y="439"/>
      <point x="435" y="439" type="curve" smooth="yes"/>
      <point x="490" y="439"/>
      <point x="485" y="395"/>
      <point x="468" y="344" type="curve" smooth="yes"/>
      <point x="400" y="148" type="line" smooth="yes"/>
      <point x="379" y="85"/>
      <point x="359" y="-15"/>
    </contour>
  </outline>
</glyph>
<glyph name="o" format="2">
  <advance width="589"/>
  <unicode hex="006F"/>
  <anchor x="214" y="0" name="bottom"/>
  <anchor x="295" y="250" name="center"/>
  <anchor x="350" y="13" name="ogonek"/>
  <anchor x="351" y="500" name="top"/>
  <anchor x="435" y="506" name="topright"/>
  <outline>
    <contour>
      <point x="241" y="-19" type="curve" smooth="yes"/>
      <point x="445" y="-19"/>
      <point x="541" y="196"/>
      <point x="541" y="331" type="curve" smooth="yes"/>
      <point x="541" y="443"/>
      <point x="475" y="519"/>
      <point x="351" y="519" type="curve" smooth="yes"/>
      <point x="151" y="519"/>
      <point x="50" y="318"/>
      <point x="50" y="176" type="curve" smooth="yes"/>
      <point x="50" y="63"/>
      <point x="116" y="-19"/>
    </contour>
    <contour>
      <point x="251" y="61" type="curve" smooth="yes"/>
      <point x="183" y="61"/>
      <point x="140" y="105"/>
      <point x="140" y="183" type="curve" smooth="yes"/>
      <point x="140" y="281"/>
      <point x="210" y="439"/>
      <point x="343" y="439" type="curve" smooth="yes"/>
      <point x="409" y="439"/>
      <point x="450" y="399"/>
      <point x="450" y="321" type="curve" smooth="yes"/>
      <point x="450" y="220"/>
      <point x="381" y="61"/>
    </contour>
  </outline>
</glyph>
<glyph name="p" format="2">
	<unicode hex="0070"/>
	<advance width="478"/>
	<outline>
		<contour>
			<point x="-210" y="-812" type="curve" smooth="yes"/>
			<point x="-186" y="-812"/>
			<point x="-177" y="-806"/>
			<point x="-172" y="-791" type="curve" smooth="yes"/>
			<point x="89" y="13" type="line"/>
			<point x="120" y="-2"/>
			<point x="156" y="-14"/>
			<point x="189" y="-14" type="curve" smooth="yes"/>
			<point x="350" y="-14"/>
			<point x="450" y="175"/>
			<point x="450" y="297" type="curve" smooth="yes"/>
			<point x="450" y="370"/>
			<point x="414" y="415"/>
			<point x="360" y="415" type="curve" smooth="yes"/>
			<point x="304" y="415"/>
			<point x="242" y="371"/>
			<point x="176" y="281" type="curve"/>
			<point x="209" y="381" type="line" smooth="yes"/>
			<point x="216" y="402"/>
			<point x="209" y="412"/>
			<point x="176" y="412" type="curve" smooth="yes"/>
			<point x="155" y="412"/>
			<point x="147" y="408"/>
			<point x="140" y="386" type="curve" smooth="yes"/>
			<point x="-240" y="-786" type="line" smooth="yes"/>
			<point x="-247" y="-806"/>
			<point x="-227" y="-812"/>
		</contour>
		<contour>
			<point x="107" y="67" type="curve"/>
			<point x="120" y="109" type="line"/>
			<point x="203" y="266"/>
			<point x="279" y="351"/>
			<point x="337" y="351" type="curve" smooth="yes"/>
			<point x="362" y="351"/>
			<point x="377" y="325"/>
			<point x="377" y="284" type="curve" smooth="yes"/>
			<point x="377" y="200"/>
			<point x="309" y="49"/>
			<point x="197" y="49" type="curve" smooth="yes"/>
			<point x="170" y="49"/>
			<point x="141" y="53"/>
		</contour>
	</outline>
</glyph>
<glyph name="q" format="2">
  <advance width="598"/>
  <unicode hex="0071"/>
  <outline>
    <contour>
      <point x="148" y="-17" type="curve" smooth="yes"/>
      <point x="218" y="-17"/>
      <point x="301" y="41"/>
      <point x="389" y="161" type="curve"/>
      <point x="16" y="-982" type="line" smooth="yes"/>
      <point x="9" y="-1007"/>
      <point x="33" y="-1015"/>
      <point x="54" y="-1015" type="curve" smooth="yes"/>
      <point x="84" y="-1015"/>
      <point x="95" y="-1007"/>
      <point x="101" y="-989" type="curve" smooth="yes"/>
      <point x="579" y="476" type="line" smooth="yes"/>
      <point x="588" y="503"/>
      <point x="579" y="515"/>
      <point x="538" y="515" type="curve" smooth="yes"/>
      <point x="515" y="515"/>
      <point x="501" y="511"/>
      <point x="495" y="491" type="curve" smooth="yes"/>
      <point x="494" y="488" type="line"/>
      <point x="453" y="508"/>
      <point x="406" y="519"/>
      <point x="368" y="519" type="curve" smooth="yes"/>
      <point x="156" y="519"/>
      <point x="35" y="283"/>
      <point x="35" y="130" type="curve" smooth="yes"/>
      <point x="35" y="39"/>
      <point x="80" y="-17"/>
    </contour>
    <contour>
      <point x="126" y="146" type="curve" smooth="yes"/>
      <point x="126" y="253"/>
      <point x="210" y="440"/>
      <point x="354" y="440" type="curve" smooth="yes"/>
      <point x="386" y="440"/>
      <point x="425" y="436"/>
      <point x="471" y="418" type="curve"/>
      <point x="459" y="378" type="line"/>
      <point x="353" y="174"/>
      <point x="246" y="63"/>
      <point x="176" y="63" type="curve" smooth="yes"/>
      <point x="145" y="63"/>
      <point x="126" y="95"/>
    </contour>
  </outline>
</glyph>
<glyph name="s" format="2">
  <advance width="479"/>
  <unicode hex="0073"/>
  <guideline x="382" y="356" angle="214.38"/>
  <guideline x="375"/>
  <guideline y="304"/>
  <guideline y="111"/>
  <guideline x="67" y="74" angle="302.97"/>
  <guideline x="306" y="338" angle="130.6"/>
  <guideline x="2"/>
  <anchor x="161" y="0" name="bottom"/>
  <anchor x="306" y="500" name="top"/>
  <outline>
    <contour>
      <point x="203" y="-19" type="curve" smooth="yes"/>
      <point x="311" y="-19"/>
      <point x="399" y="26"/>
      <point x="399" y="141" type="curve" smooth="yes"/>
      <point x="399" y="284"/>
      <point x="199" y="289"/>
      <point x="199" y="383" type="curve" smooth="yes"/>
      <point x="199" y="420"/>
      <point x="221" y="450"/>
      <point x="284" y="450" type="curve" smooth="yes"/>
      <point x="343" y="450"/>
      <point x="378" y="425"/>
      <point x="410" y="390" type="curve" smooth="yes"/>
      <point x="423" y="378"/>
      <point x="436" y="378"/>
      <point x="453" y="390" type="curve" smooth="yes"/>
      <point x="476" y="408"/>
      <point x="469" y="418"/>
      <point x="460" y="433" type="curve" smooth="yes"/>
      <point x="436" y="471"/>
      <point x="378" y="519"/>
      <point x="288" y="519" type="curve" smooth="yes"/>
      <point x="163" y="519"/>
      <point x="113" y="446"/>
      <point x="113" y="373" type="curve" smooth="yes"/>
      <point x="113" y="228"/>
      <point x="313" y="231"/>
      <point x="313" y="131" type="curve" smooth="yes"/>
      <point x="313" y="78"/>
      <point x="276" y="50"/>
      <point x="203" y="50" type="curve" smooth="yes"/>
      <point x="146" y="50"/>
      <point x="90" y="83"/>
      <point x="61" y="128" type="curve" smooth="yes"/>
      <point x="50" y="145"/>
      <point x="34" y="141"/>
      <point x="15" y="128" type="curve" smooth="yes"/>
      <point x="-2" y="114"/>
      <point x="-1" y="99"/>
      <point x="8" y="84" type="curve" smooth="yes"/>
      <point x="36" y="34"/>
      <point x="111" y="-19"/>
    </contour>
  </outline>
</glyph>
<glyph name="u" format="2">
  <advance width="645"/>
  <unicode hex="0075"/>
  <guideline x="311" y="401" angle="72"/>
  <anchor x="219" y="0" name="bottom"/>
  <anchor x="524" y="13" name="ogonek"/>
  <anchor x="381" y="500" name="top"/>
  <anchor x="553" y="514" name="topright"/>
  <outline>
    <contour>
      <point x="149" y="-15" type="curve" smooth="yes"/>
      <point x="278" y="-15"/>
      <point x="410" y="131"/>
      <point x="510" y="378" type="curve"/>
      <point x="505" y="468" type="line"/>
      <point x="409" y="234"/>
      <point x="273" y="65"/>
      <point x="181" y="65" type="curve" smooth="yes"/>
      <point x="126" y="65"/>
      <point x="131" y="109"/>
      <point x="149" y="160" type="curve" smooth="yes"/>
      <point x="255" y="476" type="line" smooth="yes"/>
      <point x="264" y="503"/>
      <point x="255" y="515"/>
      <point x="214" y="515" type="curve" smooth="yes"/>
      <point x="188" y="515"/>
      <point x="178" y="510"/>
      <point x="169" y="483" type="curve" smooth="yes"/>
      <point x="69" y="183" type="line" smooth="yes"/>
      <point x="26" y="54"/>
      <point x="56" y="-15"/>
    </contour>
    <contour>
      <point x="459" y="-15" type="curve" smooth="yes"/>
      <point x="531" y="-15"/>
      <point x="581" y="51"/>
      <point x="601" y="83" type="curve" smooth="yes"/>
      <point x="610" y="95"/>
      <point x="605" y="106"/>
      <point x="588" y="119" type="curve" smooth="yes"/>
      <point x="571" y="130"/>
      <point x="556" y="131"/>
      <point x="544" y="115" type="curve" smooth="yes"/>
      <point x="518" y="81"/>
      <point x="498" y="61"/>
      <point x="479" y="61" type="curve" smooth="yes"/>
      <point x="469" y="61"/>
      <point x="460" y="66"/>
      <point x="473" y="103" type="curve" smooth="yes"/>
      <point x="596" y="476" type="line" smooth="yes"/>
      <point x="605" y="503"/>
      <point x="596" y="515"/>
      <point x="555" y="515" type="curve" smooth="yes"/>
      <point x="529" y="515"/>
      <point x="519" y="510"/>
      <point x="510" y="483" type="curve" smooth="yes"/>
      <point x="399" y="148" type="line" smooth="yes"/>
      <point x="378" y="85"/>
      <point x="356" y="-15"/>
    </contour>
  </outline>
</glyph>
<glyph name="v" format="2">
  <advance width="509"/>
  <unicode hex="0076"/>
  <outline>
    <contour>
      <point x="168" y="-15" type="curve" smooth="yes"/>
      <point x="196" y="-15"/>
      <point x="210" y="-5"/>
      <point x="223" y="11" type="curve" smooth="yes"/>
      <point x="555" y="468" type="line" smooth="yes"/>
      <point x="573" y="491"/>
      <point x="556" y="515"/>
      <point x="519" y="515" type="curve" smooth="yes"/>
      <point x="500" y="515"/>
      <point x="488" y="510"/>
      <point x="471" y="488" type="curve" smooth="yes"/>
      <point x="203" y="110" type="line"/>
      <point x="176" y="481" type="line" smooth="yes"/>
      <point x="174" y="510"/>
      <point x="159" y="515"/>
      <point x="136" y="515" type="curve" smooth="yes"/>
      <point x="110" y="515"/>
      <point x="93" y="498"/>
      <point x="95" y="468" type="curve" smooth="yes"/>
      <point x="130" y="15" type="line" smooth="yes"/>
      <point x="131" y="-5"/>
      <point x="139" y="-15"/>
    </contour>
  </outline>
</glyph>
<glyph name="x" format="2">
  <advance width="534"/>
  <unicode hex="0078"/>
  <outline>
    <contour>
      <point x="406" y="40" type="curve" smooth="yes"/>
      <point x="315" y="239" type="line"/>
      <point x="559" y="461" type="line" smooth="yes"/>
      <point x="593" y="491"/>
      <point x="564" y="516"/>
      <point x="530" y="516" type="curve" smooth="yes"/>
      <point x="511" y="516"/>
      <point x="499" y="508"/>
      <point x="480" y="491" type="curve" smooth="yes"/>
      <point x="281" y="311" type="line"/>
      <point x="200" y="488" type="line" smooth="yes"/>
      <point x="190" y="509"/>
      <point x="181" y="516"/>
      <point x="159" y="516" type="curve" smooth="yes"/>
      <point x="129" y="516"/>
      <point x="108" y="495"/>
      <point x="124" y="460" type="curve" smooth="yes"/>
      <point x="218" y="258" type="line"/>
      <point x="-15" y="44" type="line" smooth="yes"/>
      <point x="-52" y="9"/>
      <point x="-29" y="-15"/>
      <point x="5" y="-15" type="curve" smooth="yes"/>
      <point x="26" y="-15"/>
      <point x="43" y="-9"/>
      <point x="60" y="8" type="curve" smooth="yes"/>
      <point x="249" y="188" type="line"/>
      <point x="330" y="13" type="line" smooth="yes"/>
      <point x="340" y="-9"/>
      <point x="349" y="-15"/>
      <point x="364" y="-15" type="curve" smooth="yes"/>
      <point x="395" y="-15"/>
      <point x="424" y="1"/>
    </contour>
  </outline>
</glyph>
<glyph name="y" format="2">
	<unicode hex="0079"/>
	<advance width="492"/>
	<outline>
		<contour>
			<point x="119" y="-12" type="curve" smooth="yes"/>
			<point x="192" y="-12"/>
			<point x="266" y="46"/>
			<point x="331" y="150" type="curve"/>
			<point x="83" y="-616" type="line" smooth="yes"/>
			<point x="51" y="-715"/>
			<point x="20" y="-751"/>
			<point x="-47" y="-751" type="curve" smooth="yes"/>
			<point x="-89" y="-751"/>
			<point x="-123" y="-734"/>
			<point x="-150" y="-712" type="curve" smooth="yes"/>
			<point x="-168" y="-696"/>
			<point x="-176" y="-698"/>
			<point x="-195" y="-714" type="curve" smooth="yes"/>
			<point x="-217" y="-733"/>
			<point x="-208" y="-747"/>
			<point x="-190" y="-762" type="curve" smooth="yes"/>
			<point x="-156" y="-790"/>
			<point x="-109" y="-813"/>
			<point x="-51" y="-813" type="curve" smooth="yes"/>
			<point x="59" y="-813"/>
			<point x="102" y="-768"/>
			<point x="151" y="-618" type="curve" smooth="yes"/>
			<point x="477" y="381" type="line" smooth="yes"/>
			<point x="484" y="402"/>
			<point x="477" y="412"/>
			<point x="444" y="412" type="curve" smooth="yes"/>
			<point x="423" y="412"/>
			<point x="415" y="408"/>
			<point x="408" y="386" type="curve" smooth="yes"/>
			<point x="404" y="374" type="line" smooth="yes"/>
			<point x="327" y="187"/>
			<point x="218" y="52"/>
			<point x="145" y="52" type="curve" smooth="yes"/>
			<point x="101" y="52"/>
			<point x="105" y="87"/>
			<point x="119" y="128" type="curve" smooth="yes"/>
			<point x="204" y="381" type="line" smooth="yes"/>
			<point x="211" y="402"/>
			<point x="204" y="412"/>
			<point x="171" y="412" type="curve" smooth="yes"/>
			<point x="150" y="412"/>
			<point x="142" y="408"/>
			<point x="135" y="386" type="curve" smooth="yes"/>
			<point x="55" y="146" type="line" smooth="yes"/>
			<point x="21" y="43"/>
			<point x="45" y="-12"/>
		</contour>
	</outline>
	<anchor name="bottom" x="181" y="0"/>
	<anchor name="top" x="297" y="400"/>
</glyph>
<glyph name="bar" format="2">
  <advance width="460"/>
  <unicode hex="007C"/>
  <outline>
    <contour>
      <point x="135" y="-62" type="curve" smooth="yes"/>
      <point x="158" y="-62"/>
      <point x="171" y="-55"/>
      <point x="176" y="-40" type="curve" smooth="yes"/>
      <point x="613" y="1240" type="line" smooth="yes"/>
      <point x="618" y="1255"/>
      <point x="609" y="1262"/>
      <point x="586" y="1262" type="curve" smooth="yes"/>
      <point x="563" y="1262"/>
      <point x="549" y="1255"/>
      <point x="544" y="1240" type="curve" smooth="yes"/>
      <point x="107" y="-40" type="line" smooth="yes"/>
      <point x="102" y="-55"/>
      <point x="112" y="-62"/>
    </contour>
  </outline>
</glyph>
<glyph name="cent" format="2">
  <advance width="821"/>
  <unicode hex="00A2"/>
  <outline>
    <contour>
      <point x="381" y="-19" type="curve" smooth="yes"/>
      <point x="500" y="-19"/>
      <point x="613" y="44"/>
      <point x="764" y="194" type="curve" smooth="yes"/>
      <point x="776" y="210"/>
      <point x="771" y="228"/>
      <point x="755" y="243" type="curve" smooth="yes"/>
      <point x="743" y="254"/>
      <point x="731" y="260"/>
      <point x="714" y="243" type="curve" smooth="yes"/>
      <point x="580" y="115"/>
      <point x="485" y="61"/>
      <point x="393" y="61" type="curve" smooth="yes"/>
      <point x="294" y="61"/>
      <point x="235" y="144"/>
      <point x="235" y="279" type="curve" smooth="yes"/>
      <point x="235" y="558"/>
      <point x="421" y="803"/>
      <point x="620" y="803" type="curve" smooth="yes"/>
      <point x="686" y="803"/>
      <point x="759" y="770"/>
      <point x="813" y="718" type="curve" smooth="yes"/>
      <point x="828" y="703"/>
      <point x="838" y="689"/>
      <point x="863" y="709" type="curve" smooth="yes"/>
      <point x="885" y="726"/>
      <point x="888" y="740"/>
      <point x="873" y="759" type="curve" smooth="yes"/>
      <point x="809" y="836"/>
      <point x="716" y="883"/>
      <point x="629" y="883" type="curve" smooth="yes"/>
      <point x="374" y="883"/>
      <point x="145" y="604"/>
      <point x="145" y="279" type="curve" smooth="yes"/>
      <point x="145" y="94"/>
      <point x="234" y="-19"/>
    </contour>
    <contour>
      <point x="324" y="-150" type="curve" smooth="yes"/>
      <point x="350" y="-150"/>
      <point x="366" y="-141"/>
      <point x="373" y="-122" type="curve" smooth="yes"/>
      <point x="735" y="990" type="line" smooth="yes"/>
      <point x="741" y="1009"/>
      <point x="730" y="1018"/>
      <point x="704" y="1018" type="curve" smooth="yes"/>
      <point x="678" y="1018"/>
      <point x="661" y="1009"/>
      <point x="655" y="990" type="curve" smooth="yes"/>
      <point x="293" y="-122" type="line" smooth="yes"/>
      <point x="286" y="-141"/>
      <point x="298" y="-150"/>
    </contour>
  </outline>
</glyph>
<glyph name="sterling" format="2">
  <advance width="837"/>
  <unicode hex="00A3"/>
  <outline>
    <contour>
      <point x="11" y="0" type="curve" smooth="yes"/>
      <point x="719" y="0" type="line" smooth="yes"/>
      <point x="737" y="0"/>
      <point x="745" y="11"/>
      <point x="752" y="34" type="curve" smooth="yes"/>
      <point x="759" y="57"/>
      <point x="755" y="64"/>
      <point x="740" y="64" type="curve" smooth="yes"/>
      <point x="266" y="64" type="line"/>
      <point x="402" y="482" type="line"/>
      <point x="676" y="482" type="line" smooth="yes"/>
      <point x="694" y="482"/>
      <point x="702" y="493"/>
      <point x="709" y="516" type="curve" smooth="yes"/>
      <point x="716" y="539"/>
      <point x="712" y="546"/>
      <point x="697" y="546" type="curve" smooth="yes"/>
      <point x="423" y="546" type="line"/>
      <point x="563" y="976" type="line" smooth="yes"/>
      <point x="599" y="1085"/>
      <point x="658" y="1147"/>
      <point x="752" y="1147" type="curve" smooth="yes"/>
      <point x="816" y="1147"/>
      <point x="899" y="1108"/>
      <point x="971" y="1045" type="curve" smooth="yes"/>
      <point x="987" y="1031"/>
      <point x="1000" y="1030"/>
      <point x="1016" y="1046" type="curve" smooth="yes"/>
      <point x="1033" y="1063"/>
      <point x="1033" y="1074"/>
      <point x="1019" y="1088" type="curve" smooth="yes"/>
      <point x="940" y="1165"/>
      <point x="840" y="1212"/>
      <point x="756" y="1212" type="curve" smooth="yes"/>
      <point x="626" y="1212"/>
      <point x="545" y="1132"/>
      <point x="495" y="981" type="curve" smooth="yes"/>
      <point x="353" y="546" type="line"/>
      <point x="216" y="546" type="line" smooth="yes"/>
      <point x="201" y="546"/>
      <point x="192" y="540"/>
      <point x="184" y="516" type="curve" smooth="yes"/>
      <point x="177" y="494"/>
      <point x="177" y="482"/>
      <point x="195" y="482" type="curve" smooth="yes"/>
      <point x="332" y="482" type="line"/>
      <point x="196" y="64" type="line"/>
      <point x="32" y="64" type="line" smooth="yes"/>
      <point x="17" y="64"/>
      <point x="8" y="58"/>
      <point x="0" y="34" type="curve" smooth="yes"/>
      <point x="-7" y="12"/>
      <point x="-7" y="0"/>
    </contour>
  </outline>
</glyph>
<glyph name="yen" format="2">
  <advance width="1050"/>
  <unicode hex="00A5"/>
  <outline>
    <contour>
      <point x="439" y="-14" type="curve" smooth="yes"/>
      <point x="468" y="-14"/>
      <point x="488" y="-5"/>
      <point x="494" y="14" type="curve" smooth="yes"/>
      <point x="633" y="440" type="line"/>
      <point x="950" y="440" type="line" smooth="yes"/>
      <point x="970" y="440"/>
      <point x="981" y="449"/>
      <point x="991" y="479" type="curve" smooth="yes"/>
      <point x="1000" y="509"/>
      <point x="996" y="518"/>
      <point x="976" y="518" type="curve" smooth="yes"/>
      <point x="658" y="518" type="line"/>
      <point x="693" y="626" type="line"/>
      <point x="999" y="626" type="line" smooth="yes"/>
      <point x="1019" y="626"/>
      <point x="1030" y="635"/>
      <point x="1039" y="665" type="curve" smooth="yes"/>
      <point x="1049" y="695"/>
      <point x="1045" y="704"/>
      <point x="1025" y="704" type="curve" smooth="yes"/>
      <point x="748" y="704" type="line"/>
      <point x="1413" y="1463" type="line" smooth="yes"/>
      <point x="1440" y="1493"/>
      <point x="1426" y="1515"/>
      <point x="1380" y="1515" type="curve" smooth="yes"/>
      <point x="1359" y="1515"/>
      <point x="1346" y="1510"/>
      <point x="1334" y="1496" type="curve" smooth="yes"/>
      <point x="678" y="744" type="line"/>
      <point x="515" y="1479" type="line" smooth="yes"/>
      <point x="510" y="1503"/>
      <point x="501" y="1515"/>
      <point x="471" y="1515" type="curve" smooth="yes"/>
      <point x="436" y="1515"/>
      <point x="423" y="1496"/>
      <point x="429" y="1470" type="curve" smooth="yes"/>
      <point x="600" y="704" type="line"/>
      <point x="310" y="704" type="line" smooth="yes"/>
      <point x="290" y="704"/>
      <point x="279" y="695"/>
      <point x="269" y="665" type="curve" smooth="yes"/>
      <point x="260" y="635"/>
      <point x="264" y="626"/>
      <point x="284" y="626" type="curve" smooth="yes"/>
      <point x="602" y="626" type="line"/>
      <point x="567" y="518" type="line"/>
      <point x="261" y="518" type="line" smooth="yes"/>
      <point x="241" y="518"/>
      <point x="230" y="509"/>
      <point x="221" y="479" type="curve" smooth="yes"/>
      <point x="211" y="449"/>
      <point x="215" y="440"/>
      <point x="235" y="440" type="curve" smooth="yes"/>
      <point x="542" y="440" type="line"/>
      <point x="404" y="14" type="line" smooth="yes"/>
      <point x="398" y="-5"/>
      <point x="410" y="-14"/>
    </contour>
  </outline>
</glyph>
<glyph name="section" format="2">
  <advance width="1033"/>
  <unicode hex="00A7"/>
  <outline>
    <contour>
      <point x="1023" y="429" type="curve" smooth="yes"/>
      <point x="1023" y="756"/>
      <point x="555" y="826"/>
      <point x="555" y="1153" type="curve" smooth="yes"/>
      <point x="555" y="1314"/>
      <point x="665" y="1430"/>
      <point x="818" y="1430" type="curve" smooth="yes"/>
      <point x="934" y="1430"/>
      <point x="1044" y="1365"/>
      <point x="1131" y="1264" type="curve" smooth="yes"/>
      <point x="1141" y="1251"/>
      <point x="1160" y="1253"/>
      <point x="1176" y="1266" type="curve" smooth="yes"/>
      <point x="1196" y="1284"/>
      <point x="1200" y="1295"/>
      <point x="1188" y="1311" type="curve" smooth="yes"/>
      <point x="1110" y="1421"/>
      <point x="961" y="1515"/>
      <point x="823" y="1515" type="curve" smooth="yes"/>
      <point x="614" y="1515"/>
      <point x="463" y="1361"/>
      <point x="463" y="1148" type="curve" smooth="yes"/>
      <point x="463" y="774"/>
      <point x="930" y="703"/>
      <point x="930" y="423" type="curve" smooth="yes"/>
      <point x="930" y="238"/>
      <point x="794" y="121"/>
      <point x="586" y="54" type="curve"/>
      <point x="651" y="4" type="line"/>
      <point x="854" y="75"/>
      <point x="1023" y="204"/>
    </contour>
    <contour>
      <point x="213" y="481" type="curve" smooth="yes"/>
      <point x="213" y="158"/>
      <point x="671" y="88"/>
      <point x="671" y="-244" type="curve" smooth="yes"/>
      <point x="671" y="-441"/>
      <point x="534" y="-585"/>
      <point x="344" y="-585" type="curve" smooth="yes"/>
      <point x="205" y="-585"/>
      <point x="83" y="-509"/>
      <point x="15" y="-412" type="curve" smooth="yes"/>
      <point x="5" y="-397"/>
      <point x="-11" y="-397"/>
      <point x="-31" y="-414" type="curve" smooth="yes"/>
      <point x="-51" y="-430"/>
      <point x="-56" y="-441"/>
      <point x="-47" y="-456" type="curve" smooth="yes"/>
      <point x="9" y="-547"/>
      <point x="153" y="-670"/>
      <point x="339" y="-670" type="curve" smooth="yes"/>
      <point x="585" y="-670"/>
      <point x="764" y="-489"/>
      <point x="764" y="-237" type="curve" smooth="yes"/>
      <point x="764" y="143"/>
      <point x="305" y="208"/>
      <point x="305" y="488" type="curve" smooth="yes"/>
      <point x="305" y="659"/>
      <point x="416" y="783"/>
      <point x="636" y="855" type="curve"/>
      <point x="571" y="903" type="line"/>
      <point x="373" y="831"/>
      <point x="213" y="706"/>
    </contour>
  </outline>
</glyph>
<glyph name="copyright" format="2">
  <advance width="1406"/>
  <unicode hex="00A9"/>
  <outline>
    <contour>
      <point x="860" y="119" type="curve" smooth="yes"/>
      <point x="1185" y="119"/>
      <point x="1421" y="378"/>
      <point x="1421" y="734" type="curve" smooth="yes"/>
      <point x="1421" y="1090"/>
      <point x="1185" y="1348"/>
      <point x="860" y="1348" type="curve" smooth="yes"/>
      <point x="535" y="1348"/>
      <point x="300" y="1090"/>
      <point x="300" y="734" type="curve" smooth="yes"/>
      <point x="300" y="378"/>
      <point x="535" y="119"/>
    </contour>
    <contour>
      <point x="860" y="169" type="curve" smooth="yes"/>
      <point x="568" y="169"/>
      <point x="355" y="406"/>
      <point x="355" y="734" type="curve" smooth="yes"/>
      <point x="355" y="1061"/>
      <point x="568" y="1298"/>
      <point x="860" y="1298" type="curve" smooth="yes"/>
      <point x="1154" y="1298"/>
      <point x="1366" y="1061"/>
      <point x="1366" y="734" type="curve" smooth="yes"/>
      <point x="1366" y="406"/>
      <point x="1154" y="169"/>
    </contour>
    <contour>
      <point x="851" y="389" type="curve" smooth="yes"/>
      <point x="930" y="389"/>
      <point x="1003" y="441"/>
      <point x="1068" y="545" type="curve" smooth="yes"/>
      <point x="1075" y="558"/>
      <point x="1073" y="569"/>
      <point x="1058" y="579" type="curve" smooth="yes"/>
      <point x="1041" y="590"/>
      <point x="1028" y="589"/>
      <point x="1018" y="574" type="curve" smooth="yes"/>
      <point x="968" y="499"/>
      <point x="913" y="460"/>
      <point x="855" y="460" type="curve" smooth="yes"/>
      <point x="754" y="460"/>
      <point x="691" y="555"/>
      <point x="691" y="713" type="curve" smooth="yes"/>
      <point x="691" y="900"/>
      <point x="763" y="1014"/>
      <point x="879" y="1014" type="curve" smooth="yes"/>
      <point x="924" y="1014"/>
      <point x="969" y="1000"/>
      <point x="1010" y="968" type="curve" smooth="yes"/>
      <point x="1024" y="956"/>
      <point x="1035" y="951"/>
      <point x="1049" y="964" type="curve" smooth="yes"/>
      <point x="1065" y="978"/>
      <point x="1069" y="990"/>
      <point x="1058" y="1003" type="curve" smooth="yes"/>
      <point x="1006" y="1059"/>
      <point x="943" y="1084"/>
      <point x="883" y="1084" type="curve" smooth="yes"/>
      <point x="715" y="1084"/>
      <point x="614" y="944"/>
      <point x="614" y="713" type="curve" smooth="yes"/>
      <point x="614" y="511"/>
      <point x="704" y="389"/>
    </contour>
  </outline>
</glyph>
<glyph name="ordfeminine" format="2">
  <advance width="384"/>
  <unicode hex="00AA"/>
  <outline>
    <contour>
      <point x="365" y="889" type="curve" smooth="yes"/>
      <point x="404" y="889"/>
      <point x="450" y="920"/>
      <point x="500" y="980" type="curve"/>
      <point x="502" y="987"/>
      <point x="504" y="996"/>
      <point x="506" y="1001" type="curve" smooth="yes"/>
      <point x="494" y="966"/>
      <point x="474" y="891"/>
      <point x="546" y="891" type="curve" smooth="yes"/>
      <point x="594" y="891"/>
      <point x="623" y="931"/>
      <point x="634" y="950" type="curve" smooth="yes"/>
      <point x="638" y="958"/>
      <point x="635" y="968"/>
      <point x="621" y="977" type="curve" smooth="yes"/>
      <point x="609" y="985"/>
      <point x="602" y="982"/>
      <point x="595" y="974" type="curve" smooth="yes"/>
      <point x="577" y="952"/>
      <point x="570" y="946"/>
      <point x="561" y="946" type="curve" smooth="yes"/>
      <point x="557" y="946"/>
      <point x="552" y="947"/>
      <point x="558" y="966" type="curve" smooth="yes"/>
      <point x="634" y="1190" type="line" smooth="yes"/>
      <point x="640" y="1208"/>
      <point x="635" y="1217"/>
      <point x="603" y="1217" type="curve" smooth="yes"/>
      <point x="589" y="1217"/>
      <point x="578" y="1216"/>
      <point x="574" y="1203" type="curve" smooth="yes"/>
      <point x="574" y="1204" type="line"/>
      <point x="550" y="1214"/>
      <point x="523" y="1220"/>
      <point x="501" y="1220" type="curve" smooth="yes"/>
      <point x="370" y="1220"/>
      <point x="296" y="1073"/>
      <point x="296" y="980" type="curve" smooth="yes"/>
      <point x="296" y="924"/>
      <point x="324" y="889"/>
    </contour>
    <contour>
      <point x="363" y="993" type="curve" smooth="yes"/>
      <point x="363" y="1051"/>
      <point x="408" y="1162"/>
      <point x="491" y="1162" type="curve" smooth="yes"/>
      <point x="515" y="1162"/>
      <point x="536" y="1159"/>
      <point x="557" y="1152" type="curve"/>
      <point x="551" y="1136" type="line"/>
      <point x="488" y="1016"/>
      <point x="427" y="948"/>
      <point x="388" y="948" type="curve" smooth="yes"/>
      <point x="373" y="948"/>
      <point x="363" y="965"/>
    </contour>
  </outline>
</glyph>
<glyph name="logicalnot" format="2">
	<unicode hex="00AC"/>
	<advance width="610"/>
	<outline>
		<contour>
			<point x="487" y="121" type="curve" smooth="yes"/>
			<point x="508" y="121"/>
			<point x="516" y="125"/>
			<point x="523" y="147" type="curve" smooth="yes"/>
			<point x="588" y="348" type="line" smooth="yes"/>
			<point x="596" y="372"/>
			<point x="591" y="382"/>
			<point x="575" y="382" type="curve" smooth="yes"/>
			<point x="148" y="382" type="line" smooth="yes"/>
			<point x="136" y="382"/>
			<point x="126" y="372"/>
			<point x="119" y="352" type="curve" smooth="yes"/>
			<point x="111" y="328"/>
			<point x="117" y="318"/>
			<point x="129" y="318" type="curve" smooth="yes"/>
			<point x="507" y="318" type="line"/>
			<point x="454" y="152" type="line" smooth="yes"/>
			<point x="447" y="131"/>
			<point x="454" y="121"/>
		</contour>
	</outline>
</glyph>
<glyph name="registered" format="2">
  <advance width="683"/>
  <unicode hex="00AE"/>
  <outline>
    <contour>
      <point x="685" y="1053" type="curve" smooth="yes"/>
      <point x="841" y="1053"/>
      <point x="966" y="1178"/>
      <point x="966" y="1334" type="curve" smooth="yes"/>
      <point x="966" y="1490"/>
      <point x="841" y="1615"/>
      <point x="685" y="1615" type="curve" smooth="yes"/>
      <point x="529" y="1615"/>
      <point x="404" y="1490"/>
      <point x="404" y="1334" type="curve" smooth="yes"/>
      <point x="404" y="1178"/>
      <point x="529" y="1053"/>
    </contour>
    <contour>
      <point x="685" y="1090" type="curve" smooth="yes"/>
      <point x="551" y="1090"/>
      <point x="441" y="1200"/>
      <point x="441" y="1334" type="curve" smooth="yes"/>
      <point x="441" y="1468"/>
      <point x="551" y="1578"/>
      <point x="685" y="1578" type="curve" smooth="yes"/>
      <point x="819" y="1578"/>
      <point x="929" y="1468"/>
      <point x="929" y="1334" type="curve" smooth="yes"/>
      <point x="929" y="1200"/>
      <point x="819" y="1090"/>
    </contour>
    <contour>
      <point x="610" y="1161" type="curve" smooth="yes"/>
      <point x="635" y="1161"/>
      <point x="644" y="1169"/>
      <point x="644" y="1183" type="curve" smooth="yes"/>
      <point x="644" y="1309" type="line"/>
      <point x="680" y="1254"/>
      <point x="721" y="1210"/>
      <point x="768" y="1173" type="curve" smooth="yes"/>
      <point x="785" y="1159"/>
      <point x="799" y="1161"/>
      <point x="815" y="1179" type="curve" smooth="yes"/>
      <point x="831" y="1198"/>
      <point x="829" y="1210"/>
      <point x="811" y="1224" type="curve" smooth="yes"/>
      <point x="775" y="1253"/>
      <point x="743" y="1283"/>
      <point x="711" y="1324" type="curve"/>
      <point x="769" y="1339"/>
      <point x="809" y="1371"/>
      <point x="809" y="1424" type="curve" smooth="yes"/>
      <point x="809" y="1493"/>
      <point x="760" y="1516"/>
      <point x="676" y="1516" type="curve" smooth="yes"/>
      <point x="616" y="1516" type="line" smooth="yes"/>
      <point x="591" y="1516"/>
      <point x="578" y="1509"/>
      <point x="578" y="1495" type="curve" smooth="yes"/>
      <point x="578" y="1183" type="line" smooth="yes"/>
      <point x="578" y="1169"/>
      <point x="586" y="1161"/>
    </contour>
    <contour>
      <point x="644" y="1369" type="curve"/>
      <point x="644" y="1450" type="line"/>
      <point x="694" y="1450" type="line" smooth="yes"/>
      <point x="719" y="1450"/>
      <point x="741" y="1440"/>
      <point x="741" y="1418" type="curve" smooth="yes"/>
      <point x="741" y="1384"/>
      <point x="701" y="1369"/>
    </contour>
  </outline>
</glyph>
<glyph name="degree" format="2">
  <advance width="505"/>
  <unicode hex="00B0"/>
  <outline>
    <contour>
      <point x="522" y="845" type="curve" smooth="yes"/>
      <point x="625" y="845"/>
      <point x="699" y="923"/>
      <point x="699" y="1030" type="curve" smooth="yes"/>
      <point x="699" y="1136"/>
      <point x="625" y="1212"/>
      <point x="522" y="1212" type="curve" smooth="yes"/>
      <point x="420" y="1212"/>
      <point x="346" y="1136"/>
      <point x="346" y="1030" type="curve" smooth="yes"/>
      <point x="346" y="923"/>
      <point x="420" y="845"/>
    </contour>
    <contour>
      <point x="522" y="903" type="curve" smooth="yes"/>
      <point x="456" y="903"/>
      <point x="410" y="949"/>
      <point x="410" y="1030" type="curve" smooth="yes"/>
      <point x="410" y="1109"/>
      <point x="456" y="1154"/>
      <point x="522" y="1154" type="curve" smooth="yes"/>
      <point x="588" y="1154"/>
      <point x="635" y="1109"/>
      <point x="635" y="1030" type="curve" smooth="yes"/>
      <point x="635" y="949"/>
      <point x="588" y="903"/>
    </contour>
  </outline>
</glyph>
<glyph name="plusminus" format="2">
	<unicode hex="00B1"/>
	<advance width="610"/>
	<outline>
		<contour>
			<point x="299" y="174" type="curve" smooth="yes"/>
			<point x="320" y="174"/>
			<point x="328" y="178"/>
			<point x="335" y="200" type="curve" smooth="yes"/>
			<point x="451" y="553" type="line" smooth="yes"/>
			<point x="458" y="574"/>
			<point x="451" y="584"/>
			<point x="418" y="584" type="curve" smooth="yes"/>
			<point x="397" y="584"/>
			<point x="389" y="580"/>
			<point x="382" y="558" type="curve" smooth="yes"/>
			<point x="266" y="205" type="line" smooth="yes"/>
			<point x="259" y="184"/>
			<point x="266" y="174"/>
		</contour>
		<component base="minus" xOffset="-82" yOffset="-252"/>
		<component base="minus" xOffset="10" yOffset="30"/>
	</outline>
</glyph>
<glyph name="ordmasculine" format="2">
  <advance width="363"/>
  <unicode hex="00BA"/>
  <outline>
    <contour>
      <point x="429" y="888" type="curve" smooth="yes"/>
      <point x="554" y="888"/>
      <point x="614" y="1020"/>
      <point x="614" y="1102" type="curve" smooth="yes"/>
      <point x="614" y="1171"/>
      <point x="571" y="1220"/>
      <point x="491" y="1220" type="curve" smooth="yes"/>
      <point x="368" y="1220"/>
      <point x="306" y="1096"/>
      <point x="306" y="1011" type="curve" smooth="yes"/>
      <point x="306" y="940"/>
      <point x="349" y="888"/>
    </contour>
    <contour>
      <point x="437" y="947" type="curve" smooth="yes"/>
      <point x="397" y="947"/>
      <point x="371" y="971"/>
      <point x="371" y="1016" type="curve" smooth="yes"/>
      <point x="371" y="1070"/>
      <point x="410" y="1161"/>
      <point x="485" y="1161" type="curve" smooth="yes"/>
      <point x="522" y="1161"/>
      <point x="547" y="1140"/>
      <point x="547" y="1094" type="curve" smooth="yes"/>
      <point x="547" y="1037"/>
      <point x="508" y="947"/>
    </contour>
  </outline>
</glyph>
<glyph name="AE" format="2">
  <advance width="1494"/>
  <unicode hex="00C6"/>
  <anchor x="1425" y="1424" name="top"/>
  <outline>
    <contour>
      <point x="1321" y="0" type="line" smooth="yes"/>
      <point x="1336" y="0"/>
      <point x="1350" y="14"/>
      <point x="1358" y="40" type="curve" smooth="yes"/>
      <point x="1365" y="68"/>
      <point x="1359" y="80"/>
      <point x="1344" y="80" type="curve" smooth="yes"/>
      <point x="800" y="80" type="line"/>
      <point x="1002" y="704" type="line"/>
      <point x="1451" y="704" type="line" smooth="yes"/>
      <point x="1466" y="704"/>
      <point x="1480" y="718"/>
      <point x="1488" y="744" type="curve" smooth="yes"/>
      <point x="1495" y="771"/>
      <point x="1489" y="784"/>
      <point x="1474" y="784" type="curve" smooth="yes"/>
      <point x="1028" y="784" type="line"/>
      <point x="1230" y="1408" type="line"/>
      <point x="1776" y="1408" type="line" smooth="yes"/>
      <point x="1791" y="1408"/>
      <point x="1805" y="1421"/>
      <point x="1813" y="1448" type="curve" smooth="yes"/>
      <point x="1820" y="1475"/>
      <point x="1814" y="1488"/>
      <point x="1799" y="1488" type="curve" smooth="yes"/>
      <point x="1130" y="1488" type="line" smooth="yes"/>
      <point x="1106" y="1488"/>
      <point x="1091" y="1478"/>
      <point x="1075" y="1456" type="curve" smooth="yes"/>
      <point x="-34" y="34" type="line" smooth="yes"/>
      <point x="-49" y="14"/>
      <point x="-41" y="-2"/>
      <point x="-14" y="-12" type="curve" smooth="yes"/>
      <point x="13" y="-21"/>
      <point x="30" y="-19"/>
      <point x="44" y="-1" type="curve" smooth="yes"/>
      <point x="592" y="704" type="line"/>
      <point x="913" y="704" type="line"/>
      <point x="698" y="40" type="line" smooth="yes"/>
      <point x="688" y="10"/>
      <point x="703" y="0"/>
      <point x="736" y="0" type="curve" smooth="yes"/>
    </contour>
    <contour>
      <point x="654" y="784" type="line"/>
      <point x="1143" y="1413" type="line"/>
      <point x="939" y="784" type="line"/>
    </contour>
  </outline>
</glyph>
<glyph name="multiply" format="2">
	<unicode hex="00D7"/>
	<advance width="610"/>
	<outline>
		<contour>
			<point x="457" y="175" type="curve" smooth="yes"/>
			<point x="477" y="189"/>
			<point x="477" y="204"/>
			<point x="465" y="221" type="curve" smooth="yes"/>
			<point x="262" y="521" type="line" smooth="yes"/>
			<point x="252" y="536"/>
			<point x="236" y="537"/>
			<point x="215" y="522" type="curve" smooth="yes"/>
			<point x="198" y="510"/>
			<point x="197" y="497"/>
			<point x="206" y="484" type="curve" smooth="yes"/>
			<point x="409" y="183" type="line" smooth="yes"/>
			<point x="423" y="162"/>
			<point x="437" y="161"/>
		</contour>
		<contour>
			<point x="109" y="181" type="curve" smooth="yes"/>
			<point x="123" y="162"/>
			<point x="136" y="160"/>
			<point x="152" y="172" type="curve" smooth="yes"/>
			<point x="559" y="477" type="line" smooth="yes"/>
			<point x="576" y="490"/>
			<point x="577" y="503"/>
			<point x="563" y="522" type="curve" smooth="yes"/>
			<point x="548" y="539"/>
			<point x="535" y="540"/>
			<point x="520" y="529" type="curve" smooth="yes"/>
			<point x="118" y="226" type="line" smooth="yes"/>
			<point x="100" y="212"/>
			<point x="97" y="199"/>
		</contour>
	</outline>
</glyph>
<glyph name="Thorn" format="2">
  <advance width="890"/>
  <unicode hex="00DE"/>
  <outline>
    <contour>
      <point x="144" y="-11" type="curve" smooth="yes"/>
      <point x="168" y="-11"/>
      <point x="178" y="-3"/>
      <point x="183" y="11" type="curve" smooth="yes"/>
      <point x="274" y="292" type="line"/>
      <point x="353" y="295"/>
      <point x="423" y="299"/>
      <point x="496" y="309" type="curve" smooth="yes"/>
      <point x="808" y="352"/>
      <point x="980" y="508"/>
      <point x="980" y="754" type="curve" smooth="yes"/>
      <point x="980" y="922"/>
      <point x="873" y="990"/>
      <point x="669" y="990" type="curve" smooth="yes"/>
      <point x="501" y="990" type="line"/>
      <point x="565" y="1188" type="line" smooth="yes"/>
      <point x="571" y="1205"/>
      <point x="558" y="1212"/>
      <point x="535" y="1212" type="curve" smooth="yes"/>
      <point x="512" y="1212"/>
      <point x="500" y="1205"/>
      <point x="495" y="1190" type="curve" smooth="yes"/>
      <point x="113" y="13" type="line" smooth="yes"/>
      <point x="107" y="-4"/>
      <point x="120" y="-11"/>
    </contour>
    <contour>
      <point x="294" y="356" type="curve"/>
      <point x="480" y="926" type="line"/>
      <point x="661" y="926" type="line" smooth="yes"/>
      <point x="826" y="926"/>
      <point x="905" y="876"/>
      <point x="905" y="747" type="curve" smooth="yes"/>
      <point x="905" y="543"/>
      <point x="766" y="413"/>
      <point x="505" y="373" type="curve" smooth="yes"/>
      <point x="440" y="363"/>
      <point x="361" y="357"/>
    </contour>
  </outline>
</glyph>
<glyph name="germandbls" format="2">
  <advance width="700"/>
  <unicode hex="00DF"/>
  <outline>
    <contour>
      <point x="630" y="274" type="curve" smooth="yes"/>
      <point x="630" y="375"/>
      <point x="565" y="491"/>
      <point x="430" y="494" type="curve"/>
      <point x="443" y="470" type="line"/>
      <point x="714" y="470"/>
      <point x="955" y="960"/>
      <point x="955" y="1230" type="curve" smooth="yes"/>
      <point x="955" y="1406"/>
      <point x="881" y="1515"/>
      <point x="751" y="1515" type="curve" smooth="yes"/>
      <point x="614" y="1515"/>
      <point x="510" y="1426"/>
      <point x="424" y="1160" type="curve" smooth="yes"/>
      <point x="-275" y="-982" type="line" smooth="yes"/>
      <point x="-284" y="-1007"/>
      <point x="-259" y="-1015"/>
      <point x="-237" y="-1015" type="curve" smooth="yes"/>
      <point x="-207" y="-1015"/>
      <point x="-196" y="-1007"/>
      <point x="-190" y="-989" type="curve" smooth="yes"/>
      <point x="509" y="1153" type="line" smooth="yes"/>
      <point x="580" y="1370"/>
      <point x="656" y="1435"/>
      <point x="740" y="1435" type="curve" smooth="yes"/>
      <point x="834" y="1435"/>
      <point x="869" y="1364"/>
      <point x="869" y="1224" type="curve" smooth="yes"/>
      <point x="869" y="976"/>
      <point x="635" y="524"/>
      <point x="430" y="524" type="curve" smooth="yes"/>
      <point x="416" y="524" type="line" smooth="yes"/>
      <point x="398" y="524"/>
      <point x="390" y="510"/>
      <point x="385" y="493" type="curve" smooth="yes"/>
      <point x="378" y="470"/>
      <point x="374" y="444"/>
      <point x="396" y="444" type="curve" smooth="yes"/>
      <point x="403" y="444" type="line" smooth="yes"/>
      <point x="494" y="444"/>
      <point x="545" y="353"/>
      <point x="545" y="269" type="curve" smooth="yes"/>
      <point x="545" y="166"/>
      <point x="478" y="61"/>
      <point x="349" y="61" type="curve" smooth="yes"/>
      <point x="313" y="61"/>
      <point x="281" y="66"/>
      <point x="243" y="78" type="curve" smooth="yes"/>
      <point x="230" y="81"/>
      <point x="220" y="76"/>
      <point x="210" y="59" type="curve" smooth="yes"/>
      <point x="196" y="35"/>
      <point x="200" y="14"/>
      <point x="218" y="3" type="curve" smooth="yes"/>
      <point x="246" y="-12"/>
      <point x="286" y="-19"/>
      <point x="346" y="-19" type="curve" smooth="yes"/>
      <point x="533" y="-19"/>
      <point x="630" y="135"/>
    </contour>
  </outline>
</glyph>
<glyph name="ae" format="2">
  <advance width="894"/>
  <unicode hex="00E6"/>
  <anchor x="525" y="500" name="top"/>
  <outline>
    <contour>
      <point x="34" y="131" type="curve" smooth="yes"/>
      <point x="34" y="45"/>
      <point x="75" y="-17"/>
      <point x="163" y="-17" type="curve" smooth="yes"/>
      <point x="263" y="-17"/>
      <point x="374" y="71"/>
      <point x="545" y="366" type="curve"/>
      <point x="475" y="378" type="line"/>
      <point x="381" y="226"/>
      <point x="268" y="63"/>
      <point x="180" y="63" type="curve" smooth="yes"/>
      <point x="144" y="63"/>
      <point x="126" y="86"/>
      <point x="126" y="133" type="curve" smooth="yes"/>
      <point x="126" y="253"/>
      <point x="223" y="440"/>
      <point x="389" y="440" type="curve" smooth="yes"/>
      <point x="454" y="440"/>
      <point x="503" y="424"/>
      <point x="540" y="401" type="curve"/>
      <point x="528" y="465" type="line"/>
      <point x="480" y="395"/>
      <point x="416" y="280"/>
      <point x="416" y="164" type="curve" smooth="yes"/>
      <point x="416" y="63"/>
      <point x="468" y="-19"/>
      <point x="589" y="-19" type="curve" smooth="yes"/>
      <point x="661" y="-19"/>
      <point x="740" y="10"/>
      <point x="816" y="105" type="curve" smooth="yes"/>
      <point x="833" y="125"/>
      <point x="829" y="140"/>
      <point x="815" y="155" type="curve" smooth="yes"/>
      <point x="801" y="170"/>
      <point x="778" y="179"/>
      <point x="761" y="160" type="curve" smooth="yes"/>
      <point x="714" y="106"/>
      <point x="665" y="61"/>
      <point x="600" y="61" type="curve" smooth="yes"/>
      <point x="534" y="61"/>
      <point x="506" y="105"/>
      <point x="506" y="170" type="curve" smooth="yes"/>
      <point x="506" y="280"/>
      <point x="556" y="379"/>
      <point x="621" y="451" type="curve"/>
      <point x="530" y="500"/>
      <point x="469" y="519"/>
      <point x="395" y="519" type="curve" smooth="yes"/>
      <point x="164" y="519"/>
      <point x="34" y="286"/>
    </contour>
    <contour>
      <point x="874" y="400" type="curve" smooth="yes"/>
      <point x="874" y="471"/>
      <point x="828" y="519"/>
      <point x="730" y="519" type="curve" smooth="yes"/>
      <point x="648" y="519"/>
      <point x="596" y="503"/>
      <point x="544" y="476" type="curve"/>
      <point x="556" y="395" type="line"/>
      <point x="608" y="428"/>
      <point x="661" y="440"/>
      <point x="720" y="440" type="curve" smooth="yes"/>
      <point x="758" y="440"/>
      <point x="783" y="426"/>
      <point x="783" y="393" type="curve" smooth="yes"/>
      <point x="783" y="295"/>
      <point x="579" y="258"/>
      <point x="468" y="240" type="curve"/>
      <point x="459" y="169" type="line"/>
      <point x="634" y="194"/>
      <point x="874" y="259"/>
    </contour>
  </outline>
</glyph>
<glyph name="eth" format="2">
  <advance width="603"/>
  <unicode hex="00F0"/>
  <outline>
    <contour>
      <point x="254" y="-19" type="curve" smooth="yes"/>
      <point x="379" y="-19"/>
      <point x="489" y="89"/>
      <point x="553" y="288" type="curve" smooth="yes"/>
      <point x="668" y="643"/>
      <point x="703" y="1160"/>
      <point x="629" y="1496" type="curve" smooth="yes"/>
      <point x="625" y="1516"/>
      <point x="610" y="1524"/>
      <point x="586" y="1519" type="curve" smooth="yes"/>
      <point x="563" y="1514"/>
      <point x="553" y="1501"/>
      <point x="556" y="1480" type="curve" smooth="yes"/>
      <point x="619" y="1143"/>
      <point x="576" y="643"/>
      <point x="465" y="301" type="curve" smooth="yes"/>
      <point x="414" y="144"/>
      <point x="340" y="61"/>
      <point x="264" y="61" type="curve" smooth="yes"/>
      <point x="195" y="61"/>
      <point x="153" y="105"/>
      <point x="153" y="183" type="curve" smooth="yes"/>
      <point x="153" y="281"/>
      <point x="223" y="439"/>
      <point x="343" y="439" type="curve" smooth="yes"/>
      <point x="414" y="439"/>
      <point x="471" y="414"/>
      <point x="515" y="375" type="curve"/>
      <point x="531" y="446" type="line"/>
      <point x="480" y="494"/>
      <point x="418" y="519"/>
      <point x="345" y="519" type="curve" smooth="yes"/>
      <point x="164" y="519"/>
      <point x="63" y="318"/>
      <point x="63" y="176" type="curve" smooth="yes"/>
      <point x="63" y="63"/>
      <point x="129" y="-19"/>
    </contour>
    <contour>
      <point x="476" y="1125" type="curve" smooth="yes"/>
      <point x="780" y="1251" type="line" smooth="yes"/>
      <point x="795" y="1258"/>
      <point x="800" y="1266"/>
      <point x="794" y="1288" type="curve" smooth="yes"/>
      <point x="788" y="1309"/>
      <point x="775" y="1318"/>
      <point x="759" y="1311" type="curve" smooth="yes"/>
      <point x="458" y="1186" type="line" smooth="yes"/>
      <point x="444" y="1180"/>
      <point x="438" y="1171"/>
      <point x="441" y="1154" type="curve" smooth="yes"/>
      <point x="448" y="1129"/>
      <point x="463" y="1119"/>
    </contour>
  </outline>
</glyph>
<glyph name="thorn" format="2">
  <advance width="599"/>
  <unicode hex="00FE"/>
  <outline>
    <contour>
      <point x="-261" y="-1015" type="curve" smooth="yes"/>
      <point x="-231" y="-1015"/>
      <point x="-220" y="-1007"/>
      <point x="-214" y="-989" type="curve" smooth="yes"/>
      <point x="112" y="16" type="line"/>
      <point x="151" y="-2"/>
      <point x="196" y="-17"/>
      <point x="237" y="-17" type="curve" smooth="yes"/>
      <point x="439" y="-17"/>
      <point x="564" y="219"/>
      <point x="564" y="371" type="curve" smooth="yes"/>
      <point x="564" y="463"/>
      <point x="519" y="519"/>
      <point x="451" y="519" type="curve" smooth="yes"/>
      <point x="381" y="519"/>
      <point x="304" y="464"/>
      <point x="221" y="351" type="curve"/>
      <point x="587" y="1476" type="line" smooth="yes"/>
      <point x="596" y="1503"/>
      <point x="587" y="1515"/>
      <point x="546" y="1515" type="curve" smooth="yes"/>
      <point x="520" y="1515"/>
      <point x="510" y="1510"/>
      <point x="501" y="1483" type="curve" smooth="yes"/>
      <point x="-299" y="-982" type="line" smooth="yes"/>
      <point x="-306" y="-1007"/>
      <point x="-283" y="-1015"/>
    </contour>
    <contour>
      <point x="135" y="84" type="curve"/>
      <point x="151" y="136" type="line"/>
      <point x="255" y="333"/>
      <point x="350" y="439"/>
      <point x="422" y="439" type="curve" smooth="yes"/>
      <point x="454" y="439"/>
      <point x="472" y="406"/>
      <point x="472" y="355" type="curve" smooth="yes"/>
      <point x="472" y="250"/>
      <point x="387" y="61"/>
      <point x="247" y="61" type="curve" smooth="yes"/>
      <point x="214" y="61"/>
      <point x="177" y="66"/>
    </contour>
  </outline>
</glyph>
<glyph name="idotless" format="2">
  <advance width="304"/>
  <unicode hex="0131"/>
  <anchor x="111" y="0" name="bottom"/>
  <anchor x="178" y="0" name="ogonek"/>
  <anchor x="214" y="500" name="top"/>
  <outline>
    <contour>
      <point x="119" y="-15" type="curve" smooth="yes"/>
      <point x="191" y="-15"/>
      <point x="243" y="51"/>
      <point x="261" y="83" type="curve" smooth="yes"/>
      <point x="269" y="95"/>
      <point x="265" y="106"/>
      <point x="248" y="119" type="curve" smooth="yes"/>
      <point x="233" y="130"/>
      <point x="216" y="131"/>
      <point x="204" y="115" type="curve" smooth="yes"/>
      <point x="179" y="80"/>
      <point x="158" y="61"/>
      <point x="139" y="61" type="curve" smooth="yes"/>
      <point x="129" y="61"/>
      <point x="120" y="66"/>
      <point x="133" y="103" type="curve" smooth="yes"/>
      <point x="258" y="483" type="line" smooth="yes"/>
      <point x="264" y="501"/>
      <point x="250" y="515"/>
      <point x="219" y="515" type="curve" smooth="yes"/>
      <point x="188" y="515"/>
      <point x="178" y="510"/>
      <point x="169" y="483" type="curve" smooth="yes"/>
      <point x="60" y="148" type="line" smooth="yes"/>
      <point x="40" y="85"/>
      <point x="19" y="-15"/>
    </contour>
  </outline>
</glyph>
<glyph name="Eng" format="2">
  <advance width="1099"/>
  <unicode hex="014A"/>
  <outline>
    <contour>
      <point x="805" y="-173" type="curve" smooth="yes"/>
      <point x="1249" y="1190" type="line" smooth="yes"/>
      <point x="1254" y="1205"/>
      <point x="1244" y="1212"/>
      <point x="1221" y="1212" type="curve" smooth="yes"/>
      <point x="1198" y="1212"/>
      <point x="1184" y="1205"/>
      <point x="1179" y="1190" type="curve" smooth="yes"/>
      <point x="835" y="130" type="line"/>
      <point x="569" y="1190" type="line" smooth="yes"/>
      <point x="565" y="1204"/>
      <point x="555" y="1212"/>
      <point x="536" y="1212" type="curve" smooth="yes"/>
      <point x="513" y="1212"/>
      <point x="499" y="1205"/>
      <point x="494" y="1190" type="curve" smooth="yes"/>
      <point x="112" y="11" type="line" smooth="yes"/>
      <point x="107" y="-4"/>
      <point x="117" y="-11"/>
      <point x="140" y="-11" type="curve" smooth="yes"/>
      <point x="163" y="-11"/>
      <point x="177" y="-4"/>
      <point x="182" y="11" type="curve" smooth="yes"/>
      <point x="529" y="1079" type="line"/>
      <point x="797" y="14" type="line"/>
      <point x="740" y="-161" type="line" smooth="yes"/>
      <point x="711" y="-251"/>
      <point x="693" y="-282"/>
      <point x="645" y="-282" type="curve" smooth="yes"/>
      <point x="611" y="-282"/>
      <point x="579" y="-260"/>
      <point x="546" y="-218" type="curve" smooth="yes"/>
      <point x="534" y="-202"/>
      <point x="521" y="-199"/>
      <point x="502" y="-216" type="curve" smooth="yes"/>
      <point x="481" y="-234"/>
      <point x="487" y="-250"/>
      <point x="497" y="-264" type="curve" smooth="yes"/>
      <point x="537" y="-316"/>
      <point x="591" y="-347"/>
      <point x="639" y="-347" type="curve" smooth="yes"/>
      <point x="718" y="-347"/>
      <point x="761" y="-309"/>
    </contour>
  </outline>
</glyph>
<glyph name="OE" format="2">
	<unicode hex="0152"/>
	<advance width="1065"/>
	<outline>
		<contour>
			<point x="336" y="-15" type="curve" smooth="yes"/>
			<point x="585" y="-15"/>
			<point x="733" y="273"/>
			<point x="733" y="479" type="curve" smooth="yes"/>
			<point x="733" y="624"/>
			<point x="651" y="712"/>
			<point x="518" y="712" type="curve" smooth="yes"/>
			<point x="279" y="712"/>
			<point x="130" y="433"/>
			<point x="130" y="225" type="curve" smooth="yes"/>
			<point x="130" y="67"/>
			<point x="208" y="-15"/>
		</contour>
		<contour>
			<point x="338" y="15" type="curve" smooth="yes"/>
			<point x="228" y="15"/>
			<point x="163" y="86"/>
			<point x="163" y="225" type="curve" smooth="yes"/>
			<point x="163" y="420"/>
			<point x="302" y="682"/>
			<point x="516" y="682" type="curve" smooth="yes"/>
			<point x="632" y="682"/>
			<point x="706" y="611"/>
			<point x="706" y="479" type="curve" smooth="yes"/>
			<point x="706" y="287"/>
			<point x="568" y="15"/>
		</contour>
		<contour>
			<point x="592" y="0" type="curve" smooth="yes"/>
			<point x="933" y="0" type="line" smooth="yes"/>
			<point x="943" y="0"/>
			<point x="947" y="3"/>
			<point x="950" y="14" type="curve" smooth="yes"/>
			<point x="952" y="23"/>
			<point x="952" y="28"/>
			<point x="941" y="28" type="curve" smooth="yes"/>
			<point x="616" y="28" type="line"/>
			<point x="721" y="356" type="line"/>
			<point x="998" y="356" type="line" smooth="yes"/>
			<point x="1008" y="356"/>
			<point x="1012" y="359"/>
			<point x="1015" y="370" type="curve" smooth="yes"/>
			<point x="1017" y="379"/>
			<point x="1017" y="384"/>
			<point x="1006" y="384" type="curve" smooth="yes"/>
			<point x="730" y="384" type="line"/>
			<point x="823" y="672" type="line"/>
			<point x="1151" y="672" type="line" smooth="yes"/>
			<point x="1161" y="672"/>
			<point x="1165" y="675"/>
			<point x="1168" y="686" type="curve" smooth="yes"/>
			<point x="1170" y="695"/>
			<point x="1170" y="700"/>
			<point x="1159" y="700" type="curve" smooth="yes"/>
			<point x="817" y="700" type="line" smooth="yes"/>
			<point x="804" y="700"/>
			<point x="801" y="697"/>
			<point x="798" y="688" type="curve" smooth="yes"/>
			<point x="580" y="12" type="line" smooth="yes"/>
			<point x="577" y="3"/>
			<point x="582" y="0"/>
		</contour>
	</outline>
	<anchor name="top" x="689" y="670"/>
</glyph>
<glyph name="Ohorn" format="2">
  <advance width="1434"/>
  <unicode hex="01A0"/>
  <anchor x="635" y="0" name="bottom"/>
  <anchor x="878" y="744" name="center"/>
  <anchor x="1215" y="21" name="ogonek"/>
  <anchor x="1063" y="1424" name="top"/>
  <outline>
    <contour>
      <point x="700" y="-19" type="curve" smooth="yes"/>
      <point x="1145" y="-19"/>
      <point x="1499" y="478"/>
      <point x="1499" y="1015" type="curve" smooth="yes"/>
      <point x="1499" y="1166"/>
      <point x="1462" y="1287"/>
      <point x="1393" y="1372" type="curve"/>
      <point x="1571" y="1397"/>
      <point x="1608" y="1514"/>
      <point x="1594" y="1687" type="curve" smooth="yes"/>
      <point x="1591" y="1723"/>
      <point x="1515" y="1719"/>
      <point x="1517" y="1683" type="curve" smooth="yes"/>
      <point x="1525" y="1492"/>
      <point x="1491" y="1432"/>
      <point x="1342" y="1424" type="curve"/>
      <point x="1271" y="1483"/>
      <point x="1176" y="1515"/>
      <point x="1063" y="1515" type="curve" smooth="yes"/>
      <point x="623" y="1515"/>
      <point x="260" y="1023"/>
      <point x="260" y="493" type="curve" smooth="yes"/>
      <point x="260" y="171"/>
      <point x="425" y="-19"/>
    </contour>
    <contour>
      <point x="714" y="66" type="curve" smooth="yes"/>
      <point x="490" y="66"/>
      <point x="354" y="225"/>
      <point x="354" y="493" type="curve" smooth="yes"/>
      <point x="354" y="975"/>
      <point x="669" y="1431"/>
      <point x="1048" y="1431" type="curve" smooth="yes"/>
      <point x="1271" y="1431"/>
      <point x="1405" y="1276"/>
      <point x="1405" y="1015" type="curve" smooth="yes"/>
      <point x="1405" y="528"/>
      <point x="1093" y="66"/>
    </contour>
  </outline>
</glyph>
<glyph name="ohorn" format="2">
  <advance width="589"/>
  <unicode hex="01A1"/>
  <anchor x="214" y="0" name="bottom"/>
  <anchor x="295" y="250" name="center"/>
  <anchor x="350" y="13" name="ogonek"/>
  <anchor x="351" y="500" name="top"/>
  <outline>
    <contour>
      <point x="241" y="-19" type="curve" smooth="yes"/>
      <point x="445" y="-19"/>
      <point x="541" y="196"/>
      <point x="541" y="331" type="curve" smooth="yes"/>
      <point x="541" y="381"/>
      <point x="528" y="424"/>
      <point x="502" y="456" type="curve"/>
      <point x="631" y="479"/>
      <point x="660" y="555"/>
      <point x="651" y="679" type="curve" smooth="yes"/>
      <point x="648" y="725"/>
      <point x="571" y="721"/>
      <point x="574" y="675" type="curve" smooth="yes"/>
      <point x="583" y="546"/>
      <point x="549" y="511"/>
      <point x="434" y="506" type="curve"/>
      <point x="410" y="514"/>
      <point x="382" y="519"/>
      <point x="351" y="519" type="curve" smooth="yes"/>
      <point x="151" y="519"/>
      <point x="50" y="318"/>
      <point x="50" y="176" type="curve" smooth="yes"/>
      <point x="50" y="63"/>
      <point x="116" y="-19"/>
    </contour>
    <contour>
      <point x="251" y="61" type="curve" smooth="yes"/>
      <point x="183" y="61"/>
      <point x="140" y="105"/>
      <point x="140" y="183" type="curve" smooth="yes"/>
      <point x="140" y="281"/>
      <point x="210" y="439"/>
      <point x="343" y="439" type="curve" smooth="yes"/>
      <point x="409" y="439"/>
      <point x="450" y="399"/>
      <point x="450" y="321" type="curve" smooth="yes"/>
      <point x="450" y="220"/>
      <point x="381" y="61"/>
    </contour>
  </outline>
</glyph>
<glyph name="jdotless" format="2">
  <advance width="214"/>
  <unicode hex="0237"/>
  <anchor x="169" y="400" name="top"/>
  <outline>
    <contour>
      <point x="-92" y="-315" type="curve" smooth="yes"/>
      <point x="-52" y="-315"/>
      <point x="-21" y="-300"/>
      <point x="12" y="-198" type="curve" smooth="yes"/>
      <point x="203" y="391" type="line" smooth="yes"/>
      <point x="207" y="405"/>
      <point x="198" y="412"/>
      <point x="175" y="412" type="curve" smooth="yes"/>
      <point x="152" y="412"/>
      <point x="138" y="405"/>
      <point x="134" y="391" type="curve" smooth="yes"/>
      <point x="-58" y="-201" type="line" smooth="yes"/>
      <point x="-72" y="-244"/>
      <point x="-77" y="-255"/>
      <point x="-91" y="-255" type="curve" smooth="yes"/>
      <point x="-110" y="-255"/>
      <point x="-125" y="-245"/>
      <point x="-148" y="-224" type="curve" smooth="yes"/>
      <point x="-162" y="-212"/>
      <point x="-171" y="-213"/>
      <point x="-187" y="-227" type="curve" smooth="yes"/>
      <point x="-203" y="-240"/>
      <point x="-206" y="-257"/>
      <point x="-192" y="-271" type="curve" smooth="yes"/>
      <point x="-171" y="-293"/>
      <point x="-133" y="-315"/>
    </contour>
  </outline>
</glyph>
<glyph name="gravecomb" format="2">
	<unicode hex="0300"/>
	<outline>
		<contour>
			<point x="120" y="498" type="curve" smooth="yes"/>
			<point x="133" y="498"/>
			<point x="148" y="506"/>
			<point x="148" y="522" type="curve" smooth="yes"/>
			<point x="148" y="526"/>
			<point x="147" y="531"/>
			<point x="145" y="536" type="curve" smooth="yes"/>
			<point x="99" y="658" type="line" smooth="yes"/>
			<point x="93" y="675"/>
			<point x="84" y="684"/>
			<point x="71" y="684" type="curve" smooth="yes"/>
			<point x="50" y="684"/>
			<point x="25" y="668"/>
			<point x="25" y="650" type="curve" smooth="yes"/>
			<point x="25" y="644"/>
			<point x="28" y="639"/>
			<point x="31" y="633" type="curve" smooth="yes"/>
			<point x="96" y="517" type="line" smooth="yes"/>
			<point x="104" y="503"/>
			<point x="113" y="498"/>
		</contour>
	</outline>
	<anchor name="_top" x="65" y="400"/>
	<anchor name="top" x="136" y="619"/>
</glyph>
<glyph name="acutecomb" format="2">
  <unicode hex="0301"/>
  <anchor x="81" y="500" name="_top"/>
  <anchor x="170" y="775" name="top"/>
  <outline>
    <contour>
      <point x="90" y="616" type="curve" smooth="yes"/>
      <point x="98" y="616"/>
      <point x="108" y="620"/>
      <point x="119" y="631" type="curve" smooth="yes"/>
      <point x="260" y="773" type="line" smooth="yes"/>
      <point x="268" y="780"/>
      <point x="273" y="785"/>
      <point x="273" y="796" type="curve" smooth="yes"/>
      <point x="273" y="820"/>
      <point x="240" y="844"/>
      <point x="220" y="844" type="curve" smooth="yes"/>
      <point x="209" y="844"/>
      <point x="201" y="840"/>
      <point x="189" y="824" type="curve" smooth="yes"/>
      <point x="66" y="671" type="line" smooth="yes"/>
      <point x="59" y="663"/>
      <point x="56" y="655"/>
      <point x="56" y="646" type="curve" smooth="yes"/>
      <point x="56" y="631"/>
      <point x="78" y="616"/>
    </contour>
  </outline>
</glyph>
<glyph name="tildecomb" format="2">
  <unicode hex="0303"/>
  <anchor x="81" y="500" name="_top"/>
  <anchor x="184" y="818" name="top"/>
  <outline>
    <contour>
      <point x="-10" y="640" type="curve" smooth="yes"/>
      <point x="13" y="640"/>
      <point x="26" y="648"/>
      <point x="29" y="666" type="curve" smooth="yes"/>
      <point x="33" y="698"/>
      <point x="43" y="713"/>
      <point x="59" y="713" type="curve" smooth="yes"/>
      <point x="106" y="713"/>
      <point x="166" y="641"/>
      <point x="249" y="641" type="curve" smooth="yes"/>
      <point x="311" y="641"/>
      <point x="340" y="688"/>
      <point x="345" y="776" type="curve" smooth="yes"/>
      <point x="346" y="794"/>
      <point x="339" y="803"/>
      <point x="318" y="803" type="curve" smooth="yes"/>
      <point x="293" y="803"/>
      <point x="278" y="794"/>
      <point x="275" y="776" type="curve" smooth="yes"/>
      <point x="270" y="743"/>
      <point x="258" y="729"/>
      <point x="246" y="729" type="curve" smooth="yes"/>
      <point x="204" y="729"/>
      <point x="135" y="801"/>
      <point x="55" y="801" type="curve" smooth="yes"/>
      <point x="-1" y="801"/>
      <point x="-35" y="756"/>
      <point x="-40" y="668" type="curve" smooth="yes"/>
      <point x="-41" y="649"/>
      <point x="-32" y="640"/>
    </contour>
  </outline>
</glyph>
<glyph name="dieresiscomb" format="2">
	<unicode hex="0308"/>
	<outline>
		<contour>
			<point x="17" y="535" type="curve" smooth="yes"/>
			<point x="57" y="535"/>
			<point x="75" y="566"/>
			<point x="75" y="595" type="curve" smooth="yes"/>
			<point x="75" y="622"/>
			<point x="58" y="636"/>
			<point x="36" y="636" type="curve" smooth="yes"/>
			<point x="-4" y="636"/>
			<point x="-22" y="605"/>
			<point x="-22" y="576" type="curve" smooth="yes"/>
			<point x="-22" y="549"/>
			<point x="-5" y="535"/>
		</contour>
		<contour>
			<point x="214" y="535" type="curve" smooth="yes"/>
			<point x="254" y="535"/>
			<point x="272" y="566"/>
			<point x="272" y="595" type="curve" smooth="yes"/>
			<point x="272" y="622"/>
			<point x="255" y="636"/>
			<point x="233" y="636" type="curve" smooth="yes"/>
			<point x="193" y="636"/>
			<point x="175" y="605"/>
			<point x="175" y="576" type="curve" smooth="yes"/>
			<point x="175" y="549"/>
			<point x="192" y="535"/>
		</contour>
	</outline>
	<anchor name="_top" x="65" y="400"/>
	<anchor name="top" x="127" y="589"/>
</glyph>
<glyph name="hookabovecomb" format="2">
  <unicode hex="0309"/>
  <anchor x="81" y="500" name="_top"/>
  <anchor x="170" y="774" name="top"/>
  <outline>
    <contour>
      <point x="170" y="860" type="curve" smooth="yes"/>
      <point x="131" y="860"/>
      <point x="100" y="853"/>
      <point x="68" y="838" type="curve" smooth="yes"/>
      <point x="48" y="828"/>
      <point x="43" y="815"/>
      <point x="51" y="794" type="curve" smooth="yes"/>
      <point x="60" y="774"/>
      <point x="74" y="768"/>
      <point x="91" y="775" type="curve" smooth="yes"/>
      <point x="113" y="783"/>
      <point x="131" y="788"/>
      <point x="144" y="788" type="curve" smooth="yes"/>
      <point x="160" y="788"/>
      <point x="168" y="783"/>
      <point x="168" y="771" type="curve" smooth="yes"/>
      <point x="168" y="761"/>
      <point x="156" y="748"/>
      <point x="134" y="731" type="curve" smooth="yes"/>
      <point x="108" y="713"/>
      <point x="98" y="693"/>
      <point x="98" y="660" type="curve" smooth="yes"/>
      <point x="98" y="633" type="line" smooth="yes"/>
      <point x="98" y="599"/>
      <point x="163" y="596"/>
      <point x="169" y="630" type="curve" smooth="yes"/>
      <point x="173" y="651" type="line" smooth="yes"/>
      <point x="175" y="665"/>
      <point x="184" y="675"/>
      <point x="205" y="690" type="curve" smooth="yes"/>
      <point x="246" y="719"/>
      <point x="265" y="749"/>
      <point x="265" y="785" type="curve" smooth="yes"/>
      <point x="265" y="833"/>
      <point x="230" y="860"/>
    </contour>
  </outline>
</glyph>
<glyph name="ringcomb" format="2">
	<unicode hex="030A"/>
	<outline>
		<contour>
			<point x="108" y="481" type="curve" smooth="yes"/>
			<point x="180" y="481"/>
			<point x="234" y="532"/>
			<point x="234" y="598" type="curve" smooth="yes"/>
			<point x="234" y="657"/>
			<point x="200" y="688"/>
			<point x="138" y="688" type="curve" smooth="yes"/>
			<point x="70" y="688"/>
			<point x="16" y="637"/>
			<point x="16" y="572" type="curve" smooth="yes"/>
			<point x="16" y="513"/>
			<point x="49" y="481"/>
		</contour>
		<contour>
			<point x="112" y="529" type="curve" smooth="yes"/>
			<point x="87" y="529"/>
			<point x="74" y="544"/>
			<point x="74" y="573" type="curve" smooth="yes"/>
			<point x="74" y="608"/>
			<point x="103" y="640"/>
			<point x="135" y="640" type="curve" smooth="yes"/>
			<point x="163" y="640"/>
			<point x="176" y="626"/>
			<point x="176" y="597" type="curve" smooth="yes"/>
			<point x="176" y="561"/>
			<point x="146" y="529"/>
		</contour>
	</outline>
	<anchor name="_top" x="65" y="400"/>
	<anchor name="top" x="147" y="654"/>
</glyph>
<glyph name="dotbelowcomb" format="2">
  <unicode hex="0323"/>
  <anchor x="-65" y="0" name="_bottom"/>
  <anchor x="-115" y="-155" name="bottom"/>
  <outline>
    <contour>
      <point x="-119" y="-186" type="curve" smooth="yes"/>
      <point x="-79" y="-186"/>
      <point x="-61" y="-155"/>
      <point x="-61" y="-126" type="curve" smooth="yes"/>
      <point x="-61" y="-99"/>
      <point x="-78" y="-85"/>
      <point x="-100" y="-85" type="curve" smooth="yes"/>
      <point x="-140" y="-85"/>
      <point x="-158" y="-116"/>
      <point x="-158" y="-145" type="curve" smooth="yes"/>
      <point x="-158" y="-172"/>
      <point x="-141" y="-186"/>
    </contour>
  </outline>
</glyph>
<glyph name="strokeshortcomb" format="2">
  <unicode hex="0335"/>
  <anchor x="31" y="343" name="_center"/>
  <outline>
    <contour>
      <point x="-131" y="306" type="curve" smooth="yes"/>
      <point x="170" y="306" type="line" smooth="yes"/>
      <point x="194" y="306"/>
      <point x="201" y="324"/>
      <point x="205" y="341" type="curve" smooth="yes"/>
      <point x="209" y="360"/>
      <point x="210" y="379"/>
      <point x="185" y="379" type="curve" smooth="yes"/>
      <point x="-114" y="379" type="line" smooth="yes"/>
      <point x="-139" y="379"/>
      <point x="-146" y="360"/>
      <point x="-150" y="341" type="curve" smooth="yes"/>
      <point x="-154" y="324"/>
      <point x="-155" y="306"/>
    </contour>
  </outline>
</glyph>
<glyph name="strokelongcomb" format="2">
	<unicode hex="0336"/>
	<outline>
		<contour>
			<point x="-450" y="245" type="curve" smooth="yes"/>
			<point x="485" y="245" type="line" smooth="yes"/>
			<point x="504" y="245"/>
			<point x="510" y="259"/>
			<point x="513" y="273" type="curve" smooth="yes"/>
			<point x="516" y="288"/>
			<point x="517" y="303"/>
			<point x="497" y="303" type="curve" smooth="yes"/>
			<point x="-436" y="303" type="line" smooth="yes"/>
			<point x="-456" y="303"/>
			<point x="-462" y="288"/>
			<point x="-465" y="273" type="curve" smooth="yes"/>
			<point x="-468" y="259"/>
			<point x="-469" y="245"/>
		</contour>
	</outline>
	<anchor name="_center" x="25" y="274"/>
</glyph>
<glyph name="slashshortcomb" format="2">
  <unicode hex="0337"/>
  <anchor x="31" y="343" name="_center"/>
  <outline>
    <contour>
      <point x="-94" y="261" type="curve" smooth="yes"/>
      <point x="195" y="369" type="line" smooth="yes"/>
      <point x="211" y="375"/>
      <point x="213" y="391"/>
      <point x="205" y="411" type="curve" smooth="yes"/>
      <point x="196" y="435"/>
      <point x="186" y="440"/>
      <point x="168" y="433" type="curve" smooth="yes"/>
      <point x="-117" y="329" type="line" smooth="yes"/>
      <point x="-136" y="321"/>
      <point x="-139" y="305"/>
      <point x="-134" y="288" type="curve" smooth="yes"/>
      <point x="-127" y="261"/>
      <point x="-115" y="254"/>
    </contour>
  </outline>
</glyph>
<glyph name="Germandbls" format="2">
  <advance width="1060"/>
  <unicode hex="1E9E"/>
  <outline>
    <contour>
      <point x="629" y="-15" type="curve" smooth="yes"/>
      <point x="844" y="-15"/>
      <point x="999" y="137"/>
      <point x="999" y="346" type="curve" smooth="yes"/>
      <point x="999" y="617"/>
      <point x="773" y="715"/>
      <point x="773" y="904" type="curve" smooth="yes"/>
      <point x="773" y="1051"/>
      <point x="905" y="1146"/>
      <point x="1061" y="1146" type="curve" smooth="yes"/>
      <point x="1077" y="1146"/>
      <point x="1086" y="1153"/>
      <point x="1094" y="1179" type="curve" smooth="yes"/>
      <point x="1102" y="1204"/>
      <point x="1099" y="1212"/>
      <point x="1083" y="1212" type="curve" smooth="yes"/>
      <point x="1044" y="1212" type="line" smooth="yes"/>
      <point x="565" y="1212"/>
      <point x="424" y="1003"/>
      <point x="319" y="680" type="curve" smooth="yes"/>
      <point x="103" y="13" type="line" smooth="yes"/>
      <point x="97" y="-4"/>
      <point x="110" y="-11"/>
      <point x="134" y="-11" type="curve" smooth="yes"/>
      <point x="158" y="-11"/>
      <point x="170" y="-4"/>
      <point x="175" y="11" type="curve" smooth="yes"/>
      <point x="392" y="682" type="line" smooth="yes"/>
      <point x="480" y="955"/>
      <point x="591" y="1156"/>
      <point x="1024" y="1156" type="curve"/>
      <point x="1034" y="1181" type="line"/>
      <point x="863" y="1181"/>
      <point x="699" y="1076"/>
      <point x="699" y="888" type="curve" smooth="yes"/>
      <point x="699" y="689"/>
      <point x="924" y="592"/>
      <point x="924" y="341" type="curve" smooth="yes"/>
      <point x="924" y="174"/>
      <point x="803" y="53"/>
      <point x="636" y="53" type="curve" smooth="yes"/>
      <point x="547" y="53"/>
      <point x="487" y="71"/>
      <point x="411" y="113" type="curve" smooth="yes"/>
      <point x="392" y="123"/>
      <point x="380" y="120"/>
      <point x="371" y="103" type="curve" smooth="yes"/>
      <point x="359" y="80"/>
      <point x="362" y="66"/>
      <point x="380" y="55" type="curve" smooth="yes"/>
      <point x="460" y="6"/>
      <point x="537" y="-15"/>
    </contour>
  </outline>
</glyph>
<glyph name="emdash" format="2">
	<unicode hex="2014"/>
	<advance width="1000"/>
	<outline>
		<contour>
			<point x="84" y="241" type="curve" smooth="yes"/>
			<point x="944" y="241" type="line" smooth="yes"/>
			<point x="960" y="241"/>
			<point x="968" y="249"/>
			<point x="976" y="273" type="curve" smooth="yes"/>
			<point x="984" y="297"/>
			<point x="980" y="305"/>
			<point x="964" y="305" type="curve" smooth="yes"/>
			<point x="104" y="305" type="line" smooth="yes"/>
			<point x="88" y="305"/>
			<point x="80" y="297"/>
			<point x="72" y="273" type="curve" smooth="yes"/>
			<point x="64" y="249"/>
			<point x="68" y="241"/>
		</contour>
	</outline>
</glyph>
<glyph name="quoteright" format="2">
  <advance width="230"/>
  <unicode hex="2019"/>
  <outline>
    <contour>
      <point x="545" y="1545" type="curve" smooth="yes"/>
      <point x="513" y="1545"/>
      <point x="494" y="1526"/>
      <point x="493" y="1501" type="curve" smooth="yes"/>
      <point x="489" y="1422"/>
      <point x="473" y="1365"/>
      <point x="404" y="1275" type="curve" smooth="yes"/>
      <point x="399" y="1267"/>
      <point x="397" y="1261"/>
      <point x="397" y="1255" type="curve" smooth="yes"/>
      <point x="397" y="1241"/>
      <point x="417" y="1225"/>
      <point x="430" y="1225" type="curve" smooth="yes"/>
      <point x="438" y="1225"/>
      <point x="448" y="1229"/>
      <point x="459" y="1237" type="curve" smooth="yes"/>
      <point x="539" y="1300"/>
      <point x="593" y="1424"/>
      <point x="593" y="1505" type="curve" smooth="yes"/>
      <point x="593" y="1527"/>
      <point x="578" y="1545"/>
    </contour>
  </outline>
</glyph>
<glyph name="guilsinglright" format="2">
  <advance width="475"/>
  <unicode hex="203A"/>
  <outline>
    <contour>
      <point x="59" y="-15" type="curve" smooth="yes"/>
      <point x="79" y="-15"/>
      <point x="98" y="-7"/>
      <point x="121" y="13" type="curve" smooth="yes"/>
      <point x="345" y="211" type="line" smooth="yes"/>
      <point x="371" y="234"/>
      <point x="383" y="244"/>
      <point x="383" y="254" type="curve" smooth="yes"/>
      <point x="383" y="260"/>
      <point x="379" y="269"/>
      <point x="370" y="286" type="curve" smooth="yes"/>
      <point x="276" y="486" type="line" smooth="yes"/>
      <point x="266" y="508"/>
      <point x="251" y="514"/>
      <point x="231" y="514" type="curve" smooth="yes"/>
      <point x="195" y="514"/>
      <point x="178" y="490"/>
      <point x="191" y="460" type="curve" smooth="yes"/>
      <point x="309" y="205" type="line"/>
      <point x="306" y="293" type="line"/>
      <point x="23" y="39" type="line" smooth="yes"/>
      <point x="-5" y="14"/>
      <point x="23" y="-15"/>
    </contour>
  </outline>
</glyph>
<glyph name="euro" format="2">
  <advance width="1201"/>
  <unicode hex="20AC"/>
  <outline>
    <contour>
      <point x="659" y="-19" type="curve" smooth="yes"/>
      <point x="830" y="-19"/>
      <point x="1013" y="96"/>
      <point x="1193" y="331" type="curve" smooth="yes"/>
      <point x="1208" y="351"/>
      <point x="1205" y="361"/>
      <point x="1188" y="379" type="curve" smooth="yes"/>
      <point x="1173" y="394"/>
      <point x="1158" y="404"/>
      <point x="1143" y="388" type="curve" smooth="yes"/>
      <point x="990" y="214"/>
      <point x="845" y="66"/>
      <point x="671" y="66" type="curve" smooth="yes"/>
      <point x="460" y="66"/>
      <point x="346" y="213"/>
      <point x="346" y="488" type="curve" smooth="yes"/>
      <point x="346" y="903"/>
      <point x="643" y="1430"/>
      <point x="1058" y="1430" type="curve" smooth="yes"/>
      <point x="1215" y="1430"/>
      <point x="1288" y="1389"/>
      <point x="1373" y="1296" type="curve" smooth="yes"/>
      <point x="1390" y="1280"/>
      <point x="1401" y="1284"/>
      <point x="1419" y="1298" type="curve" smooth="yes"/>
      <point x="1438" y="1313"/>
      <point x="1444" y="1321"/>
      <point x="1434" y="1336" type="curve" smooth="yes"/>
      <point x="1355" y="1454"/>
      <point x="1239" y="1515"/>
      <point x="1070" y="1515" type="curve" smooth="yes"/>
      <point x="560" y="1515"/>
      <point x="253" y="925"/>
      <point x="253" y="480" type="curve" smooth="yes"/>
      <point x="253" y="159"/>
      <point x="406" y="-19"/>
    </contour>
    <contour>
      <point x="206" y="801" type="curve" smooth="yes"/>
      <point x="1071" y="801" type="line" smooth="yes"/>
      <point x="1091" y="801"/>
      <point x="1103" y="810"/>
      <point x="1111" y="840" type="curve" smooth="yes"/>
      <point x="1121" y="870"/>
      <point x="1118" y="879"/>
      <point x="1098" y="879" type="curve" smooth="yes"/>
      <point x="233" y="879" type="line" smooth="yes"/>
      <point x="213" y="879"/>
      <point x="201" y="870"/>
      <point x="191" y="840" type="curve" smooth="yes"/>
      <point x="183" y="810"/>
      <point x="186" y="801"/>
    </contour>
    <contour>
      <point x="158" y="615" type="curve" smooth="yes"/>
      <point x="1023" y="615" type="line" smooth="yes"/>
      <point x="1043" y="615"/>
      <point x="1054" y="624"/>
      <point x="1064" y="654" type="curve" smooth="yes"/>
      <point x="1073" y="684"/>
      <point x="1069" y="693"/>
      <point x="1049" y="693" type="curve" smooth="yes"/>
      <point x="184" y="693" type="line" smooth="yes"/>
      <point x="164" y="693"/>
      <point x="153" y="684"/>
      <point x="144" y="654" type="curve" smooth="yes"/>
      <point x="134" y="624"/>
      <point x="138" y="615"/>
    </contour>
  </outline>
</glyph>
<glyph name="notequal" format="2">
  <advance width="610"/>
  <unicode hex="2260"/>
  <outline>
    <contour>
      <point x="182" y="43" type="curve" smooth="yes"/>
      <point x="199" y="43"/>
      <point x="209" y="48"/>
      <point x="216" y="61" type="curve" smooth="yes"/>
      <point x="545" y="625" type="line" smooth="yes"/>
      <point x="557" y="646"/>
      <point x="546" y="657"/>
      <point x="515" y="657" type="curve" smooth="yes"/>
      <point x="498" y="657"/>
      <point x="488" y="652"/>
      <point x="481" y="639" type="curve" smooth="yes"/>
      <point x="152" y="75" type="line" smooth="yes"/>
      <point x="140" y="54"/>
      <point x="151" y="43"/>
    </contour>
    <component base="equal"/>
  </outline>
</glyph>
<glyph name="A.cur" format="2">
	<advance width="1214"/>
	<outline>
		<contour>
			<point x="420" y="-15" type="curve" smooth="yes"/>
			<point x="640" y="-15"/>
			<point x="886" y="255"/>
			<point x="1128" y="762" type="curve"/>
			<point x="1071" y="765" type="line"/>
			<point x="839" y="300"/>
			<point x="617" y="53"/>
			<point x="433" y="53" type="curve" smooth="yes"/>
			<point x="326" y="53"/>
			<point x="263" y="148"/>
			<point x="263" y="309" type="curve" smooth="yes"/>
			<point x="263" y="713"/>
			<point x="589" y="1144"/>
			<point x="895" y="1144" type="curve" smooth="yes"/>
			<point x="1025" y="1144"/>
			<point x="1110" y="1097"/>
			<point x="1157" y="999" type="curve" smooth="yes"/>
			<point x="1166" y="980"/>
			<point x="1176" y="968"/>
			<point x="1201" y="981" type="curve" smooth="yes"/>
			<point x="1221" y="992"/>
			<point x="1225" y="1005"/>
			<point x="1213" y="1031" type="curve" smooth="yes"/>
			<point x="1158" y="1149"/>
			<point x="1052" y="1212"/>
			<point x="907" y="1212" type="curve" smooth="yes"/>
			<point x="548" y="1212"/>
			<point x="188" y="762"/>
			<point x="188" y="311" type="curve" smooth="yes"/>
			<point x="188" y="106"/>
			<point x="274" y="-15"/>
		</contour>
		<contour>
			<point x="956" y="-15" type="curve" smooth="yes"/>
			<point x="1021" y="-15"/>
			<point x="1085" y="40"/>
			<point x="1170" y="168" type="curve" smooth="yes"/>
			<point x="1180" y="183"/>
			<point x="1179" y="197"/>
			<point x="1161" y="210" type="curve" smooth="yes"/>
			<point x="1145" y="222"/>
			<point x="1129" y="221"/>
			<point x="1117" y="203" type="curve" smooth="yes"/>
			<point x="1053" y="101"/>
			<point x="1003" y="53"/>
			<point x="969" y="53" type="curve" smooth="yes"/>
			<point x="926" y="53"/>
			<point x="923" y="94"/>
			<point x="954" y="189" type="curve" smooth="yes"/>
			<point x="1143" y="763" type="line" smooth="yes"/>
			<point x="1149" y="780"/>
			<point x="1136" y="787"/>
			<point x="1112" y="787" type="curve" smooth="yes"/>
			<point x="1088" y="787"/>
			<point x="1076" y="780"/>
			<point x="1071" y="765" type="curve" smooth="yes"/>
			<point x="886" y="202" type="line" smooth="yes"/>
			<point x="840" y="62"/>
			<point x="864" y="-15"/>
		</contour>
	</outline>
	<anchor name="bottom" x="418" y="0"/>
	<anchor name="ogonek" x="1034" y="17"/>
	<anchor name="top" x="880" y="1139"/>
</glyph>
<glyph name="A.cur.ini" format="2">
  <advance width="1440"/>
  <anchor x="523" y="0" name="bottom"/>
  <anchor x="1358" y="0" name="cnct"/>
  <anchor x="1293" y="21" name="ogonek"/>
  <anchor x="1100" y="1424" name="top"/>
  <outline>
    <contour>
      <point x="525" y="-17" type="curve" smooth="yes"/>
      <point x="743" y="-17"/>
      <point x="980" y="193"/>
      <point x="1220" y="594" type="curve"/>
      <point x="1193" y="511" type="line" smooth="yes"/>
      <point x="1075" y="155"/>
      <point x="1115" y="-17"/>
      <point x="1273" y="-17" type="curve" smooth="yes"/>
      <point x="1323" y="-17"/>
      <point x="1341" y="58"/>
      <point x="1291" y="58" type="curve" smooth="yes"/>
      <point x="1175" y="58"/>
      <point x="1191" y="233"/>
      <point x="1281" y="506" type="curve" smooth="yes"/>
      <point x="1429" y="954" type="line" smooth="yes"/>
      <point x="1436" y="975"/>
      <point x="1420" y="984"/>
      <point x="1390" y="984" type="curve" smooth="yes"/>
      <point x="1360" y="984"/>
      <point x="1345" y="975"/>
      <point x="1339" y="956" type="curve"/>
      <point x="1049" y="376"/>
      <point x="771" y="68"/>
      <point x="541" y="68" type="curve" smooth="yes"/>
      <point x="408" y="68"/>
      <point x="329" y="185"/>
      <point x="329" y="386" type="curve" smooth="yes"/>
      <point x="329" y="891"/>
      <point x="736" y="1430"/>
      <point x="1119" y="1430" type="curve" smooth="yes"/>
      <point x="1281" y="1430"/>
      <point x="1388" y="1371"/>
      <point x="1446" y="1249" type="curve" smooth="yes"/>
      <point x="1458" y="1225"/>
      <point x="1470" y="1210"/>
      <point x="1501" y="1226" type="curve" smooth="yes"/>
      <point x="1526" y="1240"/>
      <point x="1531" y="1256"/>
      <point x="1516" y="1289" type="curve" smooth="yes"/>
      <point x="1448" y="1436"/>
      <point x="1315" y="1515"/>
      <point x="1134" y="1515" type="curve" smooth="yes"/>
      <point x="685" y="1515"/>
      <point x="235" y="953"/>
      <point x="235" y="389" type="curve" smooth="yes"/>
      <point x="235" y="133"/>
      <point x="343" y="-17"/>
    </contour>
  </outline>
</glyph>
<glyph name="A.cur_locl" format="2">
	<advance width="1214"/>
	<outline>
		<contour>
			<point x="420" y="-15" type="curve" smooth="yes"/>
			<point x="640" y="-15"/>
			<point x="886" y="255"/>
			<point x="1128" y="762" type="curve"/>
			<point x="1071" y="765" type="line"/>
			<point x="839" y="300"/>
			<point x="617" y="53"/>
			<point x="433" y="53" type="curve" smooth="yes"/>
			<point x="326" y="53"/>
			<point x="263" y="148"/>
			<point x="263" y="309" type="curve" smooth="yes"/>
			<point x="263" y="713"/>
			<point x="589" y="1144"/>
			<point x="895" y="1144" type="curve" smooth="yes"/>
			<point x="1020" y="1144"/>
			<point x="1108" y="1097"/>
			<point x="1155" y="1004" type="curve"/>
			<point x="1181" y="1086" type="line"/>
			<point x="1124" y="1164"/>
			<point x="1020" y="1212"/>
			<point x="907" y="1212" type="curve" smooth="yes"/>
			<point x="548" y="1212"/>
			<point x="188" y="762"/>
			<point x="188" y="311" type="curve" smooth="yes"/>
			<point x="188" y="106"/>
			<point x="274" y="-15"/>
		</contour>
		<contour>
			<point x="956" y="-15" type="curve" smooth="yes"/>
			<point x="1021" y="-15"/>
			<point x="1085" y="40"/>
			<point x="1170" y="168" type="curve" smooth="yes"/>
			<point x="1180" y="183"/>
			<point x="1179" y="197"/>
			<point x="1161" y="210" type="curve" smooth="yes"/>
			<point x="1145" y="222"/>
			<point x="1129" y="221"/>
			<point x="1117" y="203" type="curve" smooth="yes"/>
			<point x="1053" y="101"/>
			<point x="1003" y="53"/>
			<point x="969" y="53" type="curve" smooth="yes"/>
			<point x="926" y="53"/>
			<point x="923" y="93"/>
			<point x="954" y="189" type="curve" smooth="yes"/>
			<point x="1279" y="1188" type="line" smooth="yes"/>
			<point x="1284" y="1204"/>
			<point x="1272" y="1212"/>
			<point x="1248" y="1212" type="curve" smooth="yes"/>
			<point x="1224" y="1212"/>
			<point x="1211" y="1204"/>
			<point x="1207" y="1190" type="curve" smooth="yes"/>
			<point x="886" y="202" type="line" smooth="yes"/>
			<point x="840" y="59"/>
			<point x="864" y="-15"/>
		</contour>
	</outline>
	<anchor name="bottom" x="418" y="0"/>
	<anchor name="ogonek" x="1034" y="17"/>
	<anchor name="top" x="880" y="1139"/>
</glyph>
<glyph name="A.cur_locl.ini" format="2">
  <advance width="1440"/>
  <anchor x="523" y="0" name="bottom"/>
  <anchor x="1358" y="0" name="cnct"/>
  <anchor x="1293" y="21" name="ogonek"/>
  <anchor x="1100" y="1424" name="top"/>
  <outline>
    <contour>
      <point x="525" y="-17" type="curve" smooth="yes"/>
      <point x="743" y="-17"/>
      <point x="980" y="193"/>
      <point x="1219" y="593" type="curve"/>
      <point x="1193" y="511" type="line" smooth="yes"/>
      <point x="1078" y="155"/>
      <point x="1113" y="-17"/>
      <point x="1273" y="-17" type="curve" smooth="yes"/>
      <point x="1323" y="-17"/>
      <point x="1341" y="58"/>
      <point x="1291" y="58" type="curve" smooth="yes"/>
      <point x="1175" y="58"/>
      <point x="1191" y="233"/>
      <point x="1280" y="506" type="curve" smooth="yes"/>
      <point x="1599" y="1485" type="line" smooth="yes"/>
      <point x="1605" y="1505"/>
      <point x="1590" y="1515"/>
      <point x="1560" y="1515" type="curve" smooth="yes"/>
      <point x="1530" y="1515"/>
      <point x="1514" y="1505"/>
      <point x="1509" y="1488" type="curve" smooth="yes"/>
      <point x="1470" y="1366" type="line"/>
      <point x="1398" y="1459"/>
      <point x="1271" y="1515"/>
      <point x="1134" y="1515" type="curve" smooth="yes"/>
      <point x="685" y="1515"/>
      <point x="235" y="953"/>
      <point x="235" y="389" type="curve" smooth="yes"/>
      <point x="235" y="134"/>
      <point x="343" y="-17"/>
    </contour>
    <contour>
      <point x="329" y="386" type="curve" smooth="yes"/>
      <point x="329" y="891"/>
      <point x="736" y="1430"/>
      <point x="1119" y="1430" type="curve" smooth="yes"/>
      <point x="1270" y="1430"/>
      <point x="1378" y="1375"/>
      <point x="1438" y="1268" type="curve"/>
      <point x="1333" y="945" type="line"/>
      <point x="1045" y="371"/>
      <point x="770" y="68"/>
      <point x="541" y="68" type="curve" smooth="yes"/>
      <point x="408" y="68"/>
      <point x="329" y="186"/>
    </contour>
  </outline>
</glyph>
<glyph name="A.dec" format="2">
  <advance width="1155"/>
  <anchor x="620" y="0" name="bottom"/>
  <anchor x="958" y="0" name="ogonek"/>
  <anchor x="992" y="1139" name="top"/>
  <outline>
    <contour>
      <point x="188" y="-14" type="curve" smooth="yes"/>
      <point x="320" y="-14"/>
      <point x="467" y="74"/>
      <point x="1039" y="1183" type="curve"/>
      <point x="998" y="1182" type="line"/>
      <point x="943" y="800"/>
      <point x="903" y="417"/>
      <point x="911" y="7" type="curve" smooth="yes"/>
      <point x="911" y="-9"/>
      <point x="922" y="-15"/>
      <point x="944" y="-13" type="curve" smooth="yes"/>
      <point x="969" y="-11"/>
      <point x="978" y="-2"/>
      <point x="978" y="15" type="curve" smooth="yes"/>
      <point x="975" y="421"/>
      <point x="1008" y="782"/>
      <point x="1064" y="1179" type="curve" smooth="yes"/>
      <point x="1067" y="1202"/>
      <point x="1049" y="1212"/>
      <point x="1019" y="1212" type="curve" smooth="yes"/>
      <point x="997" y="1212"/>
      <point x="981" y="1204"/>
      <point x="972" y="1186" type="curve" smooth="yes"/>
      <point x="435" y="161"/>
      <point x="296" y="51"/>
      <point x="192" y="51" type="curve" smooth="yes"/>
      <point x="152" y="51"/>
      <point x="119" y="79"/>
      <point x="93" y="108" type="curve" smooth="yes"/>
      <point x="83" y="119"/>
      <point x="70" y="120"/>
      <point x="55" y="106" type="curve" smooth="yes"/>
      <point x="39" y="91"/>
      <point x="36" y="79"/>
      <point x="47" y="65" type="curve" smooth="yes"/>
      <point x="76" y="26"/>
      <point x="125" y="-14"/>
    </contour>
    <contour>
      <point x="910" y="85" type="curve"/>
      <point x="963" y="91" type="line"/>
      <point x="958" y="361"/>
      <point x="809" y="526"/>
      <point x="570" y="526" type="curve" smooth="yes"/>
      <point x="430" y="526"/>
      <point x="329" y="454"/>
      <point x="329" y="355" type="curve" smooth="yes"/>
      <point x="329" y="253"/>
      <point x="430" y="191"/>
      <point x="596" y="191" type="curve" smooth="yes"/>
      <point x="754" y="191"/>
      <point x="887" y="226"/>
      <point x="1123" y="312" type="curve" smooth="yes"/>
      <point x="1140" y="318"/>
      <point x="1146" y="331"/>
      <point x="1139" y="352" type="curve" smooth="yes"/>
      <point x="1133" y="370"/>
      <point x="1122" y="376"/>
      <point x="1107" y="370" type="curve" smooth="yes"/>
      <point x="900" y="291"/>
      <point x="760" y="253"/>
      <point x="606" y="253" type="curve" smooth="yes"/>
      <point x="478" y="253"/>
      <point x="400" y="294"/>
      <point x="400" y="361" type="curve" smooth="yes"/>
      <point x="400" y="421"/>
      <point x="468" y="464"/>
      <point x="563" y="464" type="curve" smooth="yes"/>
      <point x="778" y="464"/>
      <point x="909" y="321"/>
    </contour>
  </outline>
</glyph>
<glyph name="A.dec2.ini" format="2">
	<advance width="1083"/>
	<outline>
		<contour>
			<point x="949" y="-14" type="curve" smooth="yes"/>
			<point x="989" y="-14"/>
			<point x="1004" y="46"/>
			<point x="964" y="46" type="curve" smooth="yes"/>
			<point x="920" y="46"/>
			<point x="911" y="95"/>
			<point x="925" y="211" type="curve" smooth="yes"/>
			<point x="961" y="512"/>
			<point x="1027" y="837"/>
			<point x="1110" y="1180" type="curve"/>
			<point x="1036" y="1166" type="line"/>
			<point x="949" y="806"/>
			<point x="890" y="510"/>
			<point x="856" y="210" type="curve" smooth="yes"/>
			<point x="838" y="55"/>
			<point x="868" y="-14"/>
		</contour>
		<contour>
			<point x="276" y="-14" type="curve" smooth="yes"/>
			<point x="610" y="-14"/>
			<point x="696" y="1043"/>
			<point x="1097" y="1143" type="curve" smooth="yes"/>
			<point x="1120" y="1149"/>
			<point x="1131" y="1166"/>
			<point x="1125" y="1191" type="curve" smooth="yes"/>
			<point x="1120" y="1213"/>
			<point x="1108" y="1218"/>
			<point x="1085" y="1212" type="curve" smooth="yes"/>
			<point x="650" y="1105"/>
			<point x="534" y="54"/>
			<point x="282" y="54" type="curve" smooth="yes"/>
			<point x="234" y="54"/>
			<point x="204" y="119"/>
			<point x="204" y="226" type="curve" smooth="yes"/>
			<point x="204" y="459"/>
			<point x="346" y="516"/>
			<point x="752" y="516" type="curve" smooth="yes"/>
			<point x="1088" y="516" type="line" smooth="yes"/>
			<point x="1103" y="516"/>
			<point x="1113" y="525"/>
			<point x="1118" y="548" type="curve" smooth="yes"/>
			<point x="1122" y="571"/>
			<point x="1116" y="582"/>
			<point x="1099" y="582" type="curve" smooth="yes"/>
			<point x="757" y="582" type="line" smooth="yes"/>
			<point x="291" y="582"/>
			<point x="129" y="494"/>
			<point x="129" y="226" type="curve" smooth="yes"/>
			<point x="129" y="77"/>
			<point x="185" y="-14"/>
		</contour>
	</outline>
	<anchor name="bottom" x="680" y="0"/>
	<anchor name="cnct" x="1018" y="0"/>
	<anchor name="ogonek" x="985" y="-3"/>
	<anchor name="top" x="932" y="1139"/>
</glyph>
<glyph name="A.dec_locl" format="2">
	<advance width="1275"/>
	<outline>
		<contour>
			<point x="188" y="-14" type="curve" smooth="yes"/>
			<point x="320" y="-14"/>
			<point x="467" y="74"/>
			<point x="1039" y="1183" type="curve"/>
			<point x="998" y="1182" type="line"/>
			<point x="950" y="865"/>
			<point x="908" y="548"/>
			<point x="908" y="255" type="curve" smooth="yes"/>
			<point x="908" y="66"/>
			<point x="947" y="-14"/>
			<point x="1041" y="-14" type="curve" smooth="yes"/>
			<point x="1132" y="-14"/>
			<point x="1213" y="62"/>
			<point x="1332" y="304" type="curve" smooth="yes"/>
			<point x="1339" y="319"/>
			<point x="1330" y="330"/>
			<point x="1311" y="337" type="curve" smooth="yes"/>
			<point x="1291" y="344"/>
			<point x="1280" y="340"/>
			<point x="1273" y="326" type="curve" smooth="yes"/>
			<point x="1166" y="117"/>
			<point x="1106" y="50"/>
			<point x="1046" y="50" type="curve" smooth="yes"/>
			<point x="997" y="50"/>
			<point x="977" y="111"/>
			<point x="977" y="255" type="curve" smooth="yes"/>
			<point x="977" y="543"/>
			<point x="1017" y="848"/>
			<point x="1064" y="1179" type="curve" smooth="yes"/>
			<point x="1067" y="1202"/>
			<point x="1049" y="1212"/>
			<point x="1019" y="1212" type="curve" smooth="yes"/>
			<point x="997" y="1212"/>
			<point x="981" y="1204"/>
			<point x="972" y="1186" type="curve" smooth="yes"/>
			<point x="435" y="161"/>
			<point x="296" y="51"/>
			<point x="192" y="51" type="curve" smooth="yes"/>
			<point x="152" y="51"/>
			<point x="119" y="79"/>
			<point x="93" y="108" type="curve" smooth="yes"/>
			<point x="83" y="119"/>
			<point x="70" y="120"/>
			<point x="55" y="106" type="curve" smooth="yes"/>
			<point x="39" y="91"/>
			<point x="36" y="79"/>
			<point x="47" y="65" type="curve" smooth="yes"/>
			<point x="76" y="26"/>
			<point x="125" y="-14"/>
		</contour>
		<contour>
			<point x="543" y="355" type="line"/>
			<point x="955" y="355" type="line"/>
			<point x="973" y="417" type="line"/>
			<point x="561" y="417" type="line"/>
		</contour>
	</outline>
	<anchor name="bottom" x="610" y="0"/>
	<anchor name="ogonek" x="957" y="0"/>
	<anchor name="top" x="992" y="1139"/>
</glyph>
<glyph name="A.dec_locl.ini" format="2">
  <advance width="1155"/>
  <anchor x="610" y="0" name="bottom"/>
  <anchor x="1090" y="0" name="cnct"/>
  <anchor x="1027" y="0" name="ogonek"/>
  <anchor x="992" y="1139" name="top"/>
  <outline>
    <contour>
      <point x="188" y="-14" type="curve" smooth="yes"/>
      <point x="320" y="-14"/>
      <point x="467" y="74"/>
      <point x="1039" y="1183" type="curve"/>
      <point x="998" y="1182" type="line"/>
      <point x="950" y="865"/>
      <point x="908" y="548"/>
      <point x="908" y="255" type="curve" smooth="yes"/>
      <point x="908" y="66"/>
      <point x="941" y="-14"/>
      <point x="1021" y="-14" type="curve" smooth="yes"/>
      <point x="1061" y="-14"/>
      <point x="1076" y="46"/>
      <point x="1036" y="46" type="curve" smooth="yes"/>
      <point x="994" y="46"/>
      <point x="977" y="108"/>
      <point x="977" y="255" type="curve" smooth="yes"/>
      <point x="977" y="543"/>
      <point x="1017" y="848"/>
      <point x="1064" y="1179" type="curve" smooth="yes"/>
      <point x="1067" y="1202"/>
      <point x="1049" y="1212"/>
      <point x="1019" y="1212" type="curve" smooth="yes"/>
      <point x="997" y="1212"/>
      <point x="981" y="1204"/>
      <point x="972" y="1186" type="curve" smooth="yes"/>
      <point x="435" y="161"/>
      <point x="296" y="51"/>
      <point x="192" y="51" type="curve" smooth="yes"/>
      <point x="152" y="51"/>
      <point x="119" y="79"/>
      <point x="93" y="108" type="curve" smooth="yes"/>
      <point x="83" y="119"/>
      <point x="70" y="120"/>
      <point x="55" y="106" type="curve" smooth="yes"/>
      <point x="39" y="91"/>
      <point x="36" y="79"/>
      <point x="47" y="65" type="curve" smooth="yes"/>
      <point x="76" y="26"/>
      <point x="125" y="-14"/>
    </contour>
    <contour>
      <point x="543" y="355" type="line"/>
      <point x="955" y="355" type="line"/>
      <point x="973" y="417" type="line"/>
      <point x="561" y="417" type="line"/>
    </contour>
  </outline>
</glyph>
<glyph name="AE.cur" format="2">
  <advance width="1600"/>
  <anchor x="1191" y="1139" name="top"/>
  <outline>
    <contour>
      <point x="166" y="-14" type="curve" smooth="yes"/>
      <point x="309" y="-14"/>
      <point x="403" y="137"/>
      <point x="1060" y="1156" type="curve"/>
      <point x="1036" y="1158" type="line"/>
      <point x="962" y="880"/>
      <point x="909" y="608"/>
      <point x="876" y="294" type="curve" smooth="yes"/>
      <point x="873" y="265"/>
      <point x="879" y="253"/>
      <point x="910" y="257" type="curve" smooth="yes"/>
      <point x="934" y="260"/>
      <point x="943" y="271"/>
      <point x="946" y="301" type="curve" smooth="yes"/>
      <point x="978" y="598"/>
      <point x="1034" y="890"/>
      <point x="1107" y="1174" type="curve" smooth="yes"/>
      <point x="1113" y="1198"/>
      <point x="1098" y="1210"/>
      <point x="1062" y="1210" type="curve" smooth="yes"/>
      <point x="1037" y="1210"/>
      <point x="1017" y="1201"/>
      <point x="1005" y="1182" type="curve" smooth="yes"/>
      <point x="370" y="197"/>
      <point x="266" y="51"/>
      <point x="170" y="51" type="curve" smooth="yes"/>
      <point x="142" y="51"/>
      <point x="118" y="66"/>
      <point x="94" y="93" type="curve" smooth="yes"/>
      <point x="84" y="104"/>
      <point x="71" y="110"/>
      <point x="52" y="93" type="curve" smooth="yes"/>
      <point x="34" y="76"/>
      <point x="35" y="65"/>
      <point x="44" y="51" type="curve" smooth="yes"/>
      <point x="67" y="16"/>
      <point x="112" y="-14"/>
    </contour>
    <contour>
      <point x="524" y="381" type="line"/>
      <point x="919" y="381" type="line"/>
      <point x="931" y="443" type="line"/>
      <point x="570" y="443" type="line"/>
    </contour>
    <contour>
      <point x="1152" y="-15" type="curve" smooth="yes"/>
      <point x="1300" y="-15"/>
      <point x="1450" y="78"/>
      <point x="1558" y="235" type="curve" smooth="yes"/>
      <point x="1577" y="262"/>
      <point x="1570" y="274"/>
      <point x="1558" y="283" type="curve" smooth="yes"/>
      <point x="1539" y="297"/>
      <point x="1524" y="298"/>
      <point x="1508" y="275" type="curve" smooth="yes"/>
      <point x="1411" y="135"/>
      <point x="1281" y="53"/>
      <point x="1163" y="53" type="curve" smooth="yes"/>
      <point x="1034" y="53"/>
      <point x="949" y="131"/>
      <point x="949" y="251" type="curve" smooth="yes"/>
      <point x="949" y="452"/>
      <point x="1105" y="597"/>
      <point x="1329" y="597" type="curve" smooth="yes"/>
      <point x="1466" y="597" type="line" smooth="yes"/>
      <point x="1478" y="597"/>
      <point x="1489" y="608"/>
      <point x="1495" y="629" type="curve" smooth="yes"/>
      <point x="1501" y="651"/>
      <point x="1496" y="661"/>
      <point x="1484" y="661" type="curve" smooth="yes"/>
      <point x="1339" y="661" type="line" smooth="yes"/>
      <point x="1238" y="661"/>
      <point x="1172" y="732"/>
      <point x="1172" y="851" type="curve" smooth="yes"/>
      <point x="1172" y="1001"/>
      <point x="1284" y="1144"/>
      <point x="1437" y="1144" type="curve" smooth="yes"/>
      <point x="1539" y="1144"/>
      <point x="1630" y="1101"/>
      <point x="1683" y="1024" type="curve" smooth="yes"/>
      <point x="1693" y="1009"/>
      <point x="1707" y="1008"/>
      <point x="1725" y="1021" type="curve" smooth="yes"/>
      <point x="1741" y="1033"/>
      <point x="1744" y="1046"/>
      <point x="1734" y="1061" type="curve" smooth="yes"/>
      <point x="1680" y="1158"/>
      <point x="1569" y="1212"/>
      <point x="1450" y="1212" type="curve" smooth="yes"/>
      <point x="1246" y="1212"/>
      <point x="1097" y="1040"/>
      <point x="1097" y="851" type="curve" smooth="yes"/>
      <point x="1097" y="757"/>
      <point x="1143" y="667"/>
      <point x="1206" y="637" type="curve"/>
      <point x="1016" y="601"/>
      <point x="874" y="443"/>
      <point x="874" y="251" type="curve" smooth="yes"/>
      <point x="874" y="90"/>
      <point x="984" y="-15"/>
    </contour>
  </outline>
</glyph>
<glyph name="AE.cur.locl" format="2">
  <advance width="1860"/>
  <anchor x="1400" y="1424" name="top"/>
  <outline>
    <contour>
      <point x="129" y="-17" type="curve" smooth="yes"/>
      <point x="266" y="-17"/>
      <point x="378" y="92"/>
      <point x="830" y="704" type="curve"/>
      <point x="1118" y="704" type="line"/>
      <point x="904" y="40" type="line" smooth="yes"/>
      <point x="895" y="11"/>
      <point x="909" y="0"/>
      <point x="943" y="0" type="curve" smooth="yes"/>
      <point x="1371" y="0" type="line" smooth="yes"/>
      <point x="1589" y="0"/>
      <point x="1723" y="103"/>
      <point x="1849" y="346" type="curve" smooth="yes"/>
      <point x="1858" y="364"/>
      <point x="1850" y="381"/>
      <point x="1829" y="393" type="curve" smooth="yes"/>
      <point x="1806" y="404"/>
      <point x="1789" y="400"/>
      <point x="1780" y="383" type="curve" smooth="yes"/>
      <point x="1673" y="170"/>
      <point x="1561" y="80"/>
      <point x="1384" y="80" type="curve" smooth="yes"/>
      <point x="1005" y="80" type="line"/>
      <point x="1205" y="704" type="line"/>
      <point x="1541" y="704" type="line" smooth="yes"/>
      <point x="1556" y="704"/>
      <point x="1570" y="718"/>
      <point x="1578" y="744" type="curve" smooth="yes"/>
      <point x="1585" y="771"/>
      <point x="1579" y="784"/>
      <point x="1564" y="784" type="curve" smooth="yes"/>
      <point x="1231" y="784" type="line"/>
      <point x="1433" y="1408" type="line"/>
      <point x="1891" y="1408" type="line" smooth="yes"/>
      <point x="1906" y="1408"/>
      <point x="1920" y="1421"/>
      <point x="1928" y="1448" type="curve" smooth="yes"/>
      <point x="1935" y="1475"/>
      <point x="1929" y="1488"/>
      <point x="1914" y="1488" type="curve" smooth="yes"/>
      <point x="1359" y="1488" type="line" smooth="yes"/>
      <point x="1314" y="1488"/>
      <point x="1294" y="1471"/>
      <point x="1260" y="1425" type="curve" smooth="yes"/>
      <point x="399" y="241"/>
      <point x="253" y="64"/>
      <point x="131" y="64" type="curve" smooth="yes"/>
      <point x="93" y="64"/>
      <point x="66" y="88"/>
      <point x="35" y="128" type="curve" smooth="yes"/>
      <point x="20" y="148"/>
      <point x="1" y="148"/>
      <point x="-19" y="129" type="curve" smooth="yes"/>
      <point x="-37" y="111"/>
      <point x="-41" y="93"/>
      <point x="-29" y="76" type="curve" smooth="yes"/>
      <point x="8" y="25"/>
      <point x="54" y="-17"/>
    </contour>
    <contour>
      <point x="889" y="784" type="line"/>
      <point x="1015" y="955"/>
      <point x="1165" y="1162"/>
      <point x="1345" y="1411" type="curve"/>
      <point x="1143" y="784" type="line"/>
    </contour>
  </outline>
</glyph>
